<?xml version="1.0" encoding="UTF-8" standalone="no"?>
<svg
   xmlns:dc="http://purl.org/dc/elements/1.1/"
   xmlns:cc="http://creativecommons.org/ns#"
   xmlns:rdf="http://www.w3.org/1999/02/22-rdf-syntax-ns#"
   xmlns:svg="http://www.w3.org/2000/svg"
   xmlns="http://www.w3.org/2000/svg"
   xmlns:sodipodi="http://sodipodi.sourceforge.net/DTD/sodipodi-0.dtd"
   xmlns:inkscape="http://www.inkscape.org/namespaces/inkscape"
   width="6.75in"
   height="6.75in"
   viewBox="0 0 171.45 171.45"
   version="1.1"
   id="svg8"
   inkscape:version="1.0.1 (3bc2e813f5, 2020-09-07)"
   sodipodi:docname="UNICORN-BASIC-FLORAL-CROWN.svg"
   inkscape:export-filename="C:\Jessica\Projects\SideCanvas\Freebies\UNICORN-BASIC-FLORAL-CROWN\UNICORN-BASIC-FLORAL-CROWN.png"
   inkscape:export-xdpi="300"
   inkscape:export-ydpi="300">
  <defs
     id="defs2">
    <rect
       x="191.36498"
       y="-13.363477"
       width="193.50314"
       height="161.4308"
       id="rect1016" />
    <inkscape:path-effect
       effect="mirror_symmetry"
       start_point="67.916024,75.01293"
       end_point="67.916024,124.16624"
       center_point="67.916024,99.589584"
       id="path-effect1096"
       is_visible="true"
       lpeversion="1"
       mode="vertical"
       discard_orig_path="false"
       fuse_paths="false"
       oposite_fuse="false"
       split_items="false" />
    <inkscape:path-effect
       effect="mirror_symmetry"
       start_point="62.683491,78.918009"
       end_point="62.683491,112.80653"
       center_point="62.683491,95.862272"
       id="path-effect1031"
       is_visible="true"
       lpeversion="1"
       mode="vertical"
       discard_orig_path="false"
       fuse_paths="false"
       oposite_fuse="false"
       split_items="false" />
    <inkscape:path-effect
       effect="mirror_symmetry"
       start_point="63.185025,64.026477"
       end_point="63.185025,155.30085"
       center_point="63.185025,109.66366"
       id="path-effect4640"
       is_visible="true"
       lpeversion="1"
       mode="vertical"
       discard_orig_path="false"
       fuse_paths="false"
       oposite_fuse="false"
       split_items="false" />
    <inkscape:path-effect
       effect="mirror_symmetry"
       start_point="24.402465,121.24726"
       end_point="24.402465,145.35497"
       center_point="24.402465,133.30112"
       id="path-effect4600"
       is_visible="true"
       lpeversion="1"
       mode="vertical"
       discard_orig_path="false"
       fuse_paths="false"
       oposite_fuse="false"
       split_items="false" />
    <inkscape:path-effect
       effect="mirror_symmetry"
       start_point="63.185025,64.026477"
       end_point="63.185025,155.30085"
       center_point="63.185025,109.66366"
       id="path-effect4578"
       is_visible="true"
       lpeversion="1"
       mode="vertical"
       discard_orig_path="false"
       fuse_paths="false"
       oposite_fuse="false"
       split_items="false" />
    <inkscape:path-effect
       effect="mirror_symmetry"
       start_point="63.185025,64.026477"
       end_point="63.185025,155.30085"
       center_point="63.185025,109.66366"
       id="path-effect4428"
       is_visible="true"
       lpeversion="1"
       mode="vertical"
       discard_orig_path="false"
       fuse_paths="false"
       oposite_fuse="false"
       split_items="false" />
    <inkscape:path-effect
       effect="mirror_symmetry"
       start_point="24.402465,121.24726"
       end_point="24.402465,145.35497"
       center_point="24.402465,133.30112"
       id="path-effect4405"
       is_visible="true"
       lpeversion="1"
       mode="vertical"
       discard_orig_path="false"
       fuse_paths="false"
       oposite_fuse="false"
       split_items="false" />
    <inkscape:path-effect
       effect="mirror_symmetry"
       start_point="24.402465,121.24726"
       end_point="24.402465,145.35497"
       center_point="24.402465,133.30112"
       id="path-effect4278"
       is_visible="true"
       lpeversion="1"
       mode="vertical"
       discard_orig_path="false"
       fuse_paths="false"
       oposite_fuse="false"
       split_items="false" />
    <inkscape:path-effect
       effect="mirror_symmetry"
       start_point="63.185025,64.026477"
       end_point="63.185025,155.30085"
       center_point="63.185025,109.66366"
       id="path-effect4176"
       is_visible="true"
       lpeversion="1"
       mode="vertical"
       discard_orig_path="false"
       fuse_paths="false"
       oposite_fuse="false"
       split_items="false" />
  </defs>
  <sodipodi:namedview
     id="base"
     pagecolor="#ffffff"
     bordercolor="#666666"
     borderopacity="1.0"
     inkscape:pageopacity="0.0"
     inkscape:pageshadow="2"
     inkscape:zoom="0.98994948"
     inkscape:cx="461.07645"
     inkscape:cy="380.28243"
     inkscape:document-units="mm"
     inkscape:current-layer="g1056"
     inkscape:document-rotation="0"
     showgrid="false"
     inkscape:window-width="1920"
     inkscape:window-height="1017"
     inkscape:window-x="1272"
     inkscape:window-y="-8"
     inkscape:window-maximized="1"
     units="in"
     borderlayer="true"
     inkscape:pagecheckerboard="true"
     inkscape:snap-global="false"
     showguides="false" />
  <metadata
     id="metadata5">
    <rdf:RDF>
      <cc:Work
         rdf:about="">
        <dc:format>image/svg+xml</dc:format>
        <dc:type
           rdf:resource="http://purl.org/dc/dcmitype/StillImage" />
        <dc:title></dc:title>
      </cc:Work>
    </rdf:RDF>
  </metadata>
  <g
     inkscape:groupmode="layer"
     id="layer2"
     inkscape:label="Cut File"
     style="display:inline">
    <text
       xml:space="preserve"
       id="text1014"
       style="fill:none;stroke:black;stroke-opacity:1;stroke-width:0.26458333px;stroke-linejoin:miter;stroke-linecap:butt;font-family:Sans;font-style:italic;font-size:10.58333333px;line-height:125%;letter-spacing:0px;word-spacing:0px;-inkscape-font-specification:'Sans Italic';white-space:pre;shape-inside:url(#rect1016);" />
    <g
       id="g1056">
      <path
         style="color:#000000;overflow:visible;fill:#a1cdf6;fill-opacity:1;stroke:none;stroke-width:1.25993;stroke-linecap:round;stroke-linejoin:round;stroke-miterlimit:4;stroke-dasharray:none;stroke-opacity:1;paint-order:normal"
         d="m 123.49778,92.811665 c -1.05329,0.07489 -2.38335,0.458797 -2.84447,1.481381 0.48048,1.272248 0.47519,2.708592 0.15601,4.036726 -0.71922,1.877038 -2.43234,3.320388 -4.33552,3.829788 -0.28888,1.09733 0.18073,2.33026 -0.19758,3.4385 -0.29263,0.90677 1.42586,0.80475 0.91667,1.75117 -0.4388,1.34689 -0.60579,2.96553 0.43675,4.09313 1.45222,2.0577 4.75995,2.23031 6.4077,0.31684 0.61138,-0.45533 0.67902,-1.45633 1.3676,-1.76245 0.82914,0.43008 1.35522,1.36084 2.31523,1.61773 2.34697,1.05968 5.32806,-0.58675 5.70248,-3.12456 0.29394,-1.4367 -0.53973,-2.72629 -1.41789,-3.77211 1.10178,-1.02922 2.48998,-2.12096 2.44512,-3.79499 0.29964,-2.595548 -2.49113,-4.638673 -4.91634,-4.053152 -0.52266,0.0311 -1.56458,0.719737 -1.68573,-0.174044 -0.19739,-2.175298 -2.12832,-4.013422 -4.35003,-3.883959 z"
         id="path1138" />
      <path
         style="color:#000000;overflow:visible;fill:#e9799f;fill-opacity:1;stroke:none;stroke-width:1.25993;stroke-linecap:round;stroke-linejoin:round;stroke-miterlimit:4;stroke-dasharray:none;stroke-opacity:1;paint-order:normal"
         d="m 47.679552,92.818757 c -2.058482,0.03479 -3.892299,1.714094 -4.052845,3.779521 -0.007,0.998887 -1.095768,0.35852 -1.64544,0.27526 -2.402915,-0.581593 -5.097309,1.355904 -5.018514,3.894572 -0.03476,1.57924 1.083581,2.82066 2.267839,3.707 0.430892,0.57468 -0.593792,0.97138 -0.733277,1.49298 -1.155497,1.98965 -0.1841,4.8205 1.998381,5.62286 1.764986,0.89219 3.798605,0.0309 5.065894,-1.30733 0.285542,-0.31163 0.872681,-0.44697 0.938273,0.11475 0.937741,2.64009 4.763019,3.66711 6.791591,1.6522 1.5083,-1.20865 1.514064,-3.3715 0.833841,-5.02624 -0.05649,-0.60622 0.809237,-0.54417 1.081705,-0.87606 -0.06473,-1.12607 -0.431276,-2.22818 -0.08864,-3.36084 0.206979,-0.8697 -0.965304,-0.77724 -1.439156,-1.1568 -2.474412,-1.12944 -3.957307,-4.144035 -3.062357,-6.765792 0.303677,-0.637498 -0.01598,-1.288391 -0.675581,-1.503618 -0.684792,-0.384771 -1.477278,-0.571996 -2.261714,-0.542463 z"
         id="path1144" />
      <path
         style="color:#000000;overflow:visible;fill:#000000;stroke:none;stroke-width:1.25993;stroke-linecap:round;stroke-linejoin:round;stroke-miterlimit:4;stroke-dasharray:none;stroke-opacity:1;paint-order:normal"
         d="m 48.261338,123.26472 c -1.155332,0.50715 -2.683003,0.63271 -3.469124,1.71861 -0.475116,1.04886 0.799068,2.46979 1.882543,1.81737 1.34145,-0.28698 2.605228,-1.06783 3.971101,-1.10054 0.374054,0.12318 0.440122,0.48129 0.02869,0.63529 -0.89604,0.80694 -2.214658,1.36677 -2.771947,2.49959 -0.318843,1.26134 1.421465,2.28191 2.353904,1.33314 1.045081,-0.68533 2.031523,-1.45418 3.0385,-2.19309 0.367887,0.3851 1.5846,0.56078 0.97289,1.23305 -0.389389,1.01167 -1.592358,1.88158 -1.36193,3.05509 0.272898,1.27052 2.17649,1.21785 2.684277,0.14052 0.577621,-0.61581 0.887039,-1.58622 1.528115,-2.08378 0.7156,0.13589 1.390977,0.43624 2.089921,0.63658 -0.07133,1.07882 -0.843588,2.64719 0.390973,3.36565 1.050673,0.76408 2.113082,-0.50855 2.216589,-1.51554 0.168323,-0.55741 0.06312,-1.53513 0.946653,-1.37695 0.91982,-0.21724 1.592262,-0.11395 1.488471,0.95858 0.09457,1.03654 1.338808,2.01551 2.256238,1.20193 1.023386,-0.66023 0.416198,-2.00258 0.435775,-2.96567 0.771206,-0.0337 1.855377,-1.11938 2.358636,-0.25201 0.635139,0.69148 1.331453,2.14853 2.494527,1.58416 0.787005,-0.3098 1.248071,-1.31417 0.669456,-2.03061 -0.110603,-0.41268 -0.795843,-0.91856 -0.651405,-1.24093 1.015668,-0.44405 1.123469,-1.91675 0.213051,-2.52505 -1.257043,-0.50553 -2.493114,0.57889 -3.667673,0.90636 -3.187198,1.35339 -6.933772,2.04273 -10.177208,0.47943 -2.6704,-1.1905 -4.872604,-3.16355 -6.936662,-5.18465 -0.992971,0.10859 -1.997254,0.64197 -2.984357,0.90347 z"
         id="path1148" />
      <path
         style="color:#000000;overflow:visible;fill:#000000;stroke:none;stroke-width:1.25993;stroke-linecap:round;stroke-linejoin:round;stroke-miterlimit:4;stroke-dasharray:none;stroke-opacity:1;paint-order:normal"
         d="m 120.42769,122.43474 c -0.94048,0.30482 -1.50144,1.32537 -2.30742,1.87615 -2.79517,2.37942 -6.30051,4.64192 -10.14504,4.07548 -2.62838,-0.21577 -4.9737,-1.46359 -7.41402,-2.31328 -1.252959,-0.47768 -2.362364,1.31733 -1.372434,2.22271 0.680235,0.36934 0.39778,0.79231 -0.02614,1.28831 -0.912253,0.81886 -0.264873,2.53469 0.955674,2.48637 1.21367,-0.0168 1.61993,-1.48409 2.38614,-2.10958 0.62128,0.28233 1.55053,0.37017 1.98355,0.83674 -0.0802,0.98916 -0.47749,2.54391 0.7423,3.00789 1.05101,0.42879 1.9624,-0.58251 2.00451,-1.58033 0.0781,-0.48118 0.0117,-1.23656 0.76196,-0.90992 0.6368,0.0971 1.61299,-0.12442 1.48267,0.81418 0.16554,1.00357 0.56098,2.65065 1.90813,2.37904 1.10078,-0.21554 1.40632,-1.4779 1.03142,-2.40418 -0.0659,-0.46756 -0.51656,-1.19519 0.23078,-1.26414 0.54629,-0.1379 1.18323,-0.54543 1.70958,-0.45188 0.92291,0.80938 1.25516,2.39063 2.50411,2.82029 1.10872,0.30776 2.2889,-1.12267 1.46655,-2.08025 -0.4278,-0.80007 -0.96764,-1.53189 -1.46333,-2.28975 0.82946,-0.86778 1.64936,-0.93571 2.45706,0.009 0.96933,0.58622 1.85179,1.57338 3.00368,1.73746 1.05822,-0.17893 1.71503,-1.67589 0.75809,-2.40289 -0.73529,-0.81348 -1.92097,-1.38305 -2.56502,-2.11023 0.37381,-0.7882 1.09333,-0.33691 1.73125,-0.0984 1.09901,0.29181 2.17992,0.95872 3.32465,0.9558 1.19616,-0.19837 1.61107,-2.12148 0.40194,-2.57888 -1.79739,-0.73104 -3.64675,-1.53646 -5.55067,-1.91522 z"
         id="path1150" />
      <path
         style="color:#000000;overflow:visible;fill:#000000;stroke:none;stroke-width:1.7818;stroke-linecap:round;stroke-linejoin:round;stroke-miterlimit:4;stroke-dasharray:none;stroke-opacity:1;paint-order:normal"
         d="m 38.919563,68.546448 c -1.369966,-0.268196 -2.033664,0.493996 -2.027069,1.8379 -1.216426,6.252809 -0.850151,12.895148 1.264252,18.916976 1.092147,2.543988 2.27068,5.270839 4.450014,7.051581 0.497751,-1.3332 1.259503,-2.657717 2.401304,-3.601966 -1.309442,-4.765909 -2.876563,-9.711914 -2.419284,-14.740599 -0.221921,-1.591849 1.666608,-0.548117 2.605026,-0.568318 3.288146,0.620315 6.694132,1.692672 8.939946,4.322083 1.087306,1.090073 1.921744,2.397916 2.55583,3.796596 1.020836,-0.347273 1.70413,-1.683512 2.838444,-2.114588 0.71217,-0.150743 1.479076,-0.766962 0.972737,-1.537509 -1.657928,-4.785501 -5.051994,-9.053327 -9.73604,-11.145008 -3.680142,-1.75798 -7.804399,-2.279991 -11.84516,-2.217148 z"
         id="path1152" />
      <path
         style="color:#000000;overflow:visible;fill:#000000;stroke:none;stroke-width:1.7818;stroke-linecap:round;stroke-linejoin:round;stroke-miterlimit:4;stroke-dasharray:none;stroke-opacity:1;paint-order:normal"
         d="m 131.60135,68.533683 c -6.21664,-0.03455 -12.79944,1.896984 -16.94512,6.767183 -1.83435,2.155435 -3.26761,4.765126 -3.89901,7.517117 1.13899,0.759678 2.57063,1.237445 3.38775,2.451632 0.82971,1.061938 1.05868,-0.991244 1.56301,-1.53086 2.03048,-3.322122 5.63426,-5.364177 9.42,-6.062547 1.17567,-0.283463 2.38017,-0.455605 3.58752,-0.596651 0.7144,4.017719 -0.34259,8.10295 -1.27404,12.000597 -0.28582,1.213166 -0.87011,2.396514 -1.03473,3.604237 1.20075,0.878982 1.75344,2.217316 2.33977,3.490277 0.88804,0.112033 1.3502,-1.169354 1.89943,-1.717561 4.46007,-6.779505 5.31147,-15.371097 4.07146,-23.244063 -0.27741,-0.92697 -0.11924,-2.702443 -1.52748,-2.620559 -0.5279,-0.05182 -1.05838,-0.06596 -1.58856,-0.0588 z"
         id="path1154" />
      <path
         style="color:#000000;overflow:visible;fill:#c391f9;fill-opacity:1;stroke-width:2.49491;stroke-linecap:round;stroke-linejoin:round;paint-order:stroke markers fill"
         d="m 89.230687,78.831477 c -2.568832,0.08014 -4.778218,2.038399 -5.446876,4.472181 -0.320642,0.817547 -1.174119,-0.139603 -1.623522,-0.321996 -2.280785,-1.716677 -5.695269,-0.927433 -7.391107,1.233195 -1.998456,2.243594 -1.719133,6.006224 0.612406,7.910685 0.371073,0.410309 1.153923,0.714322 1.229649,1.279608 -0.840251,1.180659 -2.005823,2.253111 -2.148581,3.792738 -0.577285,2.440805 0.685421,5.152262 2.997571,6.168532 1.888172,0.96941 4.074001,0.29371 5.8227,-0.6456 0.680079,-0.33536 0.425178,0.57264 0.749393,0.85221 1.094388,2.30195 3.863612,3.90384 6.379345,2.99853 2.866231,-0.75336 4.845789,-3.90644 4.192731,-6.816407 -0.10856,-0.796527 -0.675748,-1.485001 -0.622076,-2.308108 2.167734,0.13053 4.52605,-0.531667 5.846555,-2.368417 2.084235,-2.531011 1.395495,-6.883411 -1.624819,-8.360961 -0.976919,-0.630895 -2.196605,-0.447734 -3.220289,-0.85189 -0.430288,-0.945518 -0.0064,-2.104488 -0.39194,-3.095556 -0.61159,-2.300014 -2.966555,-4.083941 -5.36114,-3.938744 z"
         id="path894" />
      <path
         style="color:#000000;overflow:visible;fill:#9291f6;fill-opacity:1;stroke-width:2.49491;stroke-linecap:round;stroke-linejoin:round;paint-order:stroke markers fill"
         d="m 109.00628,83.703012 c -2.47924,0.0081 -4.55554,2.074643 -4.89636,4.474439 -0.0485,0.898269 -0.93627,0.211152 -1.37502,0.07124 -0.53708,-0.152607 -1.31738,-0.826903 -1.81401,-0.357775 0.29337,1.056052 0.9781,2.08016 0.94633,3.231897 0.21956,3.095865 -1.966533,6.107885 -4.948569,6.891499 -1.575184,0.559297 -1.344717,2.540268 -1.401124,3.872338 -0.06667,2.75183 2.900074,4.77725 5.486843,4.4622 1.56473,-0.0454 2.73267,-1.13049 3.94809,-1.95359 0.68423,0.88027 0.85955,2.1958 1.77115,2.97437 2.13271,2.46605 6.58416,2.05294 8.21495,-0.76873 0.88266,-1.44686 0.73963,-3.23723 0.26076,-4.77871 0.27836,-0.70781 1.34877,-0.35416 1.88847,-0.77582 1.7521,-0.7277 3.20924,-2.431231 3.05398,-4.415435 0.30436,-2.748289 -2.23778,-5.066126 -4.8522,-5.22996 -0.44672,-0.01204 -1.36478,-0.132415 -1.05721,-0.799997 0.51302,-1.643287 0.31444,-3.53552 -0.81837,-4.885074 -0.99822,-1.391928 -2.71632,-2.112566 -4.40771,-2.012885 z"
         id="path896" />
      <path
         style="color:#000000;overflow:visible;fill:#eb77c2;fill-opacity:1;stroke-width:2.49491;stroke-linecap:round;stroke-linejoin:round;paint-order:stroke markers fill"
         d="m 62.015648,83.700434 c -2.931399,-0.05605 -5.497099,2.852053 -5.023992,5.752923 -0.138761,0.572533 0.510777,1.218647 0.139563,1.710061 -1.020911,0.386252 -2.217301,0.252915 -3.172269,0.883478 -1.651859,0.877263 -2.881093,2.660796 -2.657522,4.586937 -0.185088,2.563973 2.211236,4.553437 4.591761,4.824457 0.824319,0.34408 -0.105916,1.29419 0.0025,1.90716 -0.364196,2.21191 0.931609,4.51398 3.043664,5.29152 2.375971,0.92312 5.42972,-0.007 6.556379,-2.38944 0.427006,-0.55011 0.491402,-1.47285 1.024251,-1.8597 1.189552,0.81506 2.328975,1.91962 3.876858,1.92618 2.135217,0.22191 4.58797,-0.95788 5.245749,-3.05043 -2.022773,-1.77562 -2.593457,-4.746861 -1.761154,-7.245723 0.306195,-1.010956 1.206006,-1.791118 1.479769,-2.748741 -1.368116,-1.12642 -2.459165,-2.604606 -2.673961,-4.41062 -0.116875,-0.559311 -0.176772,-1.427764 -0.992746,-1.216112 -1.3958,-0.210083 -2.645551,0.445015 -3.89813,0.927637 -0.579709,0.145999 -0.476856,-0.871169 -0.66978,-1.215467 -0.613329,-2.249475 -2.783516,-3.802252 -5.111018,-3.67412 z"
         id="path898" />
      <path
         style="color:#000000;overflow:visible;fill:#f8c35f;fill-opacity:1;stroke-width:2.49491;stroke-linecap:round;stroke-linejoin:round;paint-order:stroke markers fill"
         d="m 79.184958,71.556728 c -0.573669,3.150958 -1.086114,6.31593 -1.547455,9.485538 0.398904,0.469723 1.273371,0.110771 1.852285,0.234438 1.255571,6.53e-4 2.439805,0.48392 3.49306,1.153791 0.609807,-0.290366 0.669721,-1.254418 1.143911,-1.72344 0.981741,-1.555152 2.785656,-2.195006 4.395792,-2.790642 -0.97494,-1.026062 -2.412203,-1.752599 -3.561563,-2.665442 -1.868636,-1.268628 -3.659267,-2.701605 -5.619705,-3.809956 l -0.132643,0.09818 z"
         id="path900" />
      <path
         style="color:#000000;overflow:visible;fill:#f8da61;fill-opacity:1;stroke-width:2.49491;stroke-linecap:round;stroke-linejoin:round;paint-order:stroke markers fill"
         d="m 80.86392,61.519702 c -0.558194,0.328515 -0.228917,1.249842 -0.468929,1.790548 -0.297187,2.290741 -0.816057,4.597074 -0.995368,6.873719 3.350542,2.573218 6.827913,4.997357 10.348064,7.336635 1.069757,0.725496 2.372848,0.988973 3.457199,1.665746 0.548579,-0.199843 0.0069,-1.064656 0.0776,-1.505439 C 92.810317,74.821665 92.490804,71.898762 91.800217,69.097108 88.204785,66.543861 84.627454,63.925657 80.9445,61.518411 l -0.039,-0.002 z"
         id="path902" />
      <path
         style="color:#000000;overflow:visible;fill:#f8c35f;fill-opacity:1;stroke-width:2.49491;stroke-linecap:round;stroke-linejoin:round;paint-order:stroke markers fill"
         d="m 82.448764,51.665429 c -0.548109,0.373204 -0.327921,1.327261 -0.554873,1.906349 -0.307501,2.265904 -0.786971,4.544566 -0.839481,6.825929 3.408154,2.485894 6.836846,4.989951 10.380297,7.279262 0.503188,-0.367125 -0.09253,-1.215223 -6.54e-4,-1.746326 -0.453765,-2.978201 -0.847004,-5.989916 -1.406602,-8.936307 -2.489702,-1.740751 -4.790193,-3.792232 -7.422049,-5.310534 -0.05087,-0.01397 -0.103729,-0.02348 -0.156648,-0.01837 z"
         id="path904" />
      <path
         style="color:#000000;overflow:visible;fill:#f8da61;fill-opacity:1;stroke-width:2.49491;stroke-linecap:round;stroke-linejoin:round;paint-order:stroke markers fill"
         d="m 83.847308,41.687064 c -0.599865,2.820163 -0.973813,5.729662 -1.316352,8.602061 2.24591,1.817605 4.596061,3.570461 6.97886,5.224154 0.65937,-0.05563 0.0395,-0.979026 0.114423,-1.365668 -0.554704,-3.189639 -0.949082,-6.428762 -1.552612,-9.597061 -1.377372,-0.949387 -2.634019,-2.133984 -4.117953,-2.902809 z"
         id="path906" />
      <path
         style="color:#000000;overflow:visible;fill:#f8c35f;fill-opacity:1;stroke-width:2.49491;stroke-linecap:round;stroke-linejoin:round;paint-order:stroke markers fill"
         d="m 85.651007,33.434398 c -0.822156,0.334835 -0.677067,1.535687 -0.926023,2.244633 -0.204683,1.556058 -0.627893,3.14325 -0.582754,4.70264 1.02512,1.032256 2.235134,1.958378 3.515539,2.634639 0.395903,-0.458108 -0.107604,-1.29315 -0.07212,-1.886018 -0.462769,-2.44763 -0.58626,-4.9944 -1.375745,-7.363583 -0.104003,-0.20914 -0.320599,-0.35555 -0.558903,-0.332311 z"
         id="path908" />
      <g
         aria-label="FREE SVGs ON WWW.SIDECANVAS.COM"
         id="text1012"
         style="font-style:normal;font-variant:normal;font-weight:normal;font-stretch:normal;font-size:9.0707px;line-height:125%;font-family:Rubik;-inkscape-font-specification:Rubik;letter-spacing:0px;word-spacing:0px;fill:#6a1bbd;fill-opacity:1;stroke:none;stroke-width:0.226768px;stroke-linecap:butt;stroke-linejoin:miter;stroke-opacity:1"
         transform="matrix(0.84854462,0,0,0.84854462,12.983506,13.031791)">
        <path
           d="m 2.7146421,168.30876 q -0.090707,0 -0.1542019,-0.0635 -0.063495,-0.0635 -0.063495,-0.15421 v -5.90502 q 0,-0.0998 0.063495,-0.16327 0.063495,-0.0635 0.1542019,-0.0635 h 3.9366837 q 0.099778,0 0.1632726,0.0635 0.063495,0.0635 0.063495,0.16327 v 0.63495 q 0,0.0998 -0.063495,0.16327 -0.063495,0.0544 -0.1632726,0.0544 H 3.7396312 v 1.72343 h 2.7302806 q 0.099778,0 0.1632726,0.0635 0.063495,0.0635 0.063495,0.16328 v 0.63494 q 0,0.0907 -0.063495,0.15421 -0.063495,0.0635 -0.1632726,0.0635 H 3.7396312 v 2.24953 q 0,0.0907 -0.063495,0.15421 -0.063495,0.0635 -0.1632726,0.0635 z"
           style="font-style:normal;font-variant:normal;font-weight:500;font-stretch:normal;font-family:Rubik;-inkscape-font-specification:'Rubik Medium';fill:#6a1bbd;fill-opacity:1;stroke:none;stroke-width:0.226768px"
           id="path909" />
        <path
           d="m 8.1661311,168.30876 q -0.090707,0 -0.1542019,-0.0635 -0.063495,-0.0635 -0.063495,-0.15421 v -5.90502 q 0,-0.0998 0.063495,-0.16327 0.063495,-0.0635 0.1542019,-0.0635 h 2.3493109 q 1.097555,0 1.732504,0.50796 0.634949,0.50796 0.634949,1.47853 0,0.67123 -0.335616,1.11569 -0.326545,0.44447 -0.879858,0.64402 l 1.324322,2.31303 q 0.02721,0.0544 0.02721,0.0998 0,0.0816 -0.06349,0.13606 -0.05443,0.0544 -0.12699,0.0544 h -0.825434 q -0.154202,0 -0.235838,-0.0816 -0.08164,-0.0816 -0.12699,-0.16328 l -1.17012,-2.14975 H 9.2092615 v 2.17696 q 0,0.0907 -0.063495,0.15421 -0.054424,0.0635 -0.1542019,0.0635 z m 1.0431304,-3.41965 H 10.48823 q 0.553313,0 0.825434,-0.24491 0.272121,-0.25398 0.272121,-0.70752 0,-0.45353 -0.272121,-0.70751 -0.26305,-0.26305 -0.825434,-0.26305 H 9.2092615 Z"
           style="font-style:normal;font-variant:normal;font-weight:500;font-stretch:normal;font-family:Rubik;-inkscape-font-specification:'Rubik Medium';fill:#6a1bbd;fill-opacity:1;stroke:none;stroke-width:0.226768px"
           id="path911" />
        <path
           d="m 14.270697,168.30876 q -0.09071,0 -0.154202,-0.0635 -0.06349,-0.0635 -0.06349,-0.15421 v -5.90502 q 0,-0.0998 0.06349,-0.16327 0.06349,-0.0635 0.154202,-0.0635 h 3.991108 q 0.09978,0 0.163273,0.0635 0.06349,0.0635 0.06349,0.16327 v 0.59867 q 0,0.0907 -0.06349,0.1542 -0.06349,0.0635 -0.163273,0.0635 h -2.98426 v 1.60552 h 2.784705 q 0.09978,0 0.163272,0.0635 0.06349,0.0544 0.06349,0.1542 v 0.56239 q 0,0.0998 -0.06349,0.16327 -0.0635,0.0544 -0.163272,0.0544 h -2.784705 v 1.65994 h 3.056826 q 0.09978,0 0.163272,0.0635 0.06349,0.0635 0.06349,0.16327 v 0.59866 q 0,0.0907 -0.06349,0.15421 -0.06349,0.0635 -0.163272,0.0635 z"
           style="font-style:normal;font-variant:normal;font-weight:500;font-stretch:normal;font-family:Rubik;-inkscape-font-specification:'Rubik Medium';fill:#6a1bbd;fill-opacity:1;stroke:none;stroke-width:0.226768px"
           id="path913" />
        <path
           d="m 19.912671,168.30876 q -0.09071,0 -0.154202,-0.0635 -0.0635,-0.0635 -0.0635,-0.15421 v -5.90502 q 0,-0.0998 0.0635,-0.16327 0.06349,-0.0635 0.154202,-0.0635 h 3.991108 q 0.09978,0 0.163272,0.0635 0.06349,0.0635 0.06349,0.16327 v 0.59867 q 0,0.0907 -0.06349,0.1542 -0.06349,0.0635 -0.163272,0.0635 h -2.984261 v 1.60552 h 2.784705 q 0.09978,0 0.163273,0.0635 0.06349,0.0544 0.06349,0.1542 v 0.56239 q 0,0.0998 -0.06349,0.16327 -0.06349,0.0544 -0.163273,0.0544 h -2.784705 v 1.65994 h 3.056826 q 0.09978,0 0.163273,0.0635 0.06349,0.0635 0.06349,0.16327 v 0.59866 q 0,0.0907 -0.06349,0.15421 -0.06349,0.0635 -0.163273,0.0635 z"
           style="font-style:normal;font-variant:normal;font-weight:500;font-stretch:normal;font-family:Rubik;-inkscape-font-specification:'Rubik Medium';fill:#6a1bbd;fill-opacity:1;stroke:none;stroke-width:0.226768px"
           id="path915" />
        <path
           d="m 29.618301,168.39947 q -0.843575,0 -1.41503,-0.24491 -0.562383,-0.25398 -0.861716,-0.65309 -0.290262,-0.40818 -0.308404,-0.85265 0,-0.0816 0.05442,-0.13606 0.05442,-0.0544 0.136061,-0.0544 h 0.807292 q 0.117919,0 0.172343,0.0544 0.06349,0.0454 0.108849,0.11792 0.05442,0.17235 0.208626,0.34469 0.154202,0.16327 0.417252,0.27212 0.272121,0.10885 0.680303,0.10885 0.65309,0 0.970564,-0.2177 0.326546,-0.2177 0.326546,-0.58959 0,-0.26305 -0.172344,-0.41726 -0.172343,-0.16327 -0.535171,-0.29026 -0.353757,-0.13606 -0.943353,-0.28119 -0.680302,-0.16327 -1.142908,-0.39004 -0.453535,-0.23584 -0.689373,-0.5896 -0.226767,-0.35375 -0.226767,-0.898 0,-0.5261 0.281191,-0.93428 0.290263,-0.40818 0.816363,-0.64402 0.535171,-0.23584 1.269898,-0.23584 0.589596,0 1.043131,0.16328 0.453535,0.1542 0.752868,0.41725 0.299333,0.25398 0.453535,0.55331 0.163272,0.29026 0.172343,0.57146 0,0.0726 -0.05442,0.13606 -0.04535,0.0544 -0.136061,0.0544 h -0.843575 q -0.07257,0 -0.145131,-0.0363 -0.07257,-0.0363 -0.117919,-0.13606 -0.05442,-0.28119 -0.353757,-0.48075 -0.299333,-0.19955 -0.77101,-0.19955 -0.489818,0 -0.789151,0.18141 -0.299333,0.18141 -0.299333,0.56238 0,0.25398 0.145131,0.42633 0.154202,0.16327 0.480747,0.29026 0.335616,0.12699 0.879858,0.27212 0.77101,0.17234 1.260828,0.39911 0.489817,0.22677 0.716585,0.58052 0.226767,0.34469 0.226767,0.87986 0,0.59867 -0.326545,1.02499 -0.317474,0.41725 -0.897999,0.64402 -0.580525,0.22677 -1.351534,0.22677 z"
           style="font-style:normal;font-variant:normal;font-weight:500;font-stretch:normal;font-family:Rubik;-inkscape-font-specification:'Rubik Medium';fill:#6a1bbd;fill-opacity:1;stroke:none;stroke-width:0.226768px"
           id="path917" />
        <path
           d="m 34.870218,168.30876 q -0.145131,0 -0.226767,-0.0726 -0.08164,-0.0726 -0.11792,-0.18142 l -1.941129,-5.82339 q -0.01814,-0.0454 -0.01814,-0.0816 0,-0.0816 0.05443,-0.13606 0.05442,-0.0544 0.13606,-0.0544 h 0.798222 q 0.126989,0 0.190484,0.0726 0.07257,0.0635 0.09071,0.12699 l 1.532949,4.67141 1.532948,-4.67141 q 0.01814,-0.0635 0.08164,-0.12699 0.07257,-0.0726 0.199556,-0.0726 h 0.798221 q 0.07257,0 0.12699,0.0544 0.0635,0.0544 0.0635,0.13606 0,0.0363 -0.01814,0.0816 l -1.941129,5.82339 q -0.03628,0.10885 -0.117919,0.18142 -0.08164,0.0726 -0.226768,0.0726 z"
           style="font-style:normal;font-variant:normal;font-weight:500;font-stretch:normal;font-family:Rubik;-inkscape-font-specification:'Rubik Medium';fill:#6a1bbd;fill-opacity:1;stroke:none;stroke-width:0.226768px"
           id="path919" />
        <path
           d="m 41.410175,168.39947 q -0.834505,0 -1.4241,-0.29026 -0.580525,-0.29027 -0.90707,-0.83451 -0.317475,-0.55331 -0.344687,-1.31525 -0.0091,-0.39004 -0.0091,-0.8345 0,-0.45354 0.0091,-0.85265 0.02721,-0.75287 0.344687,-1.28804 0.326545,-0.53517 0.916141,-0.82543 0.598666,-0.29027 1.415029,-0.29027 0.662161,0 1.161049,0.18142 0.498889,0.17234 0.825434,0.45353 0.335616,0.27212 0.498888,0.5896 0.172344,0.31747 0.181414,0.58959 0.0091,0.0816 -0.04535,0.13607 -0.05442,0.0544 -0.145131,0.0544 h -0.934282 q -0.09071,0 -0.136061,-0.0363 -0.04535,-0.0363 -0.08164,-0.10885 -0.07257,-0.19049 -0.226768,-0.3719 -0.154201,-0.19049 -0.417252,-0.31747 -0.26305,-0.12699 -0.680302,-0.12699 -0.616808,0 -0.988706,0.32654 -0.362828,0.32655 -0.390041,1.07941 -0.02721,0.78915 0,1.59645 0.02721,0.77101 0.399111,1.10662 0.38097,0.33562 0.997777,0.33562 0.408182,0 0.725656,-0.14513 0.326545,-0.14513 0.507959,-0.45354 0.190485,-0.3084 0.190485,-0.78915 v -0.28119 H 41.74579 q -0.09071,0 -0.154202,-0.0635 -0.06349,-0.0635 -0.06349,-0.16327 v -0.48075 q 0,-0.0998 0.06349,-0.16327 0.0635,-0.0635 0.154202,-0.0635 h 2.167897 q 0.09978,0 0.154202,0.0635 0.0635,0.0635 0.0635,0.16327 v 0.95243 q 0,0.76194 -0.335616,1.31525 -0.326545,0.55331 -0.943353,0.85265 -0.607737,0.29933 -1.442241,0.29933 z"
           style="font-style:normal;font-variant:normal;font-weight:500;font-stretch:normal;font-family:Rubik;-inkscape-font-specification:'Rubik Medium';fill:#6a1bbd;fill-opacity:1;stroke:none;stroke-width:0.226768px"
           id="path921" />
        <path
           d="m 46.970504,168.39947 q -0.544242,0 -0.934282,-0.12699 -0.38097,-0.12699 -0.625879,-0.31748 -0.244909,-0.19048 -0.362828,-0.38097 -0.117919,-0.19048 -0.12699,-0.31747 -0.0091,-0.0998 0.05443,-0.1542 0.07256,-0.0635 0.154202,-0.0635 h 0.716585 q 0.03628,0 0.0635,0.009 0.02721,0.009 0.07256,0.0544 0.117919,0.0998 0.244909,0.20862 0.136061,0.10885 0.317475,0.19049 0.181414,0.0726 0.453535,0.0726 0.353757,0 0.589595,-0.13606 0.244909,-0.14513 0.244909,-0.40818 0,-0.19048 -0.108848,-0.3084 -0.09978,-0.11792 -0.38097,-0.20863 -0.281191,-0.0998 -0.798221,-0.20862 -0.507959,-0.11792 -0.843575,-0.29934 -0.335616,-0.18141 -0.498889,-0.45353 -0.163272,-0.27212 -0.163272,-0.63495 0,-0.35376 0.208626,-0.67123 0.217696,-0.32655 0.634949,-0.53517 0.426322,-0.20863 1.052201,-0.20863 0.489818,0 0.852646,0.12699 0.362828,0.11792 0.598666,0.29933 0.244909,0.18142 0.371898,0.3719 0.12699,0.18142 0.136061,0.31748 0.0091,0.0998 -0.05442,0.16327 -0.06349,0.0544 -0.145131,0.0544 h -0.671232 q -0.04535,0 -0.08164,-0.0181 -0.03628,-0.0181 -0.07257,-0.0454 -0.09978,-0.0907 -0.217697,-0.19049 -0.117919,-0.10884 -0.290262,-0.18141 -0.163273,-0.0726 -0.435394,-0.0726 -0.344687,0 -0.526101,0.15421 -0.181413,0.14513 -0.181413,0.3719 0,0.1542 0.08164,0.27212 0.09071,0.10884 0.353757,0.20862 0.26305,0.0998 0.798222,0.20863 0.607737,0.10885 0.961494,0.32654 0.362828,0.20863 0.507959,0.48982 0.154202,0.27212 0.154202,0.60774 0,0.40818 -0.244909,0.73472 -0.235838,0.32655 -0.707515,0.51703 -0.462605,0.18142 -1.151978,0.18142 z"
           style="font-style:normal;font-variant:normal;font-weight:500;font-stretch:normal;font-family:Rubik;-inkscape-font-specification:'Rubik Medium';fill:#6a1bbd;fill-opacity:1;stroke:none;stroke-width:0.226768px"
           id="path923" />
        <path
           d="m 54.635225,168.39947 q -0.807292,0 -1.387817,-0.26305 -0.580525,-0.27212 -0.90707,-0.82544 -0.326545,-0.56238 -0.353758,-1.39688 -0.0091,-0.39004 -0.0091,-0.77101 0,-0.38097 0.0091,-0.78008 0.02721,-0.82544 0.362828,-1.37875 0.335616,-0.55331 0.916141,-0.8345 0.589596,-0.2812 1.369676,-0.2812 0.78008,0 1.369675,0.2812 0.589596,0.28119 0.925212,0.8345 0.335616,0.55331 0.362828,1.37875 0.01814,0.39911 0.01814,0.78008 0,0.38097 -0.01814,0.77101 -0.02721,0.8345 -0.353757,1.39688 -0.326546,0.55332 -0.916141,0.82544 -0.580525,0.26305 -1.387817,0.26305 z m 0,-1.04313 q 0.589595,0 0.961494,-0.34469 0.371899,-0.35376 0.399111,-1.14291 0.01814,-0.39911 0.01814,-0.73472 0,-0.34469 -0.01814,-0.73473 -0.01814,-0.5261 -0.199556,-0.85265 -0.172343,-0.33561 -0.471676,-0.48074 -0.299333,-0.1542 -0.689373,-0.1542 -0.38097,0 -0.680303,0.1542 -0.299333,0.14513 -0.480747,0.48074 -0.172343,0.32655 -0.190484,0.85265 -0.0091,0.39004 -0.0091,0.73473 0,0.33561 0.0091,0.73472 0.02721,0.78915 0.39911,1.14291 0.371899,0.34469 0.952424,0.34469 z"
           style="font-style:normal;font-variant:normal;font-weight:500;font-stretch:normal;font-family:Rubik;-inkscape-font-specification:'Rubik Medium';fill:#6a1bbd;fill-opacity:1;stroke:none;stroke-width:0.226768px"
           id="path925" />
        <path
           d="m 58.717038,168.30876 q -0.09071,0 -0.154202,-0.0635 -0.06349,-0.0635 -0.06349,-0.15421 v -5.90502 q 0,-0.0998 0.06349,-0.16327 0.0635,-0.0635 0.154202,-0.0635 h 0.698444 q 0.126989,0 0.181414,0.0635 0.06349,0.0544 0.08164,0.0816 l 2.612361,4.06368 V 162.186 q 0,-0.0998 0.05443,-0.16327 0.0635,-0.0635 0.163272,-0.0635 h 0.761939 q 0.09978,0 0.163273,0.0635 0.06349,0.0635 0.06349,0.16327 v 5.89595 q 0,0.0998 -0.06349,0.16328 -0.0635,0.0635 -0.154202,0.0635 h -0.707515 q -0.12699,0 -0.181414,-0.0635 -0.05442,-0.0635 -0.08164,-0.0816 l -2.603291,-3.97297 v 3.9004 q 0,0.0907 -0.0635,0.15421 -0.06349,0.0635 -0.163272,0.0635 z"
           style="font-style:normal;font-variant:normal;font-weight:500;font-stretch:normal;font-family:Rubik;-inkscape-font-specification:'Rubik Medium';fill:#6a1bbd;fill-opacity:1;stroke:none;stroke-width:0.226768px"
           id="path927" />
        <path
           d="m 67.923758,168.30876 q -0.13606,0 -0.217697,-0.0726 -0.07257,-0.0816 -0.09978,-0.19956 l -1.079414,-5.81432 q 0,-0.0272 -0.0091,-0.0453 0,-0.0181 0,-0.0272 0,-0.0816 0.05442,-0.13606 0.06349,-0.0544 0.13606,-0.0544 h 0.798222 q 0.226767,0 0.253979,0.18142 l 0.752869,4.10902 0.816362,-2.65771 q 0.02721,-0.0726 0.09071,-0.14513 0.07257,-0.0816 0.208627,-0.0816 h 0.489817 q 0.145132,0 0.208626,0.0816 0.06349,0.0726 0.08164,0.14513 l 0.825433,2.64864 0.752868,-4.09995 q 0.02721,-0.18142 0.25398,-0.18142 h 0.798222 q 0.07257,0 0.126989,0.0544 0.05442,0.0544 0.05442,0.13606 0,0.009 0,0.0272 0,0.0181 -0.0091,0.0453 l -1.079413,5.81432 q -0.01814,0.11792 -0.09978,0.19956 -0.08164,0.0726 -0.217697,0.0726 h -0.607737 q -0.13606,0 -0.217696,-0.0726 -0.07257,-0.0726 -0.09978,-0.15421 l -1.015919,-3.02961 -1.015918,3.02961 q -0.03628,0.0816 -0.108848,0.15421 -0.07257,0.0726 -0.217697,0.0726 z"
           style="font-style:normal;font-variant:normal;font-weight:500;font-stretch:normal;font-family:Rubik;-inkscape-font-specification:'Rubik Medium';fill:#6a1bbd;fill-opacity:1;stroke:none;stroke-width:0.226768px"
           id="path929" />
        <path
           d="m 75.325453,168.30876 q -0.13606,0 -0.217697,-0.0726 -0.07256,-0.0816 -0.09978,-0.19956 l -1.079413,-5.81432 q 0,-0.0272 -0.0091,-0.0453 0,-0.0181 0,-0.0272 0,-0.0816 0.05442,-0.13606 0.0635,-0.0544 0.136061,-0.0544 h 0.798221 q 0.226768,0 0.25398,0.18142 l 0.752868,4.10902 0.816363,-2.65771 q 0.02721,-0.0726 0.09071,-0.14513 0.07256,-0.0816 0.208626,-0.0816 h 0.489818 q 0.145131,0 0.208626,0.0816 0.06349,0.0726 0.08164,0.14513 l 0.825434,2.64864 0.752868,-4.09995 q 0.02721,-0.18142 0.253979,-0.18142 h 0.798222 q 0.07257,0 0.12699,0.0544 0.05442,0.0544 0.05442,0.13606 0,0.009 0,0.0272 0,0.0181 -0.0091,0.0453 l -1.079413,5.81432 q -0.01814,0.11792 -0.09978,0.19956 -0.08164,0.0726 -0.217697,0.0726 h -0.607736 q -0.136061,0 -0.217697,-0.0726 -0.07257,-0.0726 -0.09978,-0.15421 l -1.015918,-3.02961 -1.015919,3.02961 q -0.03628,0.0816 -0.108848,0.15421 -0.07257,0.0726 -0.217697,0.0726 z"
           style="font-style:normal;font-variant:normal;font-weight:500;font-stretch:normal;font-family:Rubik;-inkscape-font-specification:'Rubik Medium';fill:#6a1bbd;fill-opacity:1;stroke:none;stroke-width:0.226768px"
           id="path931" />
        <path
           d="m 82.727141,168.30876 q -0.136061,0 -0.217697,-0.0726 -0.07256,-0.0816 -0.09978,-0.19956 l -1.079413,-5.81432 q 0,-0.0272 -0.0091,-0.0453 0,-0.0181 0,-0.0272 0,-0.0816 0.05443,-0.13606 0.0635,-0.0544 0.13606,-0.0544 h 0.798222 q 0.226767,0 0.253979,0.18142 l 0.752868,4.10902 0.816363,-2.65771 q 0.02721,-0.0726 0.09071,-0.14513 0.07257,-0.0816 0.208626,-0.0816 h 0.489818 q 0.145131,0 0.208626,0.0816 0.0635,0.0726 0.08164,0.14513 l 0.825433,2.64864 0.752868,-4.09995 q 0.02721,-0.18142 0.25398,-0.18142 h 0.798222 q 0.07256,0 0.126989,0.0544 0.05442,0.0544 0.05442,0.13606 0,0.009 0,0.0272 0,0.0181 -0.0091,0.0453 l -1.079413,5.81432 q -0.01814,0.11792 -0.09978,0.19956 -0.08164,0.0726 -0.217697,0.0726 h -0.607737 q -0.13606,0 -0.217697,-0.0726 -0.07256,-0.0726 -0.09978,-0.15421 l -1.015919,-3.02961 -1.015918,3.02961 q -0.03628,0.0816 -0.108848,0.15421 -0.07257,0.0726 -0.217697,0.0726 z"
           style="font-style:normal;font-variant:normal;font-weight:500;font-stretch:normal;font-family:Rubik;-inkscape-font-specification:'Rubik Medium';fill:#6a1bbd;fill-opacity:1;stroke:none;stroke-width:0.226768px"
           id="path933" />
        <path
           d="m 88.858933,168.30876 q -0.09071,0 -0.154202,-0.0635 -0.06349,-0.0635 -0.06349,-0.15421 v -0.89799 q 0,-0.0998 0.06349,-0.16328 0.0635,-0.0635 0.154202,-0.0635 h 0.90707 q 0.09071,0 0.154202,0.0635 0.0635,0.0635 0.0635,0.16328 v 0.89799 q 0,0.0907 -0.0635,0.15421 -0.06349,0.0635 -0.154202,0.0635 z"
           style="font-style:normal;font-variant:normal;font-weight:500;font-stretch:normal;font-family:Rubik;-inkscape-font-specification:'Rubik Medium';fill:#6a1bbd;fill-opacity:1;stroke:none;stroke-width:0.226768px"
           id="path935" />
        <path
           d="m 93.394271,168.39947 q -0.843575,0 -1.415029,-0.24491 -0.562383,-0.25398 -0.861717,-0.65309 -0.290262,-0.40818 -0.308403,-0.85265 0,-0.0816 0.05442,-0.13606 0.05442,-0.0544 0.13606,-0.0544 h 0.807293 q 0.117919,0 0.172343,0.0544 0.0635,0.0454 0.108848,0.11792 0.05443,0.17235 0.208626,0.34469 0.154202,0.16327 0.417253,0.27212 0.272121,0.10885 0.680302,0.10885 0.65309,0 0.970565,-0.2177 0.326545,-0.2177 0.326545,-0.58959 0,-0.26305 -0.172343,-0.41726 -0.172343,-0.16327 -0.535171,-0.29026 -0.353758,-0.13606 -0.943353,-0.28119 -0.680303,-0.16327 -1.142908,-0.39004 -0.453535,-0.23584 -0.689374,-0.5896 -0.226767,-0.35375 -0.226767,-0.898 0,-0.5261 0.281192,-0.93428 0.290262,-0.40818 0.816363,-0.64402 0.535171,-0.23584 1.269898,-0.23584 0.589595,0 1.04313,0.16328 0.453535,0.1542 0.752868,0.41725 0.299333,0.25398 0.453535,0.55331 0.163273,0.29026 0.172343,0.57146 0,0.0726 -0.05442,0.13606 -0.04535,0.0544 -0.13606,0.0544 h -0.843575 q -0.07257,0 -0.145132,-0.0363 -0.07257,-0.0363 -0.117919,-0.13606 -0.05442,-0.28119 -0.353757,-0.48075 -0.299333,-0.19955 -0.771009,-0.19955 -0.489818,0 -0.789151,0.18141 -0.299333,0.18141 -0.299333,0.56238 0,0.25398 0.145131,0.42633 0.154202,0.16327 0.480747,0.29026 0.335616,0.12699 0.879858,0.27212 0.771009,0.17234 1.260827,0.39911 0.489818,0.22677 0.716585,0.58052 0.226768,0.34469 0.226768,0.87986 0,0.59867 -0.326545,1.02499 -0.317475,0.41725 -0.898,0.64402 -0.580524,0.22677 -1.351534,0.22677 z"
           style="font-style:normal;font-variant:normal;font-weight:500;font-stretch:normal;font-family:Rubik;-inkscape-font-specification:'Rubik Medium';fill:#6a1bbd;fill-opacity:1;stroke:none;stroke-width:0.226768px"
           id="path937" />
        <path
           d="m 97.23116,168.30876 q -0.09071,0 -0.154202,-0.0635 -0.0635,-0.0635 -0.0635,-0.15421 v -5.91409 q 0,-0.0907 0.0635,-0.1542 0.06349,-0.0635 0.154202,-0.0635 h 0.852646 q 0.09978,0 0.154201,0.0635 0.0635,0.0635 0.0635,0.1542 v 5.91409 q 0,0.0907 -0.0635,0.15421 -0.05442,0.0635 -0.154201,0.0635 z"
           style="font-style:normal;font-variant:normal;font-weight:500;font-stretch:normal;font-family:Rubik;-inkscape-font-specification:'Rubik Medium';fill:#6a1bbd;fill-opacity:1;stroke:none;stroke-width:0.226768px"
           id="path939" />
        <path
           d="m 99.943295,168.30876 q -0.09071,0 -0.154202,-0.0635 -0.06349,-0.0635 -0.06349,-0.15421 v -5.90502 q 0,-0.0998 0.06349,-0.16327 0.0635,-0.0635 0.154202,-0.0635 h 2.213255 q 0.91614,0 1.50573,0.28119 0.59867,0.2812 0.898,0.83451 0.3084,0.55331 0.31748,1.35153 0.0181,0.39911 0.0181,0.70752 0,0.3084 -0.0181,0.69844 -0.0181,0.84358 -0.30841,1.39689 -0.29026,0.54424 -0.87986,0.81636 -0.58052,0.26305 -1.48759,0.26305 z m 1.043135,-1.04313 h 1.17012 q 0.50795,0 0.82543,-0.14513 0.31747,-0.14513 0.46261,-0.46261 0.1542,-0.32654 0.16327,-0.85264 0.009,-0.27212 0.009,-0.47168 0.009,-0.20862 0,-0.40818 0,-0.20863 -0.009,-0.47168 -0.0181,-0.74379 -0.3719,-1.09755 -0.35376,-0.35376 -1.12477,-0.35376 h -1.12476 z"
           style="font-style:normal;font-variant:normal;font-weight:500;font-stretch:normal;font-family:Rubik;-inkscape-font-specification:'Rubik Medium';fill:#6a1bbd;fill-opacity:1;stroke:none;stroke-width:0.226768px"
           id="path941" />
        <path
           d="m 106.31999,168.30876 q -0.0907,0 -0.1542,-0.0635 -0.0635,-0.0635 -0.0635,-0.15421 v -5.90502 q 0,-0.0998 0.0635,-0.16327 0.0635,-0.0635 0.1542,-0.0635 h 3.99111 q 0.0998,0 0.16327,0.0635 0.0635,0.0635 0.0635,0.16327 v 0.59867 q 0,0.0907 -0.0635,0.1542 -0.0635,0.0635 -0.16327,0.0635 h -2.98426 v 1.60552 h 2.7847 q 0.0998,0 0.16327,0.0635 0.0635,0.0544 0.0635,0.1542 v 0.56239 q 0,0.0998 -0.0635,0.16327 -0.0635,0.0544 -0.16327,0.0544 h -2.7847 v 1.65994 h 3.05682 q 0.0998,0 0.16327,0.0635 0.0635,0.0635 0.0635,0.16327 v 0.59866 q 0,0.0907 -0.0635,0.15421 -0.0635,0.0635 -0.16327,0.0635 z"
           style="font-style:normal;font-variant:normal;font-weight:500;font-stretch:normal;font-family:Rubik;-inkscape-font-specification:'Rubik Medium';fill:#6a1bbd;fill-opacity:1;stroke:none;stroke-width:0.226768px"
           id="path943" />
        <path
           d="m 114.13893,168.39947 q -0.84358,0 -1.43317,-0.29026 -0.58053,-0.29934 -0.88893,-0.84358 -0.3084,-0.55331 -0.34469,-1.32432 -0.009,-0.3719 -0.009,-0.79822 0,-0.42633 0.009,-0.81637 0.0363,-0.76193 0.34469,-1.31525 0.31747,-0.55331 0.898,-0.84357 0.58959,-0.29934 1.4241,-0.29934 0.61681,0 1.10662,0.16328 0.48982,0.16327 0.83451,0.45353 0.34468,0.28119 0.53517,0.66216 0.19048,0.38097 0.19955,0.82544 0.009,0.0816 -0.0544,0.13606 -0.0544,0.0544 -0.13606,0.0544 h -0.86172 q -0.0998,0 -0.16327,-0.0454 -0.0635,-0.0544 -0.0907,-0.17234 -0.14513,-0.59867 -0.49888,-0.81637 -0.35376,-0.21769 -0.87986,-0.21769 -0.60774,0 -0.97057,0.34468 -0.36283,0.33562 -0.39004,1.1157 -0.0272,0.7438 0,1.52388 0.0272,0.78008 0.39004,1.12476 0.36283,0.33562 0.97057,0.33562 0.5261,0 0.87986,-0.2177 0.36282,-0.22677 0.49888,-0.81636 0.0272,-0.12699 0.0907,-0.17234 0.0635,-0.0454 0.16327,-0.0454 h 0.86172 q 0.0816,0 0.13606,0.0544 0.0635,0.0544 0.0544,0.13606 -0.009,0.44446 -0.19955,0.82543 -0.19049,0.38097 -0.53517,0.67123 -0.34469,0.28119 -0.83451,0.44447 -0.48981,0.16327 -1.10662,0.16327 z"
           style="font-style:normal;font-variant:normal;font-weight:500;font-stretch:normal;font-family:Rubik;-inkscape-font-specification:'Rubik Medium';fill:#6a1bbd;fill-opacity:1;stroke:none;stroke-width:0.226768px"
           id="path945" />
        <path
           d="m 117.43157,168.30876 q -0.0726,0 -0.13606,-0.0544 -0.0544,-0.0544 -0.0544,-0.13606 0,-0.0363 0.0181,-0.0816 l 2.18604,-5.8506 q 0.0272,-0.0907 0.0998,-0.1542 0.0816,-0.0726 0.2177,-0.0726 h 0.9887 q 0.13606,0 0.20863,0.0726 0.0726,0.0635 0.10885,0.1542 l 2.18604,5.8506 q 0.009,0.0453 0.009,0.0816 0,0.0816 -0.0544,0.13606 -0.0544,0.0544 -0.12699,0.0544 h -0.78915 q -0.12699,0 -0.19048,-0.0544 -0.0544,-0.0635 -0.0726,-0.11792 l -0.42632,-1.10663 h -2.694 l -0.42632,1.10663 q -0.0181,0.0544 -0.0816,0.11792 -0.0544,0.0544 -0.18141,0.0544 z m 1.796,-2.3221 h 2.05904 l -1.03406,-2.80284 z"
           style="font-style:normal;font-variant:normal;font-weight:500;font-stretch:normal;font-family:Rubik;-inkscape-font-specification:'Rubik Medium';fill:#6a1bbd;fill-opacity:1;stroke:none;stroke-width:0.226768px"
           id="path947" />
        <path
           d="m 124.32528,168.30876 q -0.0907,0 -0.1542,-0.0635 -0.0635,-0.0635 -0.0635,-0.15421 v -5.90502 q 0,-0.0998 0.0635,-0.16327 0.0635,-0.0635 0.1542,-0.0635 h 0.69845 q 0.12699,0 0.18141,0.0635 0.0635,0.0544 0.0816,0.0816 l 2.61236,4.06368 V 162.186 q 0,-0.0998 0.0544,-0.16327 0.0635,-0.0635 0.16328,-0.0635 h 0.76193 q 0.0998,0 0.16328,0.0635 0.0635,0.0635 0.0635,0.16327 v 5.89595 q 0,0.0998 -0.0635,0.16328 -0.0635,0.0635 -0.1542,0.0635 h -0.70752 q -0.12699,0 -0.18141,-0.0635 -0.0544,-0.0635 -0.0816,-0.0816 l -2.60329,-3.97297 v 3.9004 q 0,0.0907 -0.0635,0.15421 -0.0635,0.0635 -0.16327,0.0635 z"
           style="font-style:normal;font-variant:normal;font-weight:500;font-stretch:normal;font-family:Rubik;-inkscape-font-specification:'Rubik Medium';fill:#6a1bbd;fill-opacity:1;stroke:none;stroke-width:0.226768px"
           id="path949" />
        <path
           d="m 132.37099,168.30876 q -0.14513,0 -0.22677,-0.0726 -0.0816,-0.0726 -0.11792,-0.18142 l -1.94113,-5.82339 q -0.0181,-0.0454 -0.0181,-0.0816 0,-0.0816 0.0544,-0.13606 0.0544,-0.0544 0.13606,-0.0544 h 0.79822 q 0.12699,0 0.19048,0.0726 0.0726,0.0635 0.0907,0.12699 l 1.53295,4.67141 1.53295,-4.67141 q 0.0181,-0.0635 0.0816,-0.12699 0.0726,-0.0726 0.19956,-0.0726 h 0.79822 q 0.0726,0 0.12699,0.0544 0.0635,0.0544 0.0635,0.13606 0,0.0363 -0.0181,0.0816 l -1.94113,5.82339 q -0.0363,0.10885 -0.11792,0.18142 -0.0816,0.0726 -0.22676,0.0726 z"
           style="font-style:normal;font-variant:normal;font-weight:500;font-stretch:normal;font-family:Rubik;-inkscape-font-specification:'Rubik Medium';fill:#6a1bbd;fill-opacity:1;stroke:none;stroke-width:0.226768px"
           id="path951" />
        <path
           d="m 135.77249,168.30876 q -0.0726,0 -0.13606,-0.0544 -0.0544,-0.0544 -0.0544,-0.13606 0,-0.0363 0.0181,-0.0816 l 2.18604,-5.8506 q 0.0272,-0.0907 0.0998,-0.1542 0.0816,-0.0726 0.21769,-0.0726 h 0.98871 q 0.13606,0 0.20863,0.0726 0.0726,0.0635 0.10884,0.1542 l 2.18604,5.8506 q 0.009,0.0453 0.009,0.0816 0,0.0816 -0.0544,0.13606 -0.0544,0.0544 -0.12699,0.0544 h -0.78915 q -0.12699,0 -0.19049,-0.0544 -0.0544,-0.0635 -0.0726,-0.11792 l -0.42632,-1.10663 h -2.694 l -0.42633,1.10663 q -0.0181,0.0544 -0.0816,0.11792 -0.0544,0.0544 -0.18142,0.0544 z m 1.796,-2.3221 h 2.05905 l -1.03406,-2.80284 z"
           style="font-style:normal;font-variant:normal;font-weight:500;font-stretch:normal;font-family:Rubik;-inkscape-font-specification:'Rubik Medium';fill:#6a1bbd;fill-opacity:1;stroke:none;stroke-width:0.226768px"
           id="path953" />
        <path
           d="m 144.562,168.39947 q -0.84358,0 -1.41503,-0.24491 -0.56239,-0.25398 -0.86172,-0.65309 -0.29026,-0.40818 -0.3084,-0.85265 0,-0.0816 0.0544,-0.13606 0.0544,-0.0544 0.13606,-0.0544 h 0.80729 q 0.11792,0 0.17235,0.0544 0.0635,0.0454 0.10884,0.11792 0.0544,0.17235 0.20863,0.34469 0.1542,0.16327 0.41725,0.27212 0.27212,0.10885 0.68031,0.10885 0.65309,0 0.97056,-0.2177 0.32655,-0.2177 0.32655,-0.58959 0,-0.26305 -0.17235,-0.41726 -0.17234,-0.16327 -0.53517,-0.29026 -0.35376,-0.13606 -0.94335,-0.28119 -0.6803,-0.16327 -1.14291,-0.39004 -0.45353,-0.23584 -0.68937,-0.5896 -0.22677,-0.35375 -0.22677,-0.898 0,-0.5261 0.28119,-0.93428 0.29026,-0.40818 0.81636,-0.64402 0.53518,-0.23584 1.2699,-0.23584 0.5896,0 1.04313,0.16328 0.45354,0.1542 0.75287,0.41725 0.29933,0.25398 0.45354,0.55331 0.16327,0.29026 0.17234,0.57146 0,0.0726 -0.0544,0.13606 -0.0453,0.0544 -0.13606,0.0544 h -0.84357 q -0.0726,0 -0.14513,-0.0363 -0.0726,-0.0363 -0.11792,-0.13606 -0.0544,-0.28119 -0.35376,-0.48075 -0.29933,-0.19955 -0.77101,-0.19955 -0.48982,0 -0.78915,0.18141 -0.29933,0.18141 -0.29933,0.56238 0,0.25398 0.14513,0.42633 0.1542,0.16327 0.48075,0.29026 0.33561,0.12699 0.87985,0.27212 0.77101,0.17234 1.26083,0.39911 0.48982,0.22677 0.71659,0.58052 0.22676,0.34469 0.22676,0.87986 0,0.59867 -0.32654,1.02499 -0.31748,0.41725 -0.898,0.64402 -0.58052,0.22677 -1.35153,0.22677 z"
           style="font-style:normal;font-variant:normal;font-weight:500;font-stretch:normal;font-family:Rubik;-inkscape-font-specification:'Rubik Medium';fill:#6a1bbd;fill-opacity:1;stroke:none;stroke-width:0.226768px"
           id="path955" />
        <path
           d="m 148.2356,168.30876 q -0.0907,0 -0.1542,-0.0635 -0.0635,-0.0635 -0.0635,-0.15421 v -0.89799 q 0,-0.0998 0.0635,-0.16328 0.0635,-0.0635 0.1542,-0.0635 h 0.90707 q 0.0907,0 0.15421,0.0635 0.0635,0.0635 0.0635,0.16328 v 0.89799 q 0,0.0907 -0.0635,0.15421 -0.0635,0.0635 -0.15421,0.0635 z"
           style="font-style:normal;font-variant:normal;font-weight:500;font-stretch:normal;font-family:Rubik;-inkscape-font-specification:'Rubik Medium';fill:#6a1bbd;fill-opacity:1;stroke:none;stroke-width:0.226768px"
           id="path957" />
        <path
           d="m 152.95237,168.39947 q -0.84358,0 -1.43317,-0.29026 -0.58053,-0.29934 -0.88893,-0.84358 -0.30841,-0.55331 -0.34469,-1.32432 -0.009,-0.3719 -0.009,-0.79822 0,-0.42633 0.009,-0.81637 0.0363,-0.76193 0.34469,-1.31525 0.31747,-0.55331 0.898,-0.84357 0.58959,-0.29934 1.4241,-0.29934 0.6168,0 1.10662,0.16328 0.48982,0.16327 0.83451,0.45353 0.34468,0.28119 0.53517,0.66216 0.19048,0.38097 0.19955,0.82544 0.009,0.0816 -0.0544,0.13606 -0.0544,0.0544 -0.13606,0.0544 h -0.86172 q -0.0998,0 -0.16327,-0.0454 -0.0635,-0.0544 -0.0907,-0.17234 -0.14513,-0.59867 -0.49889,-0.81637 -0.35375,-0.21769 -0.87985,-0.21769 -0.60774,0 -0.97057,0.34468 -0.36283,0.33562 -0.39004,1.1157 -0.0272,0.7438 0,1.52388 0.0272,0.78008 0.39004,1.12476 0.36283,0.33562 0.97057,0.33562 0.5261,0 0.87985,-0.2177 0.36283,-0.22677 0.49889,-0.81636 0.0272,-0.12699 0.0907,-0.17234 0.0635,-0.0454 0.16327,-0.0454 h 0.86172 q 0.0816,0 0.13606,0.0544 0.0635,0.0544 0.0544,0.13606 -0.009,0.44446 -0.19955,0.82543 -0.19049,0.38097 -0.53517,0.67123 -0.34469,0.28119 -0.83451,0.44447 -0.48982,0.16327 -1.10662,0.16327 z"
           style="font-style:normal;font-variant:normal;font-weight:500;font-stretch:normal;font-family:Rubik;-inkscape-font-specification:'Rubik Medium';fill:#6a1bbd;fill-opacity:1;stroke:none;stroke-width:0.226768px"
           id="path959" />
        <path
           d="m 159.14763,168.39947 q -0.8073,0 -1.38782,-0.26305 -0.58053,-0.27212 -0.90707,-0.82544 -0.32655,-0.56238 -0.35376,-1.39688 -0.009,-0.39004 -0.009,-0.77101 0,-0.38097 0.009,-0.78008 0.0272,-0.82544 0.36283,-1.37875 0.33562,-0.55331 0.91614,-0.8345 0.5896,-0.2812 1.36968,-0.2812 0.78008,0 1.36967,0.2812 0.5896,0.28119 0.92521,0.8345 0.33562,0.55331 0.36283,1.37875 0.0181,0.39911 0.0181,0.78008 0,0.38097 -0.0181,0.77101 -0.0272,0.8345 -0.35376,1.39688 -0.32654,0.55332 -0.91614,0.82544 -0.58052,0.26305 -1.38781,0.26305 z m 0,-1.04313 q 0.58959,0 0.96149,-0.34469 0.3719,-0.35376 0.39911,-1.14291 0.0181,-0.39911 0.0181,-0.73472 0,-0.34469 -0.0181,-0.73473 -0.0181,-0.5261 -0.19955,-0.85265 -0.17235,-0.33561 -0.47168,-0.48074 -0.29933,-0.1542 -0.68937,-0.1542 -0.38097,0 -0.68031,0.1542 -0.29933,0.14513 -0.48074,0.48074 -0.17235,0.32655 -0.19049,0.85265 -0.009,0.39004 -0.009,0.73473 0,0.33561 0.009,0.73472 0.0272,0.78915 0.39911,1.14291 0.3719,0.34469 0.95243,0.34469 z"
           style="font-style:normal;font-variant:normal;font-weight:500;font-stretch:normal;font-family:Rubik;-inkscape-font-specification:'Rubik Medium';fill:#6a1bbd;fill-opacity:1;stroke:none;stroke-width:0.226768px"
           id="path961" />
        <path
           d="m 163.23851,168.30876 q -0.0998,0 -0.16327,-0.0635 -0.0635,-0.0635 -0.0635,-0.15421 v -5.90502 q 0,-0.0998 0.0635,-0.16327 0.0635,-0.0635 0.16327,-0.0635 h 0.71659 q 0.12699,0 0.19048,0.0726 0.0635,0.0635 0.0816,0.0998 l 1.75065,3.26545 1.76878,-3.26545 q 0.0181,-0.0363 0.0816,-0.0998 0.0635,-0.0726 0.19048,-0.0726 h 0.70752 q 0.0998,0 0.16327,0.0635 0.0635,0.0635 0.0635,0.16327 v 5.90502 q 0,0.0907 -0.0635,0.15421 -0.0635,0.0635 -0.16327,0.0635 h -0.76194 q -0.0998,0 -0.16327,-0.0635 -0.0544,-0.0635 -0.0544,-0.15421 v -3.92761 l -1.2699,2.42188 q -0.0454,0.0816 -0.11792,0.14513 -0.0726,0.0544 -0.19048,0.0544 h -0.3719 q -0.12699,0 -0.19955,-0.0544 -0.0635,-0.0635 -0.10885,-0.14513 l -1.2699,-2.42188 v 3.92761 q 0,0.0907 -0.0635,0.15421 -0.0635,0.0635 -0.1542,0.0635 z"
           style="font-style:normal;font-variant:normal;font-weight:500;font-stretch:normal;font-family:Rubik;-inkscape-font-specification:'Rubik Medium';fill:#6a1bbd;fill-opacity:1;stroke:none;stroke-width:0.226768px"
           id="path963" />
      </g>
      <g
         aria-label="THANK YOU FOR DOWNLOADING!"
         id="text1012-3"
         style="font-style:normal;font-variant:normal;font-weight:normal;font-stretch:normal;font-size:9.87778px;line-height:125%;font-family:Rubik;-inkscape-font-specification:Rubik;letter-spacing:0px;word-spacing:0px;display:inline;fill:#6a1bbd;fill-opacity:1;stroke:none;stroke-width:0.226768px;stroke-linecap:butt;stroke-linejoin:miter;stroke-opacity:1"
         transform="matrix(0.84854462,0,0,0.84854462,12.983506,13.031791)">
        <path
           d="m 11.617116,10.701282 q -0.09878,0 -0.167922,-0.06915 -0.06914,-0.06914 -0.06914,-0.167922 V 5.0018025 H 9.5526603 q -0.098778,0 -0.1679222,-0.069144 -0.069145,-0.069145 -0.069145,-0.1679223 V 4.0337801 q 0,-0.1086556 0.069145,-0.1778001 0.069144,-0.069144 0.1679222,-0.069144 h 5.0376677 q 0.108656,0 0.1778,0.069144 0.06914,0.069144 0.06914,0.1778001 v 0.7309557 q 0,0.098778 -0.06914,0.1679223 -0.06914,0.069144 -0.1778,0.069144 h -1.817511 v 5.4624129 q 0,0.09878 -0.06915,0.167922 -0.06914,0.06915 -0.1778,0.06915 z"
           style="font-style:normal;font-variant:normal;font-weight:500;font-stretch:normal;font-size:9.87778px;font-family:Rubik;-inkscape-font-specification:'Rubik Medium';fill:#6a1bbd;fill-opacity:1;stroke:none;stroke-width:0.226768px"
           id="path860" />
        <path
           d="m 16.07199,10.701282 q -0.09878,0 -0.167922,-0.05927 -0.06914,-0.06915 -0.06914,-0.1778 V 4.0337801 q 0,-0.1086556 0.06914,-0.1778001 0.06914,-0.069144 0.167922,-0.069144 h 0.898878 q 0.108656,0 0.167923,0.069144 0.06914,0.069144 0.06914,0.1778001 V 6.5822473 H 20.12188 V 4.0337801 q 0,-0.1086556 0.06914,-0.1778001 0.06914,-0.069144 0.167922,-0.069144 h 0.889 q 0.108656,0 0.1778,0.069144 0.06914,0.069144 0.06914,0.1778001 v 6.4304349 q 0,0.09878 -0.06914,0.167922 -0.06914,0.06915 -0.1778,0.06915 h -0.889 q -0.09878,0 -0.167922,-0.06915 -0.06914,-0.06914 -0.06914,-0.167922 V 7.8169698 h -2.913945 v 2.6472452 q 0,0.09878 -0.06914,0.167922 -0.05927,0.06915 -0.167923,0.06915 z"
           style="font-style:normal;font-variant:normal;font-weight:500;font-stretch:normal;font-size:9.87778px;font-family:Rubik;-inkscape-font-specification:'Rubik Medium';fill:#6a1bbd;fill-opacity:1;stroke:none;stroke-width:0.226768px"
           id="path862" />
        <path
           d="m 22.611063,10.701282 q -0.07902,0 -0.148167,-0.05927 -0.05927,-0.05927 -0.05927,-0.148167 0,-0.03951 0.01975,-0.0889 L 24.80393,4.0337801 q 0.02963,-0.098778 0.108656,-0.1679223 0.0889,-0.079022 0.237067,-0.079022 h 1.076678 q 0.148166,0 0.227189,0.079022 0.07902,0.069144 0.118533,0.1679223 l 2.380545,6.3711679 q 0.0099,0.04939 0.0099,0.0889 0,0.0889 -0.05927,0.148167 -0.05927,0.05927 -0.138289,0.05927 h -0.859367 q -0.138289,0 -0.207433,-0.05927 -0.05927,-0.06915 -0.07902,-0.128411 L 27.154842,9.3085146 h -2.933701 l -0.464255,1.2050894 q -0.01976,0.05927 -0.0889,0.128411 -0.05927,0.05927 -0.197556,0.05927 z m 1.955801,-2.5287121 h 2.242256 l -1.126067,-3.052234 z"
           style="font-style:normal;font-variant:normal;font-weight:500;font-stretch:normal;font-size:9.87778px;font-family:Rubik;-inkscape-font-specification:'Rubik Medium';fill:#6a1bbd;fill-opacity:1;stroke:none;stroke-width:0.226768px"
           id="path864" />
        <path
           d="m 30.118165,10.701282 q -0.09878,0 -0.167923,-0.06915 -0.06914,-0.06914 -0.06914,-0.167922 V 4.0337801 q 0,-0.1086556 0.06914,-0.1778001 0.06914,-0.069144 0.167923,-0.069144 h 0.760589 q 0.138289,0 0.197555,0.069144 0.06915,0.059267 0.0889,0.0889 L 34.01001,8.3701255 V 4.0337801 q 0,-0.1086556 0.05927,-0.1778001 0.06914,-0.069144 0.1778,-0.069144 h 0.829733 q 0.108656,0 0.1778,0.069144 0.06914,0.069144 0.06914,0.1778001 v 6.4205569 q 0,0.108656 -0.06914,0.1778 -0.06914,0.06915 -0.167922,0.06915 h -0.770467 q -0.138289,0 -0.197556,-0.06915 -0.05927,-0.06914 -0.0889,-0.0889 L 31.194843,6.2167694 v 4.2474456 q 0,0.09878 -0.06914,0.167922 -0.06914,0.06915 -0.1778,0.06915 z"
           style="font-style:normal;font-variant:normal;font-weight:500;font-stretch:normal;font-size:9.87778px;font-family:Rubik;-inkscape-font-specification:'Rubik Medium';fill:#6a1bbd;fill-opacity:1;stroke:none;stroke-width:0.226768px"
           id="path866" />
        <path
           d="m 37.101744,10.701282 q -0.09878,0 -0.167922,-0.06915 -0.06914,-0.06914 -0.06914,-0.167922 V 4.0337801 q 0,-0.1086556 0.06914,-0.1778001 0.06914,-0.069144 0.167922,-0.069144 h 0.869245 q 0.108655,0 0.1778,0.069144 0.06914,0.069144 0.06914,0.1778001 v 2.3114005 l 2.232379,-2.380545 q 0.03951,-0.049389 0.128411,-0.1086556 0.09878,-0.069144 0.256822,-0.069144 h 0.9779 q 0.07902,0 0.138289,0.059267 0.06914,0.059267 0.06914,0.1481667 0,0.069144 -0.03951,0.1185333 l -2.716389,2.9830896 2.904067,3.2695454 q 0.04939,0.05927 0.04939,0.128411 0,0.0889 -0.06914,0.148167 -0.05927,0.05927 -0.138289,0.05927 h -1.017412 q -0.167922,0 -0.2667,-0.06915 -0.0889,-0.07902 -0.118533,-0.108655 L 38.217933,7.9058698 v 2.5583452 q 0,0.09878 -0.06914,0.167922 -0.06914,0.06915 -0.1778,0.06915 z"
           style="font-style:normal;font-variant:normal;font-weight:500;font-stretch:normal;font-size:9.87778px;font-family:Rubik;-inkscape-font-specification:'Rubik Medium';fill:#6a1bbd;fill-opacity:1;stroke:none;stroke-width:0.226768px"
           id="path868" />
        <path
           d="m 47.068376,10.701282 q -0.09878,0 -0.167922,-0.06915 -0.06915,-0.06914 -0.06915,-0.167922 V 8.2318366 L 44.500153,4.1029245 q -0.0099,-0.019756 -0.01975,-0.049389 -0.0099,-0.029633 -0.0099,-0.059267 0,-0.0889 0.05927,-0.1481667 0.05927,-0.059267 0.138288,-0.059267 h 0.879123 q 0.118533,0 0.187678,0.059267 0.07902,0.059267 0.108655,0.1284111 l 1.679223,2.874434 1.669345,-2.874434 q 0.03951,-0.069145 0.108655,-0.1284111 0.07902,-0.059267 0.197556,-0.059267 h 0.869245 q 0.0889,0 0.148166,0.059267 0.05927,0.059267 0.05927,0.1481667 0,0.029633 -0.0099,0.059267 0,0.029633 -0.01975,0.049389 L 48.21417,8.2318366 v 2.2323784 q 0,0.09878 -0.06914,0.167922 -0.06914,0.06915 -0.1778,0.06915 z"
           style="font-style:normal;font-variant:normal;font-weight:500;font-stretch:normal;font-size:9.87778px;font-family:Rubik;-inkscape-font-specification:'Rubik Medium';fill:#6a1bbd;fill-opacity:1;stroke:none;stroke-width:0.226768px"
           id="path870" />
        <path
           d="m 53.923549,10.800059 q -0.879122,0 -1.5113,-0.286455 -0.632178,-0.296334 -0.987778,-0.8988782 -0.3556,-0.6124224 -0.385234,-1.5211782 -0.0099,-0.4247445 -0.0099,-0.8396113 0,-0.4148667 0.0099,-0.849489 0.02963,-0.898878 0.395111,-1.5014226 0.365478,-0.6025446 0.997656,-0.9087557 0.642056,-0.3062112 1.491545,-0.3062112 0.849489,0 1.491545,0.3062112 0.642055,0.3062111 1.007533,0.9087557 0.365478,0.6025446 0.395111,1.5014226 0.01976,0.4346223 0.01976,0.849489 0,0.4148668 -0.01976,0.8396113 -0.02963,0.9087558 -0.385233,1.5211782 -0.3556,0.6025442 -0.997656,0.8988782 -0.632178,0.286455 -1.5113,0.286455 z m 0,-1.1359443 q 0.642056,0 1.047045,-0.3753557 0.404989,-0.3852334 0.434622,-1.2446003 0.01975,-0.4346223 0.01975,-0.8001001 0,-0.3753557 -0.01975,-0.8001002 Q 55.38546,5.8710471 55.187905,5.5154471 55.000227,5.1499692 54.67426,4.9919247 54.348293,4.8240025 53.923549,4.8240025 q -0.414867,0 -0.740834,0.1679222 -0.325966,0.1580445 -0.523522,0.5235224 -0.187678,0.3556 -0.207433,0.9285113 -0.0099,0.4247445 -0.0099,0.8001002 0,0.3654778 0.0099,0.8001001 0.02963,0.8593669 0.434622,1.2446003 0.404989,0.3753557 1.037167,0.3753557 z"
           style="font-style:normal;font-variant:normal;font-weight:500;font-stretch:normal;font-size:9.87778px;font-family:Rubik;-inkscape-font-specification:'Rubik Medium';fill:#6a1bbd;fill-opacity:1;stroke:none;stroke-width:0.226768px"
           id="path872" />
        <path
           d="m 60.887378,10.800059 q -0.859367,0 -1.491545,-0.286455 Q 58.763655,10.21727 58.417933,9.6147258 58.072211,9.0023034 58.072211,8.0540365 V 4.0337801 q 0,-0.1086556 0.06914,-0.1778001 0.06915,-0.069144 0.167922,-0.069144 h 0.898878 q 0.108656,0 0.167923,0.069144 0.06914,0.069144 0.06914,0.1778001 v 4.0202564 q 0,0.809978 0.385234,1.2050892 0.385233,0.3852334 1.056922,0.3852334 0.671689,0 1.047045,-0.3852334 0.385233,-0.3951112 0.385233,-1.2050892 V 4.0337801 q 0,-0.1086556 0.06914,-0.1778001 0.06914,-0.069144 0.1778,-0.069144 h 0.889 q 0.108655,0 0.167922,0.069144 0.06914,0.069144 0.06914,0.1778001 v 4.0202564 q 0,0.9482669 -0.345723,1.5606893 -0.335844,0.6025442 -0.968022,0.8988782 -0.6223,0.286455 -1.491545,0.286455 z"
           style="font-style:normal;font-variant:normal;font-weight:500;font-stretch:normal;font-size:9.87778px;font-family:Rubik;-inkscape-font-specification:'Rubik Medium';fill:#6a1bbd;fill-opacity:1;stroke:none;stroke-width:0.226768px"
           id="path874" />
        <path
           d="m 67.673392,10.701282 q -0.09878,0 -0.167922,-0.06915 -0.06915,-0.06914 -0.06915,-0.167922 V 4.0337801 q 0,-0.1086556 0.06915,-0.1778001 0.06914,-0.069144 0.167922,-0.069144 h 4.286956 q 0.108656,0 0.1778,0.069144 0.06915,0.069144 0.06915,0.1778001 v 0.6914446 q 0,0.1086556 -0.06915,0.1778 -0.06914,0.059267 -0.1778,0.059267 h -3.170767 v 1.8767782 h 2.973212 q 0.108655,0 0.1778,0.069144 0.06914,0.069145 0.06914,0.1778001 v 0.6914446 q 0,0.098778 -0.06914,0.1679222 -0.06915,0.069145 -0.1778,0.069145 h -2.973212 v 2.4496892 q 0,0.09878 -0.06914,0.167922 -0.06915,0.06915 -0.177801,0.06915 z"
           style="font-style:normal;font-variant:normal;font-weight:500;font-stretch:normal;font-size:9.87778px;font-family:Rubik;-inkscape-font-specification:'Rubik Medium';fill:#6a1bbd;fill-opacity:1;stroke:none;stroke-width:0.226768px"
           id="path876" />
        <path
           d="m 75.98059,10.800059 q -0.879122,0 -1.5113,-0.286455 -0.632178,-0.296334 -0.987778,-0.8988782 -0.3556,-0.6124224 -0.385234,-1.5211782 -0.0099,-0.4247445 -0.0099,-0.8396113 0,-0.4148667 0.0099,-0.849489 0.02963,-0.898878 0.395112,-1.5014226 0.365477,-0.6025446 0.997655,-0.9087557 0.642056,-0.3062112 1.491545,-0.3062112 0.849489,0 1.491545,0.3062112 0.642056,0.3062111 1.007533,0.9087557 0.365478,0.6025446 0.395112,1.5014226 0.01976,0.4346223 0.01976,0.849489 0,0.4148668 -0.01976,0.8396113 -0.02963,0.9087558 -0.385234,1.5211782 -0.3556,0.6025442 -0.997656,0.8988782 -0.632177,0.286455 -1.5113,0.286455 z m 0,-1.1359443 q 0.642056,0 1.047045,-0.3753557 0.404989,-0.3852334 0.434622,-1.2446003 0.01976,-0.4346223 0.01976,-0.8001001 0,-0.3753557 -0.01976,-0.8001002 Q 77.442502,5.8710471 77.244946,5.5154471 77.057268,5.1499692 76.731301,4.9919247 76.405335,4.8240025 75.98059,4.8240025 q -0.414867,0 -0.740833,0.1679222 -0.325967,0.1580445 -0.523523,0.5235224 -0.187678,0.3556 -0.207433,0.9285113 -0.0099,0.4247445 -0.0099,0.8001002 0,0.3654778 0.0099,0.8001001 0.02963,0.8593669 0.434622,1.2446003 0.404989,0.3753557 1.037167,0.3753557 z"
           style="font-style:normal;font-variant:normal;font-weight:500;font-stretch:normal;font-size:9.87778px;font-family:Rubik;-inkscape-font-specification:'Rubik Medium';fill:#6a1bbd;fill-opacity:1;stroke:none;stroke-width:0.226768px"
           id="path878" />
        <path
           d="m 80.425589,10.701282 q -0.09878,0 -0.167922,-0.06915 -0.06914,-0.06914 -0.06914,-0.167922 V 4.0337801 q 0,-0.1086556 0.06914,-0.1778001 0.06914,-0.069144 0.167922,-0.069144 h 2.558345 q 1.195211,0 1.886656,0.5531557 0.691445,0.5531556 0.691445,1.6100781 0,0.7309557 -0.365478,1.2149669 -0.3556,0.4840112 -0.958145,0.7013224 l 1.442156,2.5188339 q 0.02963,0.05927 0.02963,0.108655 0,0.0889 -0.06914,0.148167 -0.05927,0.05927 -0.138289,0.05927 H 84.60389 q -0.167922,0 -0.256822,-0.0889 -0.0889,-0.0889 -0.138289,-0.177801 L 82.934545,8.0935476 h -1.373011 v 2.3706674 q 0,0.09878 -0.06914,0.167922 -0.05927,0.06915 -0.167922,0.06915 z m 1.135945,-3.7239235 h 1.392767 q 0.602544,0 0.898878,-0.2667001 0.296333,-0.2765778 0.296333,-0.7704668 0,-0.493889 -0.296333,-0.7704668 -0.286456,-0.2864556 -0.898878,-0.2864556 h -1.392767 z"
           style="font-style:normal;font-variant:normal;font-weight:500;font-stretch:normal;font-size:9.87778px;font-family:Rubik;-inkscape-font-specification:'Rubik Medium';fill:#6a1bbd;fill-opacity:1;stroke:none;stroke-width:0.226768px"
           id="path880" />
        <path
           d="m 89.33531,10.701282 q -0.09878,0 -0.167922,-0.06915 -0.06914,-0.06914 -0.06914,-0.167922 V 4.0337801 q 0,-0.1086556 0.06914,-0.1778001 0.06914,-0.069144 0.167922,-0.069144 h 2.410179 q 0.997656,0 1.639711,0.3062112 0.651934,0.3062111 0.9779,0.9087557 0.335845,0.6025446 0.345723,1.4717892 0.01976,0.4346223 0.01976,0.7704669 0,0.3358445 -0.01976,0.760589 -0.01976,0.9186336 -0.335845,1.5211781 -0.316089,0.5926669 -0.958144,0.8889999 -0.632178,0.286456 -1.619956,0.286456 z m 1.135945,-1.1359451 h 1.274234 q 0.553155,0 0.898878,-0.1580445 0.345722,-0.1580445 0.503767,-0.5037668 0.167922,-0.3556001 0.1778,-0.9285113 0.0099,-0.2963334 0.0099,-0.5136446 0.0099,-0.2271889 0,-0.4445001 0,-0.2271889 -0.0099,-0.5136445 Q 93.306178,5.6932471 92.920945,5.3080137 92.535711,4.9227803 91.6961,4.9227803 h -1.224845 z"
           style="font-style:normal;font-variant:normal;font-weight:500;font-stretch:normal;font-size:9.87778px;font-family:Rubik;-inkscape-font-specification:'Rubik Medium';fill:#6a1bbd;fill-opacity:1;stroke:none;stroke-width:0.226768px"
           id="path882" />
        <path
           d="m 98.699435,10.800059 q -0.879122,0 -1.5113,-0.286455 -0.632178,-0.296334 -0.987778,-0.8988782 -0.3556,-0.6124224 -0.385233,-1.5211782 -0.0099,-0.4247445 -0.0099,-0.8396113 0,-0.4148667 0.0099,-0.849489 0.02963,-0.898878 0.395111,-1.5014226 0.365478,-0.6025446 0.997656,-0.9087557 0.642055,-0.3062112 1.491544,-0.3062112 0.84949,0 1.491545,0.3062112 0.64206,0.3062111 1.00753,0.9087557 0.36548,0.6025446 0.39511,1.5014226 0.0198,0.4346223 0.0198,0.849489 0,0.4148668 -0.0198,0.8396113 -0.0296,0.9087558 -0.38523,1.5211782 -0.3556,0.6025442 -0.99765,0.8988782 -0.632182,0.286455 -1.511305,0.286455 z m 0,-1.1359443 q 0.642056,0 1.047045,-0.3753557 0.40499,-0.3852334 0.43462,-1.2446003 0.0198,-0.4346223 0.0198,-0.8001001 0,-0.3753557 -0.0198,-0.8001002 Q 100.16135,5.8710471 99.963791,5.5154471 99.776113,5.1499692 99.450147,4.9919247 99.12418,4.8240025 98.699435,4.8240025 q -0.414866,0 -0.740833,0.1679222 -0.325967,0.1580445 -0.523522,0.5235224 -0.187678,0.3556 -0.207434,0.9285113 -0.0099,0.4247445 -0.0099,0.8001002 0,0.3654778 0.0099,0.8001001 0.02963,0.8593669 0.434623,1.2446003 0.404989,0.3753557 1.037166,0.3753557 z"
           style="font-style:normal;font-variant:normal;font-weight:500;font-stretch:normal;font-size:9.87778px;font-family:Rubik;-inkscape-font-specification:'Rubik Medium';fill:#6a1bbd;fill-opacity:1;stroke:none;stroke-width:0.226768px"
           id="path884" />
        <path
           d="m 103.96428,10.701282 q -0.14816,0 -0.23706,-0.07902 -0.079,-0.0889 -0.10866,-0.217311 l -1.17545,-6.3316568 q 0,-0.029633 -0.01,-0.049389 0,-0.019756 0,-0.029633 0,-0.0889 0.0593,-0.1481667 0.0691,-0.059267 0.14817,-0.059267 h 0.86925 q 0.24694,0 0.27657,0.1975556 l 0.81986,4.4746343 0.889,-2.8941895 q 0.0296,-0.079022 0.0988,-0.1580445 0.079,-0.0889 0.22719,-0.0889 h 0.5334 q 0.15804,0 0.22719,0.0889 0.0691,0.079022 0.0889,0.1580445 l 0.89887,2.8843117 0.81986,-4.4647565 q 0.0296,-0.1975556 0.27658,-0.1975556 h 0.86924 q 0.079,0 0.13829,0.059267 0.0593,0.059267 0.0593,0.1481667 0,0.00988 0,0.029633 0,0.019756 -0.01,0.049389 l -1.17546,6.3316568 q -0.0197,0.128411 -0.10865,0.217311 -0.0889,0.07902 -0.23707,0.07902 h -0.66181 q -0.14817,0 -0.23707,-0.07902 -0.079,-0.07902 -0.10865,-0.167922 l -1.10631,-3.2991785 -1.10632,3.2991785 q -0.0395,0.0889 -0.11853,0.167922 -0.079,0.07902 -0.23707,0.07902 z"
           style="font-style:normal;font-variant:normal;font-weight:500;font-stretch:normal;font-size:9.87778px;font-family:Rubik;-inkscape-font-specification:'Rubik Medium';fill:#6a1bbd;fill-opacity:1;stroke:none;stroke-width:0.226768px"
           id="path886" />
        <path
           d="m 111.12567,10.701282 q -0.0988,0 -0.16792,-0.06915 -0.0692,-0.06914 -0.0692,-0.167922 V 4.0337801 q 0,-0.1086556 0.0692,-0.1778001 0.0691,-0.069144 0.16792,-0.069144 h 0.76059 q 0.13829,0 0.19755,0.069144 0.0691,0.059267 0.0889,0.0889 l 2.84481,4.4252454 V 4.0337801 q 0,-0.1086556 0.0593,-0.1778001 0.0692,-0.069144 0.1778,-0.069144 h 0.82974 q 0.10865,0 0.1778,0.069144 0.0691,0.069144 0.0691,0.1778001 v 6.4205569 q 0,0.108656 -0.0691,0.1778 -0.0691,0.06915 -0.16793,0.06915 h -0.77046 q -0.13829,0 -0.19756,-0.06915 -0.0593,-0.06914 -0.0889,-0.0889 l -2.83492,-4.3264676 v 4.2474456 q 0,0.09878 -0.0691,0.167922 -0.0691,0.06915 -0.1778,0.06915 z"
           style="font-style:normal;font-variant:normal;font-weight:500;font-stretch:normal;font-size:9.87778px;font-family:Rubik;-inkscape-font-specification:'Rubik Medium';fill:#6a1bbd;fill-opacity:1;stroke:none;stroke-width:0.226768px"
           id="path888" />
        <path
           d="m 118.10925,10.701282 q -0.0988,0 -0.16792,-0.06915 -0.0691,-0.06914 -0.0691,-0.167922 V 4.0239023 q 0,-0.098778 0.0691,-0.1679223 0.0691,-0.069144 0.16792,-0.069144 h 0.91864 q 0.0988,0 0.16792,0.069144 0.0691,0.069144 0.0691,0.1679223 v 5.5019234 h 3.13126 q 0.10865,0 0.1778,0.069145 0.0691,0.069145 0.0691,0.1778 v 0.6914443 q 0,0.09878 -0.0691,0.167922 -0.0692,0.06915 -0.1778,0.06915 z"
           style="font-style:normal;font-variant:normal;font-weight:500;font-stretch:normal;font-size:9.87778px;font-family:Rubik;-inkscape-font-specification:'Rubik Medium';fill:#6a1bbd;fill-opacity:1;stroke:none;stroke-width:0.226768px"
           id="path890" />
        <path
           d="m 126.16951,10.800059 q -0.87912,0 -1.5113,-0.286455 -0.63218,-0.296334 -0.98778,-0.8988782 -0.3556,-0.6124224 -0.38523,-1.5211782 -0.01,-0.4247445 -0.01,-0.8396113 0,-0.4148667 0.01,-0.849489 0.0296,-0.898878 0.39511,-1.5014226 0.36548,-0.6025446 0.99766,-0.9087557 0.64205,-0.3062112 1.49154,-0.3062112 0.84949,0 1.49155,0.3062112 0.64205,0.3062111 1.00753,0.9087557 0.36548,0.6025446 0.39511,1.5014226 0.0198,0.4346223 0.0198,0.849489 0,0.4148668 -0.0198,0.8396113 -0.0296,0.9087558 -0.38523,1.5211782 -0.3556,0.6025442 -0.99766,0.8988782 -0.63217,0.286455 -1.5113,0.286455 z m 0,-1.1359443 q 0.64206,0 1.04705,-0.3753557 0.40499,-0.3852334 0.43462,-1.2446003 0.0198,-0.4346223 0.0198,-0.8001001 0,-0.3753557 -0.0198,-0.8001002 -0.0198,-0.5729113 -0.21731,-0.9285113 -0.18768,-0.3654779 -0.51365,-0.5235224 -0.32596,-0.1679222 -0.75071,-0.1679222 -0.41486,0 -0.74083,0.1679222 -0.32597,0.1580445 -0.52352,0.5235224 -0.18768,0.3556 -0.20744,0.9285113 -0.01,0.4247445 -0.01,0.8001002 0,0.3654778 0.01,0.8001001 0.0296,0.8593669 0.43463,1.2446003 0.40499,0.3753557 1.03716,0.3753557 z"
           style="font-style:normal;font-variant:normal;font-weight:500;font-stretch:normal;font-size:9.87778px;font-family:Rubik;-inkscape-font-specification:'Rubik Medium';fill:#6a1bbd;fill-opacity:1;stroke:none;stroke-width:0.226768px"
           id="path892" />
        <path
           d="m 129.81439,10.701282 q -0.079,0 -0.14817,-0.05927 -0.0593,-0.05927 -0.0593,-0.148167 0,-0.03951 0.0198,-0.0889 l 2.38055,-6.3711679 q 0.0296,-0.098778 0.10865,-0.1679223 0.0889,-0.079022 0.23707,-0.079022 h 1.07668 q 0.14817,0 0.22719,0.079022 0.079,0.069144 0.11853,0.1679223 l 2.38055,6.3711679 q 0.01,0.04939 0.01,0.0889 0,0.0889 -0.0593,0.148167 -0.0593,0.05927 -0.13829,0.05927 h -0.85937 q -0.13829,0 -0.20743,-0.05927 -0.0593,-0.06915 -0.079,-0.128411 l -0.46426,-1.2050894 h -2.9337 l -0.46426,1.2050894 q -0.0197,0.05927 -0.0889,0.128411 -0.0593,0.05927 -0.19755,0.05927 z m 1.9558,-2.5287121 h 2.24226 l -1.12607,-3.052234 z"
           style="font-style:normal;font-variant:normal;font-weight:500;font-stretch:normal;font-size:9.87778px;font-family:Rubik;-inkscape-font-specification:'Rubik Medium';fill:#6a1bbd;fill-opacity:1;stroke:none;stroke-width:0.226768px"
           id="path895" />
        <path
           d="m 137.32149,10.701282 q -0.0988,0 -0.16792,-0.06915 -0.0691,-0.06914 -0.0691,-0.167922 V 4.0337801 q 0,-0.1086556 0.0691,-0.1778001 0.0692,-0.069144 0.16792,-0.069144 h 2.41018 q 0.99766,0 1.63971,0.3062112 0.65194,0.3062111 0.9779,0.9087557 0.33585,0.6025446 0.34573,1.4717892 0.0198,0.4346223 0.0198,0.7704669 0,0.3358445 -0.0198,0.760589 -0.0198,0.9186336 -0.33585,1.5211781 -0.31609,0.5926669 -0.95814,0.8889999 -0.63218,0.286456 -1.61996,0.286456 z m 1.13595,-1.1359451 h 1.27423 q 0.55316,0 0.89888,-0.1580445 0.34572,-0.1580445 0.50377,-0.5037668 0.16792,-0.3556001 0.1778,-0.9285113 0.01,-0.2963334 0.01,-0.5136446 0.01,-0.2271889 0,-0.4445001 0,-0.2271889 -0.01,-0.5136445 -0.0198,-0.809978 -0.40499,-1.1952114 -0.38524,-0.3852334 -1.22485,-0.3852334 h -1.22484 z"
           style="font-style:normal;font-variant:normal;font-weight:500;font-stretch:normal;font-size:9.87778px;font-family:Rubik;-inkscape-font-specification:'Rubik Medium';fill:#6a1bbd;fill-opacity:1;stroke:none;stroke-width:0.226768px"
           id="path897" />
        <path
           d="m 144.26555,10.701282 q -0.0988,0 -0.16792,-0.06915 -0.0691,-0.06914 -0.0691,-0.167922 V 4.0239023 q 0,-0.098778 0.0691,-0.1679223 0.0691,-0.069144 0.16792,-0.069144 h 0.92852 q 0.10865,0 0.16792,0.069144 0.0691,0.069144 0.0691,0.1679223 v 6.4403127 q 0,0.09878 -0.0691,0.167922 -0.0593,0.06915 -0.16792,0.06915 z"
           style="font-style:normal;font-variant:normal;font-weight:500;font-stretch:normal;font-size:9.87778px;font-family:Rubik;-inkscape-font-specification:'Rubik Medium';fill:#6a1bbd;fill-opacity:1;stroke:none;stroke-width:0.226768px"
           id="path899" />
        <path
           d="m 147.21902,10.701282 q -0.0988,0 -0.16793,-0.06915 -0.0691,-0.06914 -0.0691,-0.167922 V 4.0337801 q 0,-0.1086556 0.0691,-0.1778001 0.0692,-0.069144 0.16793,-0.069144 h 0.76058 q 0.13829,0 0.19756,0.069144 0.0691,0.059267 0.0889,0.0889 l 2.8448,4.4252454 V 4.0337801 q 0,-0.1086556 0.0593,-0.1778001 0.0691,-0.069144 0.1778,-0.069144 h 0.82973 q 0.10866,0 0.1778,0.069144 0.0692,0.069144 0.0692,0.1778001 v 6.4205569 q 0,0.108656 -0.0692,0.1778 -0.0691,0.06915 -0.16792,0.06915 h -0.77047 q -0.13829,0 -0.19755,-0.06915 -0.0593,-0.06914 -0.0889,-0.0889 l -2.83493,-4.3264676 v 4.2474456 q 0,0.09878 -0.0691,0.167922 -0.0692,0.06915 -0.1778,0.06915 z"
           style="font-style:normal;font-variant:normal;font-weight:500;font-stretch:normal;font-size:9.87778px;font-family:Rubik;-inkscape-font-specification:'Rubik Medium';fill:#6a1bbd;fill-opacity:1;stroke:none;stroke-width:0.226768px"
           id="path901" />
        <path
           d="m 156.65229,10.800059 q -0.90876,0 -1.55081,-0.316089 -0.63218,-0.316089 -0.98778,-0.9087554 -0.34573,-0.6025445 -0.37536,-1.4322781 -0.01,-0.4247445 -0.01,-0.9087557 0,-0.493889 0.01,-0.9285113 0.0296,-0.8198558 0.37536,-1.4026448 0.3556,-0.582789 0.99765,-0.898878 0.65194,-0.3160889 1.54094,-0.3160889 0.72107,0 1.26435,0.1975556 0.54328,0.1876778 0.89888,0.493889 0.36548,0.2963334 0.54328,0.6420557 0.18768,0.3457223 0.19755,0.6420557 0.01,0.0889 -0.0494,0.1481667 -0.0593,0.059267 -0.15804,0.059267 h -1.01741 q -0.0988,0 -0.14817,-0.039511 -0.0494,-0.039511 -0.0889,-0.1185333 -0.079,-0.2074334 -0.24694,-0.404989 -0.16792,-0.2074334 -0.45438,-0.3457223 -0.28646,-0.1382889 -0.74083,-0.1382889 -0.67169,0 -1.07668,0.3556 -0.39511,0.3556001 -0.42475,1.1754559 -0.0296,0.8593668 0,1.7384892 0.0296,0.8396113 0.43463,1.2050892 0.41486,0.3654779 1.08655,0.3654779 0.4445,0 0.79022,-0.1580445 0.3556,-0.1580445 0.55316,-0.493889 0.20743,-0.3358445 0.20743,-0.8593669 V 7.8466031 h -1.20509 q -0.0988,0 -0.16792,-0.069144 -0.0691,-0.069145 -0.0691,-0.1778001 V 7.0761363 q 0,-0.1086556 0.0691,-0.1778 0.0692,-0.069145 0.16792,-0.069145 h 2.36079 q 0.10866,0 0.16793,0.069145 0.0691,0.069144 0.0691,0.1778 v 1.0371669 q 0,0.8297335 -0.36548,1.4322781 -0.3556,0.6025447 -1.02729,0.9285117 -0.66181,0.325966 -1.57056,0.325966 z"
           style="font-style:normal;font-variant:normal;font-weight:500;font-stretch:normal;font-size:9.87778px;font-family:Rubik;-inkscape-font-specification:'Rubik Medium';fill:#6a1bbd;fill-opacity:1;stroke:none;stroke-width:0.226768px"
           id="path903" />
        <path
           d="m 161.02813,8.7849922 q -0.0988,0 -0.16793,-0.059267 -0.0691,-0.069145 -0.0691,-0.1778001 V 4.0239023 q 0,-0.098778 0.0691,-0.1679223 0.0692,-0.069144 0.16793,-0.069144 h 0.8001 q 0.10865,0 0.16792,0.069144 0.0691,0.069144 0.0691,0.1679223 v 4.5240232 q 0,0.1086556 -0.0691,0.1778001 -0.0593,0.059267 -0.16792,0.059267 z m -0.0593,1.9162898 q -0.0988,0 -0.16792,-0.06915 -0.0692,-0.06914 -0.0692,-0.167922 V 9.5455813 q 0,-0.1086556 0.0692,-0.1778 0.0691,-0.069145 0.16792,-0.069145 h 0.91863 q 0.10866,0 0.1778,0.069145 0.0692,0.069144 0.0692,0.1778 v 0.9186337 q 0,0.09878 -0.0692,0.167922 -0.0691,0.06915 -0.1778,0.06915 z"
           style="font-style:normal;font-variant:normal;font-weight:500;font-stretch:normal;font-size:9.87778px;font-family:Rubik;-inkscape-font-specification:'Rubik Medium';fill:#6a1bbd;fill-opacity:1;stroke:none;stroke-width:0.226768px"
           id="path905" />
      </g>
    </g>
  </g>
</svg>
