999
"DXF R12 Output" (www.mydxf.blogspot.com)
 0 
SECTION
 2 
HEADER
 9 
$ACADVER
 1 
AC1009
 9 
$EXTMIN
 10 
 0 
 20 
 0 
 9 
$EXTMAX
 10 
 8.5 
 20 
 11 
 0 
ENDSEC
 0 
SECTION
 2 
ENTITIES
0
LINE
8
Layer 1
10
34.853800
20
22.193500
11
34.389742
21
22.084758
0
LINE
8
Layer 1
10
34.389742
20
22.084758
11
34.051028
21
21.775422
0
LINE
8
Layer 1
10
34.051028
20
21.775422
11
34.157673
21
21.211711
0
LINE
8
Layer 1
10
34.157673
20
21.211711
11
34.095058
21
20.636172
0
LINE
8
Layer 1
10
34.095058
20
20.636172
11
33.608570
21
19.951005
0
LINE
8
Layer 1
10
33.608570
20
19.951005
11
32.871478
21
19.555322
0
LINE
8
Layer 1
10
32.871478
20
19.555322
11
32.815716
21
18.584902
0
LINE
8
Layer 1
10
32.815716
20
18.584902
11
32.841506
21
18.437279
0
LINE
8
Layer 1
10
32.841506
20
18.437279
11
32.967988
21
18.341989
0
LINE
8
Layer 1
10
32.967988
20
18.341989
11
33.083009
21
18.244601
0
LINE
8
Layer 1
10
33.083009
20
18.244601
11
33.074420
21
18.090683
0
LINE
8
Layer 1
10
33.074420
20
18.090683
11
32.979275
21
17.489889
0
LINE
8
Layer 1
10
32.979275
20
17.489889
11
33.197680
21
16.935513
0
LINE
8
Layer 1
10
33.197680
20
16.935513
11
33.587751
21
16.600606
0
LINE
8
Layer 1
10
33.587751
20
16.600606
11
34.081182
21
16.470521
0
LINE
8
Layer 1
10
34.081182
20
16.470521
11
34.584960
21
16.550578
0
LINE
8
Layer 1
10
34.584960
20
16.550578
11
35.006070
21
16.846094
0
LINE
8
Layer 1
10
35.006070
20
16.846094
11
35.190883
21
17.110586
0
LINE
8
Layer 1
10
35.190883
20
17.110586
11
35.392037
21
17.343496
0
LINE
8
Layer 1
10
35.392037
20
17.343496
11
36.045446
21
16.886937
0
LINE
8
Layer 1
10
36.045446
20
16.886937
11
36.561486
21
16.797834
0
LINE
8
Layer 1
10
36.561486
20
16.797834
11
37.058892
21
16.947113
0
LINE
8
Layer 1
10
37.058892
20
16.947113
11
37.451918
21
17.286759
0
LINE
8
Layer 1
10
37.451918
20
17.286759
11
37.654816
21
17.768757
0
LINE
8
Layer 1
10
37.654816
20
17.768757
11
37.578783
21
18.342411
0
LINE
8
Layer 1
10
37.578783
20
18.342411
11
37.254656
21
18.833327
0
LINE
8
Layer 1
10
37.254656
20
18.833327
11
37.721042
21
19.300600
0
LINE
8
Layer 1
10
37.721042
20
19.300600
11
37.944723
21
19.904357
0
LINE
8
Layer 1
10
37.944723
20
19.904357
11
37.859853
21
20.415360
0
LINE
8
Layer 1
10
37.859853
20
20.415360
11
37.539353
21
20.812966
0
LINE
8
Layer 1
10
37.539353
20
20.812966
11
37.074663
21
21.042240
0
LINE
8
Layer 1
10
37.074663
20
21.042240
11
36.557223
21
21.048247
0
LINE
8
Layer 1
10
36.557223
20
21.048247
11
36.276855
21
20.974923
0
LINE
8
Layer 1
10
36.276855
20
20.974923
11
36.081473
21
21.097366
0
LINE
8
Layer 1
10
36.081473
20
21.097366
11
35.954321
21
21.532772
0
LINE
8
Layer 1
10
35.954321
20
21.532772
11
35.681877
21
21.889357
0
LINE
8
Layer 1
10
35.681877
20
21.889357
11
35.302313
21
22.123981
0
LINE
8
Layer 1
10
35.302313
20
22.123981
11
34.853803
21
22.193506
0
LINE
8
Layer 1
10
34.853803
20
22.193506
11
34.853800
21
22.193500
0
LINE
8
Layer 1
10
13.456200
20
22.191500
11
13.038765
21
22.102663
0
LINE
8
Layer 1
10
13.038765
20
22.102663
11
12.683435
21
21.873077
0
LINE
8
Layer 1
10
12.683435
20
21.873077
11
12.428538
21
21.536038
0
LINE
8
Layer 1
10
12.428538
20
21.536038
11
12.312400
21
21.124840
0
LINE
8
Layer 1
10
12.312400
20
21.124840
11
12.260822
21
20.990468
0
LINE
8
Layer 1
10
12.260822
20
20.990468
11
12.137643
21
20.971471
0
LINE
8
Layer 1
10
12.137643
20
20.971471
11
11.848021
21
21.047156
0
LINE
8
Layer 1
10
11.848021
20
21.047156
11
11.337495
21
21.045415
0
LINE
8
Layer 1
10
11.337495
20
21.045415
11
10.877207
21
20.827816
0
LINE
8
Layer 1
10
10.877207
20
20.827816
11
10.548240
21
20.445105
0
LINE
8
Layer 1
10
10.548240
20
20.445105
11
10.431681
21
19.948026
0
LINE
8
Layer 1
10
10.431681
20
19.948026
11
10.622685
21
19.351595
0
LINE
8
Layer 1
10
10.622685
20
19.351595
11
11.071715
21
18.901826
0
LINE
8
Layer 1
10
11.071715
20
18.901826
11
11.028606
21
18.685532
0
LINE
8
Layer 1
10
11.028606
20
18.685532
11
10.864768
21
18.480474
0
LINE
8
Layer 1
10
10.864768
20
18.480474
11
10.728697
21
18.027473
0
LINE
8
Layer 1
10
10.728697
20
18.027473
11
10.793492
21
17.561372
0
LINE
8
Layer 1
10
10.793492
20
17.561372
11
11.034922
21
17.158100
0
LINE
8
Layer 1
10
11.034922
20
17.158100
11
11.428755
21
16.893584
0
LINE
8
Layer 1
10
11.428755
20
16.893584
11
11.811995
21
16.791896
0
LINE
8
Layer 1
10
11.811995
20
16.791896
11
12.196282
21
16.842009
0
LINE
8
Layer 1
10
12.196282
20
16.842009
11
12.858465
21
17.262541
0
LINE
8
Layer 1
10
12.858465
20
17.262541
11
13.014144
21
17.338778
0
LINE
8
Layer 1
10
13.014144
20
17.338778
11
13.123266
21
17.230156
0
LINE
8
Layer 1
10
13.123266
20
17.230156
11
13.453897
21
16.762996
0
LINE
8
Layer 1
10
13.453897
20
16.762996
11
13.966189
21
16.504358
0
LINE
8
Layer 1
10
13.966189
20
16.504358
11
14.536204
21
16.492047
0
LINE
8
Layer 1
10
14.536204
20
16.492047
11
15.040006
21
16.763869
0
LINE
8
Layer 1
10
15.040006
20
16.763869
11
15.283354
21
17.063744
0
LINE
8
Layer 1
10
15.283354
20
17.063744
11
15.389288
21
17.425916
0
LINE
8
Layer 1
10
15.389288
20
17.425916
11
15.275334
21
18.182389
0
LINE
8
Layer 1
10
15.275334
20
18.182389
11
15.393160
21
18.335044
0
LINE
8
Layer 1
10
15.393160
20
18.335044
11
15.580615
21
18.429632
0
LINE
8
Layer 1
10
15.580615
20
18.429632
11
15.524994
21
18.903186
0
LINE
8
Layer 1
10
15.524994
20
18.903186
11
15.555599
21
19.378135
0
LINE
8
Layer 1
10
15.555599
20
19.378135
11
15.424573
21
19.593245
0
LINE
8
Layer 1
10
15.424573
20
19.593245
11
15.149438
21
19.704609
0
LINE
8
Layer 1
10
15.149438
20
19.704609
11
14.684268
21
20.033384
0
LINE
8
Layer 1
10
14.684268
20
20.033384
11
14.360714
21
20.501401
0
LINE
8
Layer 1
10
14.360714
20
20.501401
11
14.215456
21
21.048386
0
LINE
8
Layer 1
10
14.215456
20
21.048386
11
14.285173
21
21.614069
0
LINE
8
Layer 1
10
14.285173
20
21.614069
11
14.291788
21
21.870936
0
LINE
8
Layer 1
10
14.291788
20
21.870936
11
14.094509
21
22.038423
0
LINE
8
Layer 1
10
14.094509
20
22.038423
11
13.456204
21
22.191518
0
LINE
8
Layer 1
10
13.456204
20
22.191518
11
13.456200
21
22.191500
0
LINE
8
Layer 1
10
13.620400
20
13.599000
11
13.091794
21
13.417736
0
LINE
8
Layer 1
10
13.091794
20
13.417736
11
12.641337
21
13.113970
0
LINE
8
Layer 1
10
12.641337
20
13.113970
11
12.742034
21
12.677467
0
LINE
8
Layer 1
10
12.742034
20
12.677467
11
12.941760
21
12.561904
0
LINE
8
Layer 1
10
12.941760
20
12.561904
11
13.172632
21
12.601068
0
LINE
8
Layer 1
10
13.172632
20
12.601068
11
14.293362
21
12.911665
0
LINE
8
Layer 1
10
14.293362
20
12.911665
11
14.380541
21
12.825280
0
LINE
8
Layer 1
10
14.380541
20
12.825280
11
14.301459
21
12.732372
0
LINE
8
Layer 1
10
14.301459
20
12.732372
11
13.874456
21
12.414141
0
LINE
8
Layer 1
10
13.874456
20
12.414141
11
13.519155
21
12.026933
0
LINE
8
Layer 1
10
13.519155
20
12.026933
11
13.547987
21
11.780313
0
LINE
8
Layer 1
10
13.547987
20
11.780313
11
13.718890
21
11.604909
0
LINE
8
Layer 1
10
13.718890
20
11.604909
11
13.956005
21
11.546457
0
LINE
8
Layer 1
10
13.956005
20
11.546457
11
14.183478
21
11.650692
0
LINE
8
Layer 1
10
14.183478
20
11.650692
11
15.041010
21
12.269630
0
LINE
8
Layer 1
10
15.041010
20
12.269630
11
15.281969
21
12.126025
0
LINE
8
Layer 1
10
15.281969
20
12.126025
11
15.360111
21
12.040769
0
LINE
8
Layer 1
10
15.360111
20
12.040769
11
15.315581
21
11.921636
0
LINE
8
Layer 1
10
15.315581
20
11.921636
11
15.057801
21
11.507657
0
LINE
8
Layer 1
10
15.057801
20
11.507657
11
14.931214
21
11.059422
0
LINE
8
Layer 1
10
14.931214
20
11.059422
11
15.061922
21
10.859198
0
LINE
8
Layer 1
10
15.061922
20
10.859198
11
15.285136
21
10.791112
0
LINE
8
Layer 1
10
15.285136
20
10.791112
11
15.688776
21
11.019764
0
LINE
8
Layer 1
10
15.688776
20
11.019764
11
16.120044
21
11.607853
0
LINE
8
Layer 1
10
16.120044
20
11.607853
11
16.709866
21
11.428196
0
LINE
8
Layer 1
10
16.709866
20
11.428196
11
16.626830
21
10.915128
0
LINE
8
Layer 1
10
16.626830
20
10.915128
11
16.653146
21
10.669478
0
LINE
8
Layer 1
10
16.653146
20
10.669478
11
16.820207
21
10.478336
0
LINE
8
Layer 1
10
16.820207
20
10.478336
11
17.038940
21
10.414229
0
LINE
8
Layer 1
10
17.038940
20
10.414229
11
17.233234
21
10.504758
0
LINE
8
Layer 1
10
17.233234
20
10.504758
11
17.445777
21
10.906055
0
LINE
8
Layer 1
10
17.445777
20
10.906055
11
17.503667
21
11.176091
0
LINE
8
Layer 1
10
17.503667
20
11.176091
11
17.712943
21
11.294661
0
LINE
8
Layer 1
10
17.712943
20
11.294661
11
18.031314
21
11.295896
0
LINE
8
Layer 1
10
18.031314
20
11.295896
11
18.133022
21
11.024129
0
LINE
8
Layer 1
10
18.133022
20
11.024129
11
18.364316
21
10.658720
0
LINE
8
Layer 1
10
18.364316
20
10.658720
11
18.564810
21
10.599916
0
LINE
8
Layer 1
10
18.564810
20
10.599916
11
18.769782
21
10.684918
0
LINE
8
Layer 1
10
18.769782
20
10.684918
11
18.937511
21
11.071354
0
LINE
8
Layer 1
10
18.937511
20
11.071354
11
18.892767
21
11.521895
0
LINE
8
Layer 1
10
18.892767
20
11.521895
11
19.253954
21
11.652820
0
LINE
8
Layer 1
10
19.253954
20
11.652820
11
19.425105
21
11.686514
0
LINE
8
Layer 1
10
19.425105
20
11.686514
11
19.558426
21
11.593018
0
LINE
8
Layer 1
10
19.558426
20
11.593018
11
19.854558
21
11.236565
0
LINE
8
Layer 1
10
19.854558
20
11.236565
11
20.039163
21
11.121152
0
LINE
8
Layer 1
10
20.039163
20
11.121152
11
20.262436
21
11.145933
0
LINE
8
Layer 1
10
20.262436
20
11.145933
11
20.501431
21
11.389439
0
LINE
8
Layer 1
10
20.501431
20
11.389439
11
20.451371
21
11.719016
0
LINE
8
Layer 1
10
20.451371
20
11.719016
11
20.267530
21
12.069234
0
LINE
8
Layer 1
10
20.267530
20
12.069234
11
20.501438
21
12.408163
0
LINE
8
Layer 1
10
20.501438
20
12.408163
11
20.327658
21
12.781859
0
LINE
8
Layer 1
10
20.327658
20
12.781859
11
19.801379
21
12.742121
0
LINE
8
Layer 1
10
19.801379
20
12.742121
11
19.292558
21
12.526064
0
LINE
8
Layer 1
10
19.292558
20
12.526064
11
17.862395
21
12.149729
0
LINE
8
Layer 1
10
17.862395
20
12.149729
11
17.128794
21
12.172057
0
LINE
8
Layer 1
10
17.128794
20
12.172057
11
16.420328
21
12.390758
0
LINE
8
Layer 1
10
16.420328
20
12.390758
11
15.377315
21
13.034463
0
LINE
8
Layer 1
10
15.377315
20
13.034463
11
14.462648
21
13.853978
0
LINE
8
Layer 1
10
14.462648
20
13.853978
11
13.620397
21
13.598999
0
LINE
8
Layer 1
10
13.620397
20
13.598999
11
13.620400
21
13.599000
0
LINE
8
Layer 1
10
33.987300
20
13.833200
11
33.647463
21
13.594485
0
LINE
8
Layer 1
10
33.647463
20
13.594485
11
33.336095
21
13.303709
0
LINE
8
Layer 1
10
33.336095
20
13.303709
11
32.015577
21
12.416845
0
LINE
8
Layer 1
10
32.015577
20
12.416845
11
31.267118
21
12.171362
0
LINE
8
Layer 1
10
31.267118
20
12.171362
11
30.472945
21
12.153519
0
LINE
8
Layer 1
10
30.472945
20
12.153519
11
29.406841
21
12.412858
0
LINE
8
Layer 1
10
29.406841
20
12.412858
11
28.380545
21
12.806378
0
LINE
8
Layer 1
10
28.380545
20
12.806378
11
28.131556
21
12.801169
0
LINE
8
Layer 1
10
28.131556
20
12.801169
11
27.949507
21
12.639103
0
LINE
8
Layer 1
10
27.949507
20
12.639103
11
27.886144
21
12.403850
0
LINE
8
Layer 1
10
27.886144
20
12.403850
11
27.993214
21
12.179080
0
LINE
8
Layer 1
10
27.993214
20
12.179080
11
28.106381
21
12.010690
0
LINE
8
Layer 1
10
28.106381
20
12.010690
11
27.985837
21
11.815491
0
LINE
8
Layer 1
10
27.985837
20
11.815491
11
27.870924
21
11.606436
0
LINE
8
Layer 1
10
27.870924
20
11.606436
11
27.894972
21
11.372861
0
LINE
8
Layer 1
10
27.894972
20
11.372861
11
28.031880
21
11.185173
0
LINE
8
Layer 1
10
28.031880
20
11.185173
11
28.255549
21
11.113783
0
LINE
8
Layer 1
10
28.255549
20
11.113783
11
28.639615
21
11.347048
0
LINE
8
Layer 1
10
28.639615
20
11.347048
11
28.928970
21
11.709153
0
LINE
8
Layer 1
10
28.928970
20
11.709153
11
29.488771
21
11.473007
0
LINE
8
Layer 1
10
29.488771
20
11.473007
11
29.455935
21
10.992979
0
LINE
8
Layer 1
10
29.455935
20
10.992979
11
29.517117
21
10.772739
0
LINE
8
Layer 1
10
29.517117
20
10.772739
11
29.698264
21
10.624114
0
LINE
8
Layer 1
10
29.698264
20
10.624114
11
30.087897
21
10.696133
0
LINE
8
Layer 1
10
30.087897
20
10.696133
11
30.263981
21
11.070118
0
LINE
8
Layer 1
10
30.263981
20
11.070118
11
30.300365
21
11.284012
0
LINE
8
Layer 1
10
30.300365
20
11.284012
11
30.479023
21
11.326917
0
LINE
8
Layer 1
10
30.479023
20
11.326917
11
30.769430
21
11.301086
0
LINE
8
Layer 1
10
30.769430
20
11.301086
11
30.897465
21
11.097137
0
LINE
8
Layer 1
10
30.897465
20
11.097137
11
31.041669
21
10.626472
0
LINE
8
Layer 1
10
31.041669
20
10.626472
11
31.198013
21
10.458461
0
LINE
8
Layer 1
10
31.198013
20
10.458461
11
31.435981
21
10.425720
0
LINE
8
Layer 1
10
31.435981
20
10.425720
11
31.737701
21
10.689756
0
LINE
8
Layer 1
10
31.737701
20
10.689756
11
31.727070
21
11.104232
0
LINE
8
Layer 1
10
31.727070
20
11.104232
11
31.673567
21
11.324802
0
LINE
8
Layer 1
10
31.673567
20
11.324802
11
31.792201
21
11.461000
0
LINE
8
Layer 1
10
31.792201
20
11.461000
11
32.274682
21
11.588530
0
LINE
8
Layer 1
10
32.274682
20
11.588530
11
32.593534
21
11.150369
0
LINE
8
Layer 1
10
32.593534
20
11.150369
11
32.981397
21
10.792582
0
LINE
8
Layer 1
10
32.981397
20
10.792582
11
33.392715
21
10.952213
0
LINE
8
Layer 1
10
33.392715
20
10.952213
11
33.472532
21
11.161715
0
LINE
8
Layer 1
10
33.472532
20
11.161715
11
33.395290
21
11.379674
0
LINE
8
Layer 1
10
33.395290
20
11.379674
11
32.982306
21
12.025892
0
LINE
8
Layer 1
10
32.982306
20
12.025892
11
33.331327
21
12.216444
0
LINE
8
Layer 1
10
33.331327
20
12.216444
11
33.675742
21
12.023352
0
LINE
8
Layer 1
10
33.675742
20
12.023352
11
34.080273
21
11.733501
0
LINE
8
Layer 1
10
34.080273
20
11.733501
11
34.523447
21
11.533003
0
LINE
8
Layer 1
10
34.523447
20
11.533003
11
34.843693
21
11.814073
0
LINE
8
Layer 1
10
34.843693
20
11.814073
11
34.859901
21
12.025733
0
LINE
8
Layer 1
10
34.859901
20
12.025733
11
34.737397
21
12.211151
0
LINE
8
Layer 1
10
34.737397
20
12.211151
11
34.013492
21
12.806704
0
LINE
8
Layer 1
10
34.013492
20
12.806704
11
34.229839
21
12.929249
0
LINE
8
Layer 1
10
34.229839
20
12.929249
11
34.502089
21
12.834475
0
LINE
8
Layer 1
10
34.502089
20
12.834475
11
35.440378
21
12.564727
0
LINE
8
Layer 1
10
35.440378
20
12.564727
11
35.648507
21
12.683913
0
LINE
8
Layer 1
10
35.648507
20
12.683913
11
35.751656
21
12.901221
0
LINE
8
Layer 1
10
35.751656
20
12.901221
11
35.727524
21
13.132236
0
LINE
8
Layer 1
10
35.727524
20
13.132236
11
35.553814
21
13.292544
0
LINE
8
Layer 1
10
35.553814
20
13.292544
11
33.987294
21
13.833061
0
LINE
8
Layer 1
10
33.987294
20
13.833061
11
33.987300
21
13.833200
0
LINE
8
Layer 1
10
10.984000
20
29.041700
11
10.552272
21
28.952966
0
LINE
8
Layer 1
10
10.552272
20
28.952966
11
10.411917
21
28.523004
0
LINE
8
Layer 1
10
10.411917
20
28.523004
11
10.238921
21
27.183336
0
LINE
8
Layer 1
10
10.238921
20
27.183336
11
10.237805
21
25.829166
0
LINE
8
Layer 1
10
10.237805
20
25.829166
11
10.412944
21
24.487218
0
LINE
8
Layer 1
10
10.412944
20
24.487218
11
10.768717
21
23.184214
0
LINE
8
Layer 1
10
10.768717
20
23.184214
11
11.281602
21
22.108381
0
LINE
8
Layer 1
10
11.281602
20
22.108381
11
12.024607
21
21.194104
0
LINE
8
Layer 1
10
12.024607
20
21.194104
11
12.295295
21
21.743544
0
LINE
8
Layer 1
10
12.295295
20
21.743544
11
12.702308
21
22.210654
0
LINE
8
Layer 1
10
12.702308
20
22.210654
11
12.173943
21
24.262904
0
LINE
8
Layer 1
10
12.173943
20
24.262904
11
12.019804
21
25.311176
0
LINE
8
Layer 1
10
12.019804
20
25.311176
11
12.019533
21
26.370774
0
LINE
8
Layer 1
10
12.019533
20
26.370774
11
12.070741
21
26.584563
0
LINE
8
Layer 1
10
12.070741
20
26.584563
11
12.264328
21
26.617303
0
LINE
8
Layer 1
10
12.264328
20
26.617303
11
12.754729
21
26.531166
0
LINE
8
Layer 1
10
12.754729
20
26.531166
11
14.126567
21
26.133901
0
LINE
8
Layer 1
10
14.126567
20
26.133901
11
14.746658
21
25.790415
0
LINE
8
Layer 1
10
14.746658
20
25.790415
11
15.277779
21
25.311376
0
LINE
8
Layer 1
10
15.277779
20
25.311376
11
15.999090
21
24.239896
0
LINE
8
Layer 1
10
15.999090
20
24.239896
11
16.800161
21
24.836679
0
LINE
8
Layer 1
10
16.800161
20
24.836679
11
17.066384
21
24.988043
0
LINE
8
Layer 1
10
17.066384
20
24.988043
11
17.074689
21
25.270598
0
LINE
8
Layer 1
10
17.074689
20
25.270598
11
16.633859
21
26.248820
0
LINE
8
Layer 1
10
16.633859
20
26.248820
11
16.021092
21
27.128377
0
LINE
8
Layer 1
10
16.021092
20
27.128377
11
15.248195
21
27.865387
0
LINE
8
Layer 1
10
15.248195
20
27.865387
11
14.326969
21
28.415968
0
LINE
8
Layer 1
10
14.326969
20
28.415968
11
12.693653
21
28.921536
0
LINE
8
Layer 1
10
12.693653
20
28.921536
11
10.984009
21
29.041696
0
LINE
8
Layer 1
10
10.984009
20
29.041696
11
10.984000
21
29.041700
0
LINE
8
Layer 1
10
37.140800
20
29.045300
11
35.817933
21
28.944286
0
LINE
8
Layer 1
10
35.817933
20
28.944286
11
34.530482
21
28.609461
0
LINE
8
Layer 1
10
34.530482
20
28.609461
11
33.352618
21
28.015094
0
LINE
8
Layer 1
10
33.352618
20
28.015094
11
32.358510
21
27.135450
0
LINE
8
Layer 1
10
32.358510
20
27.135450
11
31.681004
21
26.137838
0
LINE
8
Layer 1
10
31.681004
20
26.137838
11
31.258120
21
25.013950
0
LINE
8
Layer 1
10
31.258120
20
25.013950
11
31.770233
21
24.716100
0
LINE
8
Layer 1
10
31.770233
20
24.716100
11
32.214218
21
24.322046
0
LINE
8
Layer 1
10
32.214218
20
24.322046
11
32.361914
21
24.241700
0
LINE
8
Layer 1
10
32.361914
20
24.241700
11
32.469212
21
24.368570
0
LINE
8
Layer 1
10
32.469212
20
24.368570
11
32.655334
21
24.754088
0
LINE
8
Layer 1
10
32.655334
20
24.754088
11
33.162237
21
25.389253
0
LINE
8
Layer 1
10
33.162237
20
25.389253
11
33.798834
21
25.887260
0
LINE
8
Layer 1
10
33.798834
20
25.887260
11
34.528314
21
26.246427
0
LINE
8
Layer 1
10
34.528314
20
26.246427
11
35.313864
21
26.465068
0
LINE
8
Layer 1
10
35.313864
20
26.465068
11
36.326344
21
26.633456
0
LINE
8
Layer 1
10
36.326344
20
26.633456
11
36.392187
21
25.780591
0
LINE
8
Layer 1
10
36.392187
20
25.780591
11
36.320748
21
24.927332
0
LINE
8
Layer 1
10
36.320748
20
24.927332
11
35.966782
21
23.246626
0
LINE
8
Layer 1
10
35.966782
20
23.246626
11
35.674758
21
22.229436
0
LINE
8
Layer 1
10
35.674758
20
22.229436
11
36.069951
21
21.778616
0
LINE
8
Layer 1
10
36.069951
20
21.778616
11
36.335093
21
21.244403
0
LINE
8
Layer 1
10
36.335093
20
21.244403
11
36.638981
21
21.416894
0
LINE
8
Layer 1
10
36.638981
20
21.416894
11
36.871154
21
21.729137
0
LINE
8
Layer 1
10
36.871154
20
21.729137
11
37.630933
21
23.248863
0
LINE
8
Layer 1
10
37.630933
20
23.248863
11
38.048939
21
24.893407
0
LINE
8
Layer 1
10
38.048939
20
24.893407
11
38.165317
21
26.595814
0
LINE
8
Layer 1
10
38.165317
20
26.595814
11
38.020214
21
28.289127
0
LINE
8
Layer 1
10
38.020214
20
28.289127
11
37.924349
21
28.765687
0
LINE
8
Layer 1
10
37.924349
20
28.765687
11
37.813142
21
28.959685
0
LINE
8
Layer 1
10
37.813142
20
28.959685
11
37.589126
21
29.028706
0
LINE
8
Layer 1
10
37.589126
20
29.028706
11
37.140799
21
29.045301
0
LINE
8
Layer 1
10
37.140799
20
29.045301
11
37.140800
21
29.045300
0
LINE
8
Layer 1
10
25.182900
20
26.139000
11
24.663394
21
26.028838
0
LINE
8
Layer 1
10
24.663394
20
26.028838
11
24.213183
21
25.757019
0
LINE
8
Layer 1
10
24.213183
20
25.757019
11
23.863524
21
25.360653
0
LINE
8
Layer 1
10
23.863524
20
25.360653
11
23.645670
21
24.876850
0
LINE
8
Layer 1
10
23.645670
20
24.876850
11
23.430200
21
24.816460
0
LINE
8
Layer 1
10
23.430200
20
24.816460
11
23.187476
21
24.967724
0
LINE
8
Layer 1
10
23.187476
20
24.967724
11
22.657297
21
25.203486
0
LINE
8
Layer 1
10
22.657297
20
25.203486
11
22.082603
21
25.204055
0
LINE
8
Layer 1
10
22.082603
20
25.204055
11
21.538863
21
24.999450
0
LINE
8
Layer 1
10
21.538863
20
24.999450
11
21.101546
21
24.619689
0
LINE
8
Layer 1
10
21.101546
20
24.619689
11
20.798078
21
24.079306
0
LINE
8
Layer 1
10
20.798078
20
24.079306
11
20.729706
21
23.467512
0
LINE
8
Layer 1
10
20.729706
20
23.467512
11
20.890463
21
22.873665
0
LINE
8
Layer 1
10
20.890463
20
22.873665
11
21.274380
21
22.387119
0
LINE
8
Layer 1
10
21.274380
20
22.387119
11
21.621414
21
22.025985
0
LINE
8
Layer 1
10
21.621414
20
22.025985
11
21.244408
21
21.528780
0
LINE
8
Layer 1
10
21.244408
20
21.528780
11
21.015037
21
20.955595
0
LINE
8
Layer 1
10
21.015037
20
20.955595
11
20.986725
21
20.433306
0
LINE
8
Layer 1
10
20.986725
20
20.433306
11
21.132229
21
19.934385
0
LINE
8
Layer 1
10
21.132229
20
19.934385
11
21.430632
21
19.510844
0
LINE
8
Layer 1
10
21.430632
20
19.510844
11
21.861017
21
19.214695
0
LINE
8
Layer 1
10
21.861017
20
19.214695
11
22.273190
21
19.090465
0
LINE
8
Layer 1
10
22.273190
20
19.090465
11
22.697424
21
19.103791
0
LINE
8
Layer 1
10
22.697424
20
19.103791
11
23.504307
21
19.396898
0
LINE
8
Layer 1
10
23.504307
20
19.396898
11
23.647717
21
19.341722
0
LINE
8
Layer 1
10
23.647717
20
19.341722
11
23.715802
21
19.156386
0
LINE
8
Layer 1
10
23.715802
20
19.156386
11
24.027571
21
18.714154
0
LINE
8
Layer 1
10
24.027571
20
18.714154
11
24.465573
21
18.393826
0
LINE
8
Layer 1
10
24.465573
20
18.393826
11
24.978787
21
18.243215
0
LINE
8
Layer 1
10
24.978787
20
18.243215
11
25.516192
21
18.310135
0
LINE
8
Layer 1
10
25.516192
20
18.310135
11
26.068258
21
18.584927
0
LINE
8
Layer 1
10
26.068258
20
18.584927
11
26.480291
21
19.043764
0
LINE
8
Layer 1
10
26.480291
20
19.043764
11
26.706094
21
19.616721
0
LINE
8
Layer 1
10
26.706094
20
19.616721
11
26.699472
21
20.233875
0
LINE
8
Layer 1
10
26.699472
20
20.233875
11
26.523908
21
20.885274
0
LINE
8
Layer 1
10
26.523908
20
20.885274
11
27.438586
21
21.011280
0
LINE
8
Layer 1
10
27.438586
20
21.011280
11
28.173938
21
21.553693
0
LINE
8
Layer 1
10
28.173938
20
21.553693
11
28.470311
21
22.165096
0
LINE
8
Layer 1
10
28.470311
20
22.165096
11
28.484889
21
22.845009
0
LINE
8
Layer 1
10
28.484889
20
22.845009
11
28.229352
21
23.469176
0
LINE
8
Layer 1
10
28.229352
20
23.469176
11
27.715378
21
23.913343
0
LINE
8
Layer 1
10
27.715378
20
23.913343
11
27.265909
21
24.057551
0
LINE
8
Layer 1
10
27.265909
20
24.057551
11
26.806542
21
24.153765
0
LINE
8
Layer 1
10
26.806542
20
24.153765
11
26.695928
21
25.027399
0
LINE
8
Layer 1
10
26.695928
20
25.027399
11
26.481735
21
25.480695
0
LINE
8
Layer 1
10
26.481735
20
25.480695
11
26.128113
21
25.841985
0
LINE
8
Layer 1
10
26.128113
20
25.841985
11
25.680141
21
26.073882
0
LINE
8
Layer 1
10
25.680141
20
26.073882
11
25.182898
21
26.138999
0
LINE
8
Layer 1
10
25.182898
20
26.138999
11
25.182900
21
26.139000
0
LINE
8
Layer 1
10
30.764000
20
24.764200
11
30.266427
21
24.661167
0
LINE
8
Layer 1
10
30.266427
20
24.661167
11
29.846755
21
24.385928
0
LINE
8
Layer 1
10
29.846755
20
24.385928
11
29.540241
21
23.984127
0
LINE
8
Layer 1
10
29.540241
20
23.984127
11
29.382140
21
23.501410
0
LINE
8
Layer 1
10
29.382140
20
23.501410
11
29.229411
21
23.381483
0
LINE
8
Layer 1
10
29.229411
20
23.381483
11
28.994079
21
23.481305
0
LINE
8
Layer 1
10
28.994079
20
23.481305
11
28.733821
21
23.597591
0
LINE
8
Layer 1
10
28.733821
20
23.597591
11
28.482125
21
23.582276
0
LINE
8
Layer 1
10
28.482125
20
23.582276
11
28.749200
21
22.670164
0
LINE
8
Layer 1
10
28.749200
20
22.670164
11
28.675473
21
22.028767
0
LINE
8
Layer 1
10
28.675473
20
22.028767
11
28.389737
21
21.452985
0
LINE
8
Layer 1
10
28.389737
20
21.452985
11
27.934583
21
20.999560
0
LINE
8
Layer 1
10
27.934583
20
20.999560
11
27.352600
21
20.725234
0
LINE
8
Layer 1
10
27.352600
20
20.725234
11
27.105508
21
20.540750
0
LINE
8
Layer 1
10
27.105508
20
20.540750
11
26.994149
21
20.260590
0
LINE
8
Layer 1
10
26.994149
20
20.260590
11
26.957172
21
19.632374
0
LINE
8
Layer 1
10
26.957172
20
19.632374
11
27.088526
21
19.095460
0
LINE
8
Layer 1
10
27.088526
20
19.095460
11
27.450604
21
18.678129
0
LINE
8
Layer 1
10
27.450604
20
18.678129
11
27.953094
21
18.423089
0
LINE
8
Layer 1
10
27.953094
20
18.423089
11
28.505682
21
18.373044
0
LINE
8
Layer 1
10
28.505682
20
18.373044
11
29.099770
21
18.566411
0
LINE
8
Layer 1
10
29.099770
20
18.566411
11
29.619922
21
18.924390
0
LINE
8
Layer 1
10
29.619922
20
18.924390
11
29.845788
21
18.493911
0
LINE
8
Layer 1
10
29.845788
20
18.493911
11
30.119779
21
18.084957
0
LINE
8
Layer 1
10
30.119779
20
18.084957
11
30.671238
21
17.713257
0
LINE
8
Layer 1
10
30.671238
20
17.713257
11
31.332117
21
17.633817
0
LINE
8
Layer 1
10
31.332117
20
17.633817
11
31.966437
21
17.834185
0
LINE
8
Layer 1
10
31.966437
20
17.834185
11
32.438219
21
18.301910
0
LINE
8
Layer 1
10
32.438219
20
18.301910
11
32.619110
21
18.966226
0
LINE
8
Layer 1
10
32.619110
20
18.966226
11
32.511811
21
19.650570
0
LINE
8
Layer 1
10
32.511811
20
19.650570
11
32.750637
21
19.790332
0
LINE
8
Layer 1
10
32.750637
20
19.790332
11
33.044779
21
19.869523
0
LINE
8
Layer 1
10
33.044779
20
19.869523
11
33.677591
21
20.359610
0
LINE
8
Layer 1
10
33.677591
20
20.359610
11
33.860029
21
20.713583
0
LINE
8
Layer 1
10
33.860029
20
20.713583
11
33.906679
21
21.115653
0
LINE
8
Layer 1
10
33.906679
20
21.115653
11
33.832708
21
21.666996
0
LINE
8
Layer 1
10
33.832708
20
21.666996
11
33.530884
21
22.127179
0
LINE
8
Layer 1
10
33.530884
20
22.127179
11
33.074607
21
22.450602
0
LINE
8
Layer 1
10
33.074607
20
22.450602
11
32.537279
21
22.591663
0
LINE
8
Layer 1
10
32.537279
20
22.591663
11
32.308266
21
22.635174
0
LINE
8
Layer 1
10
32.308266
20
22.635174
11
32.238911
21
22.817440
0
LINE
8
Layer 1
10
32.238911
20
22.817440
11
32.297614
21
23.537866
0
LINE
8
Layer 1
10
32.297614
20
23.537866
11
32.007949
21
24.196120
0
LINE
8
Layer 1
10
32.007949
20
24.196120
11
31.459334
21
24.638023
0
LINE
8
Layer 1
10
31.459334
20
24.638023
11
30.763999
21
24.764200
0
LINE
8
Layer 1
10
30.763999
20
24.764200
11
30.764000
21
24.764200
0
LINE
8
Layer 1
10
17.502200
20
24.764900
11
16.912861
21
24.633014
0
LINE
8
Layer 1
10
16.912861
20
24.633014
11
16.432951
21
24.266040
0
LINE
8
Layer 1
10
16.432951
20
24.266040
11
16.133195
21
23.742596
0
LINE
8
Layer 1
10
16.133195
20
23.742596
11
16.084320
21
23.141300
0
LINE
8
Layer 1
10
16.084320
20
23.141300
11
16.128615
21
22.891407
0
LINE
8
Layer 1
10
16.128615
20
22.891407
11
16.123708
21
22.658683
0
LINE
8
Layer 1
10
16.123708
20
22.658683
11
15.228424
21
22.409346
0
LINE
8
Layer 1
10
15.228424
20
22.409346
11
14.654935
21
21.873086
0
LINE
8
Layer 1
10
14.654935
20
21.873086
11
14.478413
21
21.114816
0
LINE
8
Layer 1
10
14.478413
20
21.114816
11
14.564382
21
20.607554
0
LINE
8
Layer 1
10
14.564382
20
20.607554
11
14.854834
21
20.191361
0
LINE
8
Layer 1
10
14.854834
20
20.191361
11
15.281050
21
19.896503
0
LINE
8
Layer 1
10
15.281050
20
19.896503
11
15.774313
21
19.753246
0
LINE
8
Layer 1
10
15.774313
20
19.753246
11
15.850432
21
19.512582
0
LINE
8
Layer 1
10
15.850432
20
19.512582
11
15.775018
21
19.215003
0
LINE
8
Layer 1
10
15.775018
20
19.215003
11
15.782051
21
18.749166
0
LINE
8
Layer 1
10
15.782051
20
18.749166
11
15.942443
21
18.316509
0
LINE
8
Layer 1
10
15.942443
20
18.316509
11
16.233870
21
17.959755
0
LINE
8
Layer 1
10
16.233870
20
17.959755
11
16.634007
21
17.721623
0
LINE
8
Layer 1
10
16.634007
20
17.721623
11
17.161300
21
17.622529
0
LINE
8
Layer 1
10
17.161300
20
17.622529
11
17.691404
21
17.708961
0
LINE
8
Layer 1
10
17.691404
20
17.708961
11
18.155397
21
17.970313
0
LINE
8
Layer 1
10
18.155397
20
17.970313
11
18.484357
21
18.395976
0
LINE
8
Layer 1
10
18.484357
20
18.395976
11
18.773423
21
18.920824
0
LINE
8
Layer 1
10
18.773423
20
18.920824
11
19.282567
21
18.563453
0
LINE
8
Layer 1
10
19.282567
20
18.563453
11
19.867553
21
18.377214
0
LINE
8
Layer 1
10
19.867553
20
18.377214
11
20.764150
21
18.562716
0
LINE
8
Layer 1
10
20.764150
20
18.562716
11
21.123124
21
18.845646
0
LINE
8
Layer 1
10
21.123124
20
18.845646
11
21.348023
21
19.238112
0
LINE
8
Layer 1
10
21.348023
20
19.238112
11
20.996493
21
19.669864
0
LINE
8
Layer 1
10
20.996493
20
19.669864
11
20.797343
21
20.184020
0
LINE
8
Layer 1
10
20.797343
20
20.184020
11
20.749274
21
20.736447
0
LINE
8
Layer 1
10
20.749274
20
20.736447
11
20.850987
21
21.283012
0
LINE
8
Layer 1
10
20.850987
20
21.283012
11
21.268610
21
22.058767
0
LINE
8
Layer 1
10
21.268610
20
22.058767
11
20.769226
21
22.609230
0
LINE
8
Layer 1
10
20.769226
20
22.609230
11
20.513959
21
23.303537
0
LINE
8
Layer 1
10
20.513959
20
23.303537
11
20.447860
21
23.556737
0
LINE
8
Layer 1
10
20.447860
20
23.556737
11
20.233784
21
23.646751
0
LINE
8
Layer 1
10
20.233784
20
23.646751
11
19.668558
21
23.589162
0
LINE
8
Layer 1
10
19.668558
20
23.589162
11
19.133644
21
23.384951
0
LINE
8
Layer 1
10
19.133644
20
23.384951
11
18.998196
21
23.504577
0
LINE
8
Layer 1
10
18.998196
20
23.504577
11
18.944617
21
23.727983
0
LINE
8
Layer 1
10
18.944617
20
23.727983
11
18.738584
21
24.162915
0
LINE
8
Layer 1
10
18.738584
20
24.162915
11
18.404813
21
24.498072
0
LINE
8
Layer 1
10
18.404813
20
24.498072
11
17.980334
21
24.707415
0
LINE
8
Layer 1
10
17.980334
20
24.707415
11
17.502177
21
24.764903
0
LINE
8
Layer 1
10
17.502177
20
24.764903
11
17.502200
21
24.764900
0
LINE
8
Layer 1
10
22.347700
20
28.192100
11
21.910974
21
25.515070
0
LINE
8
Layer 1
10
21.910974
20
25.515070
11
22.153301
21
25.445364
0
LINE
8
Layer 1
10
22.153301
20
25.445364
11
22.433730
21
25.448906
0
LINE
8
Layer 1
10
22.433730
20
25.448906
11
22.948051
21
25.356919
0
LINE
8
Layer 1
10
22.948051
20
25.356919
11
23.419548
21
25.123281
0
LINE
8
Layer 1
10
23.419548
20
25.123281
11
23.742385
21
25.609674
0
LINE
8
Layer 1
10
23.742385
20
25.609674
11
24.296174
21
26.105013
0
LINE
8
Layer 1
10
24.296174
20
26.105013
11
24.982975
21
26.397255
0
LINE
8
Layer 1
10
24.982975
20
26.397255
11
23.977825
21
27.149501
0
LINE
8
Layer 1
10
23.977825
20
27.149501
11
22.391825
21
28.224751
0
LINE
8
Layer 1
10
22.391825
20
28.224751
11
22.354390
21
28.197043
0
LINE
8
Layer 1
10
22.354390
20
28.197043
11
22.347700
21
28.192100
0
LINE
8
Layer 1
10
22.821600
20
31.024800
11
22.721755
21
30.794591
0
LINE
8
Layer 1
10
22.721755
20
30.794591
11
22.689258
21
30.519468
0
LINE
8
Layer 1
10
22.689258
20
30.519468
11
22.408343
21
28.579558
0
LINE
8
Layer 1
10
22.408343
20
28.579558
11
25.328793
21
26.508998
0
LINE
8
Layer 1
10
25.328793
20
26.508998
11
26.304491
21
26.038888
0
LINE
8
Layer 1
10
26.304491
20
26.038888
11
26.366017
21
26.225822
0
LINE
8
Layer 1
10
26.366017
20
26.225822
11
26.326391
21
26.463756
0
LINE
8
Layer 1
10
26.326391
20
26.463756
11
25.908000
21
28.886300
0
LINE
8
Layer 1
10
25.908000
20
28.886300
11
22.844300
21
31.025200
0
LINE
8
Layer 1
10
22.844300
20
31.025200
11
22.833293
21
31.025764
0
LINE
8
Layer 1
10
22.833293
20
31.025764
11
22.821600
21
31.024800
0
LINE
8
Layer 1
10
23.268900
20
33.805900
11
23.156612
21
33.558683
0
LINE
8
Layer 1
10
23.156612
20
33.558683
11
23.112303
21
33.267886
0
LINE
8
Layer 1
10
23.112303
20
33.267886
11
22.875383
21
31.341456
0
LINE
8
Layer 1
10
22.875383
20
31.341456
11
25.804933
21
29.287086
0
LINE
8
Layer 1
10
25.804933
20
29.287086
11
25.848371
21
29.516158
0
LINE
8
Layer 1
10
25.848371
20
29.516158
11
25.804748
21
29.779938
0
LINE
8
Layer 1
10
25.804748
20
29.779938
11
25.407774
21
32.301958
0
LINE
8
Layer 1
10
25.407774
20
32.301958
11
23.313104
21
33.800708
0
LINE
8
Layer 1
10
23.313104
20
33.800708
11
23.268895
21
33.805892
0
LINE
8
Layer 1
10
23.268895
20
33.805892
11
23.268900
21
33.805900
0
LINE
8
Layer 1
10
23.663600
20
36.622000
11
23.292097
21
34.194310
0
LINE
8
Layer 1
10
23.292097
20
34.194310
11
25.261687
21
32.719940
0
LINE
8
Layer 1
10
25.261687
20
32.719940
11
25.339687
21
32.877619
0
LINE
8
Layer 1
10
25.339687
20
32.877619
11
25.293980
21
33.105362
0
LINE
8
Layer 1
10
25.293980
20
33.105362
11
24.855799
21
35.813862
0
LINE
8
Layer 1
10
24.855799
20
35.813862
11
23.693619
21
36.633099
0
LINE
8
Layer 1
10
23.693619
20
36.633099
11
23.663600
21
36.622000
0
LINE
8
Layer 1
10
24.172600
20
38.951100
11
23.981264
21
38.673951
0
LINE
8
Layer 1
10
23.981264
20
38.673951
11
23.911256
21
38.317615
0
LINE
8
Layer 1
10
23.911256
20
38.317615
11
23.746790
21
36.990425
0
LINE
8
Layer 1
10
23.746790
20
36.990425
11
24.738952
21
36.246872
0
LINE
8
Layer 1
10
24.738952
20
36.246872
11
24.766920
21
36.498748
0
LINE
8
Layer 1
10
24.766920
20
36.498748
11
24.718598
21
36.779148
0
LINE
8
Layer 1
10
24.718598
20
36.779148
11
24.330332
21
38.857318
0
LINE
8
Layer 1
10
24.330332
20
38.857318
11
24.172597
21
38.951104
0
LINE
8
Layer 1
10
24.172597
20
38.951104
11
24.172600
21
38.951100
0
LINE
8
Layer 1
10
0.766132
20
0.886565
11
0.722613
21
0.904486
0
LINE
8
Layer 1
10
0.722613
20
0.904486
11
0.704693
21
0.948008
0
LINE
8
Layer 1
10
0.704693
20
0.948008
11
0.704693
21
2.614530
0
LINE
8
Layer 1
10
0.704693
20
2.614530
11
0.722613
21
2.660608
0
LINE
8
Layer 1
10
0.722613
20
2.660608
11
0.766132
21
2.678529
0
LINE
8
Layer 1
10
0.766132
20
2.678529
11
1.877150
21
2.678530
0
LINE
8
Layer 1
10
1.877150
20
2.678530
11
1.923229
21
2.660609
0
LINE
8
Layer 1
10
1.923229
20
2.660609
11
1.941149
21
2.614530
0
LINE
8
Layer 1
10
1.941149
20
2.614530
11
1.941150
21
2.435340
0
LINE
8
Layer 1
10
1.941150
20
2.435340
11
1.923230
21
2.389262
0
LINE
8
Layer 1
10
1.923230
20
2.389262
11
1.877151
21
2.373909
0
LINE
8
Layer 1
10
1.877151
20
2.373909
11
1.055410
21
2.373910
0
LINE
8
Layer 1
10
1.055410
20
2.373910
11
1.055410
21
1.887520
0
LINE
8
Layer 1
10
1.055410
20
1.887520
11
1.825950
21
1.887520
0
LINE
8
Layer 1
10
1.825950
20
1.887520
11
1.872029
21
1.869599
0
LINE
8
Layer 1
10
1.872029
20
1.869599
11
1.889949
21
1.823518
0
LINE
8
Layer 1
10
1.889949
20
1.823518
11
1.889950
21
1.644320
0
LINE
8
Layer 1
10
1.889950
20
1.644320
11
1.872030
21
1.600799
0
LINE
8
Layer 1
10
1.872030
20
1.600799
11
1.825951
21
1.582877
0
LINE
8
Layer 1
10
1.825951
20
1.582877
11
1.055410
21
1.582880
0
LINE
8
Layer 1
10
1.055410
20
1.582880
11
1.055410
21
0.948011
0
LINE
8
Layer 1
10
1.055410
20
0.948011
11
1.037490
21
0.904490
0
LINE
8
Layer 1
10
1.037490
20
0.904490
11
0.991411
21
0.886568
0
LINE
8
Layer 1
10
0.991411
20
0.886568
11
0.766132
21
0.886565
0
LINE
8
Layer 1
10
2.304660
20
0.886565
11
2.261141
21
0.904486
0
LINE
8
Layer 1
10
2.261141
20
0.904486
11
2.243221
21
0.948008
0
LINE
8
Layer 1
10
2.243221
20
0.948008
11
2.243220
21
2.614530
0
LINE
8
Layer 1
10
2.243220
20
2.614530
11
2.261140
21
2.660608
0
LINE
8
Layer 1
10
2.261140
20
2.660608
11
2.304659
21
2.678529
0
LINE
8
Layer 1
10
2.304659
20
2.678529
11
2.967690
21
2.678530
0
LINE
8
Layer 1
10
2.967690
20
2.678530
11
3.456641
21
2.535173
0
LINE
8
Layer 1
10
3.456641
20
2.535173
11
3.635838
21
2.117899
0
LINE
8
Layer 1
10
3.635838
20
2.117899
11
3.541120
21
1.803027
0
LINE
8
Layer 1
10
3.541120
20
1.803027
11
3.292805
21
1.621270
0
LINE
8
Layer 1
10
3.292805
20
1.621270
11
3.666558
21
0.968482
0
LINE
8
Layer 1
10
3.666558
20
0.968482
11
3.674237
21
0.940316
0
LINE
8
Layer 1
10
3.674237
20
0.940316
11
3.656319
21
0.901917
0
LINE
8
Layer 1
10
3.656319
20
0.901917
11
3.620479
21
0.886564
0
LINE
8
Layer 1
10
3.620479
20
0.886564
11
3.387520
21
0.886568
0
LINE
8
Layer 1
10
3.387520
20
0.886568
11
3.320961
21
0.909597
0
LINE
8
Layer 1
10
3.320961
20
0.909597
11
3.285122
21
0.955679
0
LINE
8
Layer 1
10
3.285122
20
0.955679
11
2.954888
21
1.562385
0
LINE
8
Layer 1
10
2.954888
20
1.562385
11
2.599060
21
1.562390
0
LINE
8
Layer 1
10
2.599060
20
1.562390
11
2.599060
21
0.947999
0
LINE
8
Layer 1
10
2.599060
20
0.947999
11
2.581140
21
0.904478
0
LINE
8
Layer 1
10
2.581140
20
0.904478
11
2.537621
21
0.886556
0
LINE
8
Layer 1
10
2.537621
20
0.886556
11
2.304660
21
0.886565
0
LINE
8
Layer 1
10
2.599054
20
1.851665
11
2.960010
21
1.851670
0
LINE
8
Layer 1
10
2.960010
20
1.851670
11
3.192966
21
1.920789
0
LINE
8
Layer 1
10
3.192966
20
1.920789
11
3.269765
21
2.120467
0
LINE
8
Layer 1
10
3.269765
20
2.120467
11
3.192966
21
2.320142
0
LINE
8
Layer 1
10
3.192966
20
2.320142
11
2.960010
21
2.394380
0
LINE
8
Layer 1
10
2.960010
20
2.394380
11
2.599060
21
2.394380
0
LINE
8
Layer 1
10
2.599060
20
2.394380
11
2.599054
21
1.851665
0
LINE
8
Layer 1
10
4.027500
20
0.886565
11
3.983981
21
0.904486
0
LINE
8
Layer 1
10
3.983981
20
0.904486
11
3.966063
21
0.948008
0
LINE
8
Layer 1
10
3.966063
20
0.948008
11
3.966070
21
2.614530
0
LINE
8
Layer 1
10
3.966070
20
2.614530
11
3.983988
21
2.660608
0
LINE
8
Layer 1
10
3.983988
20
2.660608
11
4.027508
21
2.678529
0
LINE
8
Layer 1
10
4.027508
20
2.678529
11
5.153880
21
2.678530
0
LINE
8
Layer 1
10
5.153880
20
2.678530
11
5.199959
21
2.660609
0
LINE
8
Layer 1
10
5.199959
20
2.660609
11
5.217878
21
2.614530
0
LINE
8
Layer 1
10
5.217878
20
2.614530
11
5.217880
21
2.445580
0
LINE
8
Layer 1
10
5.217880
20
2.445580
11
5.199962
21
2.402061
0
LINE
8
Layer 1
10
5.199962
20
2.402061
11
5.153882
21
2.384140
0
LINE
8
Layer 1
10
5.153882
20
2.384140
11
4.311660
21
2.384140
0
LINE
8
Layer 1
10
4.311660
20
2.384140
11
4.311660
21
1.931020
0
LINE
8
Layer 1
10
4.311660
20
1.931020
11
5.097560
21
1.931020
0
LINE
8
Layer 1
10
5.097560
20
1.931020
11
5.143639
21
1.913099
0
LINE
8
Layer 1
10
5.143639
20
1.913099
11
5.161557
21
1.869580
0
LINE
8
Layer 1
10
5.161557
20
1.869580
11
5.161560
21
1.710870
0
LINE
8
Layer 1
10
5.161560
20
1.710870
11
5.143642
21
1.664792
0
LINE
8
Layer 1
10
5.143642
20
1.664792
11
5.097563
21
1.649439
0
LINE
8
Layer 1
10
5.097563
20
1.649439
11
4.311660
21
1.649430
0
LINE
8
Layer 1
10
4.311660
20
1.649430
11
4.311660
21
1.180960
0
LINE
8
Layer 1
10
4.311660
20
1.180960
11
5.174360
21
1.180960
0
LINE
8
Layer 1
10
5.174360
20
1.180960
11
5.220439
21
1.163039
0
LINE
8
Layer 1
10
5.220439
20
1.163039
11
5.238357
21
1.116961
0
LINE
8
Layer 1
10
5.238357
20
1.116961
11
5.238360
21
0.948008
0
LINE
8
Layer 1
10
5.238360
20
0.948008
11
5.220442
21
0.904486
0
LINE
8
Layer 1
10
5.220442
20
0.904486
11
5.174363
21
0.886565
0
LINE
8
Layer 1
10
5.174363
20
0.886565
11
4.027500
21
0.886565
0
LINE
8
Layer 1
10
5.619790
20
0.886565
11
5.576271
21
0.904486
0
LINE
8
Layer 1
10
5.576271
20
0.904486
11
5.558350
21
0.948008
0
LINE
8
Layer 1
10
5.558350
20
0.948008
11
5.558350
21
2.614530
0
LINE
8
Layer 1
10
5.558350
20
2.614530
11
5.576271
21
2.660608
0
LINE
8
Layer 1
10
5.576271
20
2.660608
11
5.619790
21
2.678529
0
LINE
8
Layer 1
10
5.619790
20
2.678529
11
6.746170
21
2.678530
0
LINE
8
Layer 1
10
6.746170
20
2.678530
11
6.792249
21
2.660609
0
LINE
8
Layer 1
10
6.792249
20
2.660609
11
6.810167
21
2.614530
0
LINE
8
Layer 1
10
6.810167
20
2.614530
11
6.810170
21
2.445580
0
LINE
8
Layer 1
10
6.810170
20
2.445580
11
6.792252
21
2.402061
0
LINE
8
Layer 1
10
6.792252
20
2.402061
11
6.746173
21
2.384140
0
LINE
8
Layer 1
10
6.746173
20
2.384140
11
5.903950
21
2.384140
0
LINE
8
Layer 1
10
5.903950
20
2.384140
11
5.903950
21
1.931020
0
LINE
8
Layer 1
10
5.903950
20
1.931020
11
6.689850
21
1.931020
0
LINE
8
Layer 1
10
6.689850
20
1.931020
11
6.735929
21
1.913099
0
LINE
8
Layer 1
10
6.735929
20
1.913099
11
6.753848
21
1.869580
0
LINE
8
Layer 1
10
6.753848
20
1.869580
11
6.753850
21
1.710870
0
LINE
8
Layer 1
10
6.753850
20
1.710870
11
6.735932
21
1.664792
0
LINE
8
Layer 1
10
6.735932
20
1.664792
11
6.689852
21
1.649439
0
LINE
8
Layer 1
10
6.689852
20
1.649439
11
5.903950
21
1.649430
0
LINE
8
Layer 1
10
5.903950
20
1.649430
11
5.903950
21
1.180960
0
LINE
8
Layer 1
10
5.903950
20
1.180960
11
6.766650
21
1.180960
0
LINE
8
Layer 1
10
6.766650
20
1.180960
11
6.812729
21
1.163039
0
LINE
8
Layer 1
10
6.812729
20
1.163039
11
6.830648
21
1.116961
0
LINE
8
Layer 1
10
6.830648
20
1.116961
11
6.830650
21
0.948008
0
LINE
8
Layer 1
10
6.830650
20
0.948008
11
6.812732
21
0.904486
0
LINE
8
Layer 1
10
6.812732
20
0.904486
11
6.766653
21
0.886565
0
LINE
8
Layer 1
10
6.766653
20
0.886565
11
5.619790
21
0.886565
0
LINE
8
Layer 1
10
8.358940
20
0.860965
11
7.959587
21
0.930084
0
LINE
8
Layer 1
10
7.959587
20
0.930084
11
7.716392
21
1.114400
0
LINE
8
Layer 1
10
7.716392
20
1.114400
11
7.629354
21
1.355037
0
LINE
8
Layer 1
10
7.629354
20
1.355037
11
7.644712
21
1.393436
0
LINE
8
Layer 1
10
7.644712
20
1.393436
11
7.683112
21
1.408789
0
LINE
8
Layer 1
10
7.683112
20
1.408789
11
7.910940
21
1.408790
0
LINE
8
Layer 1
10
7.910940
20
1.408790
11
7.959579
21
1.393437
0
LINE
8
Layer 1
10
7.959579
20
1.393437
11
7.990299
21
1.360158
0
LINE
8
Layer 1
10
7.990299
20
1.360158
11
8.049177
21
1.262878
0
LINE
8
Layer 1
10
8.049177
20
1.262878
11
8.166935
21
1.186080
0
LINE
8
Layer 1
10
8.166935
20
1.186080
11
8.358931
21
1.155360
0
LINE
8
Layer 1
10
8.358931
20
1.155360
11
8.632846
21
1.216800
0
LINE
8
Layer 1
10
8.632846
20
1.216800
11
8.725005
21
1.383195
0
LINE
8
Layer 1
10
8.725005
20
1.383195
11
8.676366
21
1.500955
0
LINE
8
Layer 1
10
8.676366
20
1.500955
11
8.525329
21
1.582873
0
LINE
8
Layer 1
10
8.525329
20
1.582873
11
8.259094
21
1.662231
0
LINE
8
Layer 1
10
8.259094
20
1.662231
11
7.936540
21
1.772309
0
LINE
8
Layer 1
10
7.936540
20
1.772309
11
7.741984
21
1.938707
0
LINE
8
Layer 1
10
7.741984
20
1.938707
11
7.677985
21
2.192142
0
LINE
8
Layer 1
10
7.677985
20
2.192142
11
7.757343
21
2.455816
0
LINE
8
Layer 1
10
7.757343
20
2.455816
11
7.987739
21
2.637573
0
LINE
8
Layer 1
10
7.987739
20
2.637573
11
8.346132
21
2.704132
0
LINE
8
Layer 1
10
8.346132
20
2.704132
11
8.640527
21
2.658051
0
LINE
8
Layer 1
10
8.640527
20
2.658051
11
8.853003
21
2.540294
0
LINE
8
Layer 1
10
8.853003
20
2.540294
11
8.981001
21
2.384138
0
LINE
8
Layer 1
10
8.981001
20
2.384138
11
9.029640
21
2.222859
0
LINE
8
Layer 1
10
9.029640
20
2.222859
11
9.014282
21
2.184460
0
LINE
8
Layer 1
10
9.014282
20
2.184460
11
8.975882
21
2.169107
0
LINE
8
Layer 1
10
8.975882
20
2.169107
11
8.737810
21
2.169110
0
LINE
8
Layer 1
10
8.737810
20
2.169110
11
8.696851
21
2.179355
0
LINE
8
Layer 1
10
8.696851
20
2.179355
11
8.663571
21
2.217754
0
LINE
8
Layer 1
10
8.663571
20
2.217754
11
8.563733
21
2.353432
0
LINE
8
Layer 1
10
8.563733
20
2.353432
11
8.346137
21
2.409749
0
LINE
8
Layer 1
10
8.346137
20
2.409749
11
8.123421
21
2.358551
0
LINE
8
Layer 1
10
8.123421
20
2.358551
11
8.038943
21
2.199835
0
LINE
8
Layer 1
10
8.038943
20
2.199835
11
8.079902
21
2.079515
0
LINE
8
Layer 1
10
8.079902
20
2.079515
11
8.215579
21
1.997597
0
LINE
8
Layer 1
10
8.215579
20
1.997597
11
8.463894
21
1.920799
0
LINE
8
Layer 1
10
8.463894
20
1.920799
11
8.819727
21
1.808161
0
LINE
8
Layer 1
10
8.819727
20
1.808161
11
9.021963
21
1.644325
0
LINE
8
Layer 1
10
9.021963
20
1.644325
11
9.085962
21
1.396009
0
LINE
8
Layer 1
10
9.085962
20
1.396009
11
8.993804
21
1.106734
0
LINE
8
Layer 1
10
8.993804
20
1.106734
11
8.740369
21
0.924977
0
LINE
8
Layer 1
10
8.740369
20
0.924977
11
8.358936
21
0.860978
0
LINE
8
Layer 1
10
8.358936
20
0.860978
11
8.358940
21
0.860965
0
LINE
8
Layer 1
10
9.841140
20
0.886565
11
9.777141
21
0.907054
0
LINE
8
Layer 1
10
9.777141
20
0.907054
11
9.743862
21
0.958255
0
LINE
8
Layer 1
10
9.743862
20
0.958255
11
9.196033
21
2.601745
0
LINE
8
Layer 1
10
9.196033
20
2.601745
11
9.190913
21
2.624774
0
LINE
8
Layer 1
10
9.190913
20
2.624774
11
9.206275
21
2.663173
0
LINE
8
Layer 1
10
9.206275
20
2.663173
11
9.244674
21
2.678526
0
LINE
8
Layer 1
10
9.244674
20
2.678526
11
9.469950
21
2.678530
0
LINE
8
Layer 1
10
9.469950
20
2.678530
11
9.523709
21
2.658041
0
LINE
8
Layer 1
10
9.523709
20
2.658041
11
9.549309
21
2.622201
0
LINE
8
Layer 1
10
9.549309
20
2.622201
11
9.981941
21
1.303831
0
LINE
8
Layer 1
10
9.981941
20
1.303831
11
10.414573
21
2.622201
0
LINE
8
Layer 1
10
10.414573
20
2.622201
11
10.437614
21
2.658041
0
LINE
8
Layer 1
10
10.437614
20
2.658041
11
10.493933
21
2.678530
0
LINE
8
Layer 1
10
10.493933
20
2.678530
11
10.719200
21
2.678530
0
LINE
8
Layer 1
10
10.719200
20
2.678530
11
10.755039
21
2.663177
0
LINE
8
Layer 1
10
10.755039
20
2.663177
11
10.772961
21
2.624778
0
LINE
8
Layer 1
10
10.772961
20
2.624778
11
10.767841
21
2.601749
0
LINE
8
Layer 1
10
10.767841
20
2.601749
11
10.220012
21
0.958259
0
LINE
8
Layer 1
10
10.220012
20
0.958259
11
10.186733
21
0.907058
0
LINE
8
Layer 1
10
10.186733
20
0.907058
11
10.122734
21
0.886569
0
LINE
8
Layer 1
10
10.122734
20
0.886569
11
9.841140
21
0.886565
0
LINE
8
Layer 1
10
11.686900
20
0.860965
11
11.284988
21
0.942883
0
LINE
8
Layer 1
10
11.284988
20
0.942883
11
11.028993
21
1.178400
0
LINE
8
Layer 1
10
11.028993
20
1.178400
11
10.931715
21
1.549592
0
LINE
8
Layer 1
10
10.931715
20
1.549592
11
10.929146
21
1.785106
0
LINE
8
Layer 1
10
10.929146
20
1.785106
11
10.931715
21
2.025743
0
LINE
8
Layer 1
10
10.931715
20
2.025743
11
11.028993
21
2.389256
0
LINE
8
Layer 1
10
11.028993
20
2.389256
11
11.287548
21
2.622211
0
LINE
8
Layer 1
10
11.287548
20
2.622211
11
11.686900
21
2.704131
0
LINE
8
Layer 1
10
11.686900
20
2.704131
11
12.014574
21
2.652931
0
LINE
8
Layer 1
10
12.014574
20
2.652931
11
12.247530
21
2.524935
0
LINE
8
Layer 1
10
12.247530
20
2.524935
11
12.388327
21
2.358537
0
LINE
8
Layer 1
10
12.388327
20
2.358537
11
12.439526
21
2.192142
0
LINE
8
Layer 1
10
12.439526
20
2.192142
11
12.426727
21
2.153740
0
LINE
8
Layer 1
10
12.426727
20
2.153740
11
12.385768
21
2.138387
0
LINE
8
Layer 1
10
12.385768
20
2.138387
11
12.122100
21
2.138390
0
LINE
8
Layer 1
10
12.122100
20
2.138390
11
12.083701
21
2.148635
0
LINE
8
Layer 1
10
12.083701
20
2.148635
11
12.060660
21
2.179355
0
LINE
8
Layer 1
10
12.060660
20
2.179355
11
11.996661
21
2.284313
0
LINE
8
Layer 1
10
11.996661
20
2.284313
11
11.878903
21
2.373910
0
LINE
8
Layer 1
10
11.878903
20
2.373910
11
11.686907
21
2.409749
0
LINE
8
Layer 1
10
11.686907
20
2.409749
11
11.407872
21
2.317592
0
LINE
8
Layer 1
10
11.407872
20
2.317592
11
11.297794
21
2.012959
0
LINE
8
Layer 1
10
11.297794
20
2.012959
11
11.297794
21
1.562406
0
LINE
8
Layer 1
10
11.297794
20
1.562406
11
11.410432
21
1.250093
0
LINE
8
Layer 1
10
11.410432
20
1.250093
11
11.692027
21
1.155374
0
LINE
8
Layer 1
10
11.692027
20
1.155374
11
11.896823
21
1.196333
0
LINE
8
Layer 1
10
11.896823
20
1.196333
11
12.040180
21
1.324332
0
LINE
8
Layer 1
10
12.040180
20
1.324332
11
12.093939
21
1.547047
0
LINE
8
Layer 1
10
12.093939
20
1.547047
11
12.093900
21
1.626400
0
LINE
8
Layer 1
10
12.093900
20
1.626400
11
11.781600
21
1.626400
0
LINE
8
Layer 1
10
11.781600
20
1.626400
11
11.738081
21
1.644321
0
LINE
8
Layer 1
10
11.738081
20
1.644321
11
11.720162
21
1.690400
0
LINE
8
Layer 1
10
11.720162
20
1.690400
11
11.720100
21
1.826080
0
LINE
8
Layer 1
10
11.720100
20
1.826080
11
11.738018
21
1.872158
0
LINE
8
Layer 1
10
11.738018
20
1.872158
11
11.781538
21
1.890079
0
LINE
8
Layer 1
10
11.781538
20
1.890079
11
12.393400
21
1.890080
0
LINE
8
Layer 1
10
12.393400
20
1.890080
11
12.436919
21
1.872159
0
LINE
8
Layer 1
10
12.436919
20
1.872159
11
12.454840
21
1.826080
0
LINE
8
Layer 1
10
12.454840
20
1.826080
11
12.454800
21
1.557280
0
LINE
8
Layer 1
10
12.454800
20
1.557280
11
12.360082
21
1.186088
0
LINE
8
Layer 1
10
12.360082
20
1.186088
11
12.093847
21
0.945451
0
LINE
8
Layer 1
10
12.093847
20
0.945451
11
11.686815
21
0.860974
0
LINE
8
Layer 1
10
11.686815
20
0.860974
11
11.686900
21
0.860965
0
LINE
8
Layer 1
10
13.256100
20
0.860965
11
12.992425
21
0.896804
0
LINE
8
Layer 1
10
12.992425
20
0.896804
11
12.815788
21
0.986404
0
LINE
8
Layer 1
10
12.815788
20
0.986404
11
12.713390
21
1.093922
0
LINE
8
Layer 1
10
12.713390
20
1.093922
11
12.677551
21
1.183519
0
LINE
8
Layer 1
10
12.677551
20
1.183519
11
12.692912
21
1.227038
0
LINE
8
Layer 1
10
12.692912
20
1.227038
11
12.736431
21
1.244959
0
LINE
8
Layer 1
10
12.736431
20
1.244959
11
12.938700
21
1.244960
0
LINE
8
Layer 1
10
12.938700
20
1.244960
11
12.956621
21
1.242420
0
LINE
8
Layer 1
10
12.956621
20
1.242420
11
12.977099
21
1.227067
0
LINE
8
Layer 1
10
12.977099
20
1.227067
11
13.046218
21
1.168190
0
LINE
8
Layer 1
10
13.046218
20
1.168190
11
13.135816
21
1.114429
0
LINE
8
Layer 1
10
13.135816
20
1.114429
11
13.263814
21
1.093940
0
LINE
8
Layer 1
10
13.263814
20
1.093940
11
13.430211
21
1.132339
0
LINE
8
Layer 1
10
13.430211
20
1.132339
11
13.499330
21
1.247536
0
LINE
8
Layer 1
10
13.499330
20
1.247536
11
13.468611
21
1.334574
0
LINE
8
Layer 1
10
13.468611
20
1.334574
11
13.361093
21
1.393454
0
LINE
8
Layer 1
10
13.361093
20
1.393454
11
13.135817
21
1.452331
0
LINE
8
Layer 1
10
13.135817
20
1.452331
11
12.897742
21
1.536811
0
LINE
8
Layer 1
10
12.897742
20
1.536811
11
12.756945
21
1.664807
0
LINE
8
Layer 1
10
12.756945
20
1.664807
11
12.710866
21
1.844004
0
LINE
8
Layer 1
10
12.710866
20
1.844004
11
12.769744
21
2.033440
0
LINE
8
Layer 1
10
12.769744
20
2.033440
11
12.948941
21
2.184477
0
LINE
8
Layer 1
10
12.948941
20
2.184477
11
13.245895
21
2.243357
0
LINE
8
Layer 1
10
13.245895
20
2.243357
11
13.486530
21
2.207518
0
LINE
8
Layer 1
10
13.486530
20
2.207518
11
13.655487
21
2.123040
0
LINE
8
Layer 1
10
13.655487
20
2.123040
11
13.760445
21
2.018082
0
LINE
8
Layer 1
10
13.760445
20
2.018082
11
13.798845
21
1.928482
0
LINE
8
Layer 1
10
13.798845
20
1.928482
11
13.783486
21
1.882404
0
LINE
8
Layer 1
10
13.783486
20
1.882404
11
13.742527
21
1.867051
0
LINE
8
Layer 1
10
13.742527
20
1.867051
11
13.553100
21
1.867050
0
LINE
8
Layer 1
10
13.553100
20
1.867050
11
13.530059
21
1.872158
0
LINE
8
Layer 1
10
13.530059
20
1.872158
11
13.509578
21
1.884971
0
LINE
8
Layer 1
10
13.509578
20
1.884971
11
13.448140
21
1.938732
0
LINE
8
Layer 1
10
13.448140
20
1.938732
11
13.366221
21
1.989930
0
LINE
8
Layer 1
10
13.366221
20
1.989930
11
13.243343
21
2.010419
0
LINE
8
Layer 1
10
13.243343
20
2.010419
11
13.094866
21
1.966897
0
LINE
8
Layer 1
10
13.094866
20
1.966897
11
13.043668
21
1.861939
0
LINE
8
Layer 1
10
13.043668
20
1.861939
11
13.066708
21
1.785141
0
LINE
8
Layer 1
10
13.066708
20
1.785141
11
13.166546
21
1.726264
0
LINE
8
Layer 1
10
13.166546
20
1.726264
11
13.391822
21
1.667384
0
LINE
8
Layer 1
10
13.391822
20
1.667384
11
13.663177
21
1.575227
0
LINE
8
Layer 1
10
13.663177
20
1.575227
11
13.806534
21
1.436989
0
LINE
8
Layer 1
10
13.806534
20
1.436989
11
13.850053
21
1.265471
0
LINE
8
Layer 1
10
13.850053
20
1.265471
11
13.780935
21
1.058117
0
LINE
8
Layer 1
10
13.780935
20
1.058117
11
13.581259
21
0.912200
0
LINE
8
Layer 1
10
13.581259
20
0.912200
11
13.256145
21
0.860999
0
LINE
8
Layer 1
10
13.256145
20
0.860999
11
13.256100
21
0.860965
0
LINE
8
Layer 1
10
15.419300
20
0.860965
11
15.027628
21
0.935203
0
LINE
8
Layer 1
10
15.027628
20
0.935203
11
14.771633
21
1.168160
0
LINE
8
Layer 1
10
14.771633
20
1.168160
11
14.671795
21
1.562391
0
LINE
8
Layer 1
10
14.671795
20
1.562391
11
14.669226
21
1.779987
0
LINE
8
Layer 1
10
14.669226
20
1.779987
11
14.671795
21
2.000142
0
LINE
8
Layer 1
10
14.671795
20
2.000142
11
14.774193
21
2.389257
0
LINE
8
Layer 1
10
14.774193
20
2.389257
11
15.032748
21
2.624771
0
LINE
8
Layer 1
10
15.032748
20
2.624771
11
15.419301
21
2.704131
0
LINE
8
Layer 1
10
15.419301
20
2.704131
11
15.805853
21
2.624771
0
LINE
8
Layer 1
10
15.805853
20
2.624771
11
16.066968
21
2.389257
0
LINE
8
Layer 1
10
16.066968
20
2.389257
11
16.169366
21
2.000142
0
LINE
8
Layer 1
10
16.169366
20
2.000142
11
16.174485
21
1.779986
0
LINE
8
Layer 1
10
16.174485
20
1.779986
11
16.169366
21
1.562390
0
LINE
8
Layer 1
10
16.169366
20
1.562390
11
16.069528
21
1.168160
0
LINE
8
Layer 1
10
16.069528
20
1.168160
11
15.810973
21
0.935203
0
LINE
8
Layer 1
10
15.810973
20
0.935203
11
15.419301
21
0.860965
0
LINE
8
Layer 1
10
15.419301
20
0.860965
11
15.419300
21
0.860965
0
LINE
8
Layer 1
10
15.419300
20
1.155359
11
15.690655
21
1.252638
0
LINE
8
Layer 1
10
15.690655
20
1.252638
11
15.803293
21
1.575192
0
LINE
8
Layer 1
10
15.803293
20
1.575192
11
15.808413
21
1.782546
0
LINE
8
Layer 1
10
15.808413
20
1.782546
11
15.803293
21
1.989903
0
LINE
8
Layer 1
10
15.803293
20
1.989903
11
15.746974
21
2.230540
0
LINE
8
Layer 1
10
15.746974
20
2.230540
11
15.613857
21
2.366215
0
LINE
8
Layer 1
10
15.613857
20
2.366215
11
15.419301
21
2.409734
0
LINE
8
Layer 1
10
15.419301
20
2.409734
11
15.227305
21
2.366215
0
LINE
8
Layer 1
10
15.227305
20
2.366215
11
15.091628
21
2.230540
0
LINE
8
Layer 1
10
15.091628
20
2.230540
11
15.037869
21
1.989903
0
LINE
8
Layer 1
10
15.037869
20
1.989903
11
15.035301
21
1.782546
0
LINE
8
Layer 1
10
15.035301
20
1.782546
11
15.037869
21
1.575192
0
LINE
8
Layer 1
10
15.037869
20
1.575192
11
15.150507
21
1.252638
0
LINE
8
Layer 1
10
15.150507
20
1.252638
11
15.419302
21
1.155359
0
LINE
8
Layer 1
10
15.419302
20
1.155359
11
15.419300
21
1.155359
0
LINE
8
Layer 1
10
16.571200
20
0.886565
11
16.527681
21
0.904486
0
LINE
8
Layer 1
10
16.527681
20
0.904486
11
16.509763
21
0.948008
0
LINE
8
Layer 1
10
16.509763
20
0.948008
11
16.509800
21
2.614530
0
LINE
8
Layer 1
10
16.509800
20
2.614530
11
16.527718
21
2.660608
0
LINE
8
Layer 1
10
16.527718
20
2.660608
11
16.571237
21
2.678529
0
LINE
8
Layer 1
10
16.571237
20
2.678529
11
16.768400
21
2.678530
0
LINE
8
Layer 1
10
16.768400
20
2.678530
11
16.819599
21
2.660609
0
LINE
8
Layer 1
10
16.819599
20
2.660609
11
16.842640
21
2.637580
0
LINE
8
Layer 1
10
16.842640
20
2.637580
11
17.579906
21
1.490720
0
LINE
8
Layer 1
10
17.579906
20
1.490720
11
17.579900
21
2.614540
0
LINE
8
Layer 1
10
17.579900
20
2.614540
11
17.595261
21
2.660618
0
LINE
8
Layer 1
10
17.595261
20
2.660618
11
17.641340
21
2.678539
0
LINE
8
Layer 1
10
17.641340
20
2.678539
11
17.856300
21
2.678540
0
LINE
8
Layer 1
10
17.856300
20
2.678540
11
17.902379
21
2.660619
0
LINE
8
Layer 1
10
17.902379
20
2.660619
11
17.920298
21
2.614540
0
LINE
8
Layer 1
10
17.920298
20
2.614540
11
17.920300
21
0.950576
0
LINE
8
Layer 1
10
17.920300
20
0.950576
11
17.902382
21
0.904495
0
LINE
8
Layer 1
10
17.902382
20
0.904495
11
17.858863
21
0.886574
0
LINE
8
Layer 1
10
17.858863
20
0.886574
11
17.659200
21
0.886574
0
LINE
8
Layer 1
10
17.659200
20
0.886574
11
17.608001
21
0.904495
0
LINE
8
Layer 1
10
17.608001
20
0.904495
11
17.584960
21
0.927524
0
LINE
8
Layer 1
10
17.584960
20
0.927524
11
16.850254
21
2.048784
0
LINE
8
Layer 1
10
16.850254
20
2.048784
11
16.850300
21
0.948005
0
LINE
8
Layer 1
10
16.850300
20
0.948005
11
16.832379
21
0.904483
0
LINE
8
Layer 1
10
16.832379
20
0.904483
11
16.786300
21
0.886562
0
LINE
8
Layer 1
10
16.786300
20
0.886562
11
16.571200
21
0.886565
0
LINE
8
Layer 1
10
19.169600
20
0.886565
11
19.108161
21
0.907054
0
LINE
8
Layer 1
10
19.108161
20
0.907054
11
19.080001
21
0.963375
0
LINE
8
Layer 1
10
19.080001
20
0.963375
11
18.775367
21
2.604305
0
LINE
8
Layer 1
10
18.775367
20
2.604305
11
18.772799
21
2.617089
0
LINE
8
Layer 1
10
18.772799
20
2.617089
11
18.772799
21
2.624766
0
LINE
8
Layer 1
10
18.772799
20
2.624766
11
18.788157
21
2.663165
0
LINE
8
Layer 1
10
18.788157
20
2.663165
11
18.826556
21
2.678518
0
LINE
8
Layer 1
10
18.826556
20
2.678518
11
19.051800
21
2.678520
0
LINE
8
Layer 1
10
19.051800
20
2.678520
11
19.123479
21
2.627319
0
LINE
8
Layer 1
10
19.123479
20
2.627319
11
19.335954
21
1.467659
0
LINE
8
Layer 1
10
19.335954
20
1.467659
11
19.566350
21
2.217723
0
LINE
8
Layer 1
10
19.566350
20
2.217723
11
19.591950
21
2.258682
0
LINE
8
Layer 1
10
19.591950
20
2.258682
11
19.650829
21
2.281712
0
LINE
8
Layer 1
10
19.650829
20
2.281712
11
19.789100
21
2.281710
0
LINE
8
Layer 1
10
19.789100
20
2.281710
11
19.847979
21
2.258681
0
LINE
8
Layer 1
10
19.847979
20
2.258681
11
19.871019
21
2.217722
0
LINE
8
Layer 1
10
19.871019
20
2.217722
11
20.103974
21
1.470218
0
LINE
8
Layer 1
10
20.103974
20
1.470218
11
20.316450
21
2.627318
0
LINE
8
Layer 1
10
20.316450
20
2.627318
11
20.388129
21
2.678518
0
LINE
8
Layer 1
10
20.388129
20
2.678518
11
20.613400
21
2.678520
0
LINE
8
Layer 1
10
20.613400
20
2.678520
11
20.649239
21
2.663167
0
LINE
8
Layer 1
10
20.649239
20
2.663167
11
20.664598
21
2.624768
0
LINE
8
Layer 1
10
20.664598
20
2.624768
11
20.664598
21
2.617092
0
LINE
8
Layer 1
10
20.664598
20
2.617092
11
20.662029
21
2.604307
0
LINE
8
Layer 1
10
20.662029
20
2.604307
11
20.357395
21
0.963377
0
LINE
8
Layer 1
10
20.357395
20
0.963377
11
20.329235
21
0.907057
0
LINE
8
Layer 1
10
20.329235
20
0.907057
11
20.267796
21
0.886567
0
LINE
8
Layer 1
10
20.267796
20
0.886567
11
20.096300
21
0.886565
0
LINE
8
Layer 1
10
20.096300
20
0.886565
11
20.034861
21
0.907054
0
LINE
8
Layer 1
10
20.034861
20
0.907054
11
20.006701
21
0.950576
0
LINE
8
Layer 1
10
20.006701
20
0.950576
11
19.719986
21
1.805599
0
LINE
8
Layer 1
10
19.719986
20
1.805599
11
19.433272
21
0.950576
0
LINE
8
Layer 1
10
19.433272
20
0.950576
11
19.402553
21
0.907054
0
LINE
8
Layer 1
10
19.402553
20
0.907054
11
19.341114
21
0.886565
0
LINE
8
Layer 1
10
19.341114
20
0.886565
11
19.169600
21
0.886565
0
LINE
8
Layer 1
10
21.258500
20
0.886565
11
21.197061
21
0.907054
0
LINE
8
Layer 1
10
21.197061
20
0.907054
11
21.168901
21
0.963375
0
LINE
8
Layer 1
10
21.168901
20
0.963375
11
20.864267
21
2.604305
0
LINE
8
Layer 1
10
20.864267
20
2.604305
11
20.861699
21
2.617089
0
LINE
8
Layer 1
10
20.861699
20
2.617089
11
20.861699
21
2.624766
0
LINE
8
Layer 1
10
20.861699
20
2.624766
11
20.877057
21
2.663165
0
LINE
8
Layer 1
10
20.877057
20
2.663165
11
20.915457
21
2.678518
0
LINE
8
Layer 1
10
20.915457
20
2.678518
11
21.140700
21
2.678520
0
LINE
8
Layer 1
10
21.140700
20
2.678520
11
21.212379
21
2.627319
0
LINE
8
Layer 1
10
21.212379
20
2.627319
11
21.424855
21
1.467659
0
LINE
8
Layer 1
10
21.424855
20
1.467659
11
21.655251
21
2.217723
0
LINE
8
Layer 1
10
21.655251
20
2.217723
11
21.680851
21
2.258682
0
LINE
8
Layer 1
10
21.680851
20
2.258682
11
21.739730
21
2.281712
0
LINE
8
Layer 1
10
21.739730
20
2.281712
11
21.878000
21
2.281710
0
LINE
8
Layer 1
10
21.878000
20
2.281710
11
21.936879
21
2.258681
0
LINE
8
Layer 1
10
21.936879
20
2.258681
11
21.959919
21
2.217722
0
LINE
8
Layer 1
10
21.959919
20
2.217722
11
22.192875
21
1.470218
0
LINE
8
Layer 1
10
22.192875
20
1.470218
11
22.405351
21
2.627318
0
LINE
8
Layer 1
10
22.405351
20
2.627318
11
22.477030
21
2.678518
0
LINE
8
Layer 1
10
22.477030
20
2.678518
11
22.702300
21
2.678520
0
LINE
8
Layer 1
10
22.702300
20
2.678520
11
22.738139
21
2.663167
0
LINE
8
Layer 1
10
22.738139
20
2.663167
11
22.753498
21
2.624768
0
LINE
8
Layer 1
10
22.753498
20
2.624768
11
22.753498
21
2.617092
0
LINE
8
Layer 1
10
22.753498
20
2.617092
11
22.750930
21
2.604307
0
LINE
8
Layer 1
10
22.750930
20
2.604307
11
22.446296
21
0.963377
0
LINE
8
Layer 1
10
22.446296
20
0.963377
11
22.418136
21
0.907057
0
LINE
8
Layer 1
10
22.418136
20
0.907057
11
22.356697
21
0.886567
0
LINE
8
Layer 1
10
22.356697
20
0.886567
11
22.185200
21
0.886565
0
LINE
8
Layer 1
10
22.185200
20
0.886565
11
22.123761
21
0.907054
0
LINE
8
Layer 1
10
22.123761
20
0.907054
11
22.095601
21
0.950576
0
LINE
8
Layer 1
10
22.095601
20
0.950576
11
21.808887
21
1.805599
0
LINE
8
Layer 1
10
21.808887
20
1.805599
11
21.522172
21
0.950576
0
LINE
8
Layer 1
10
21.522172
20
0.950576
11
21.491453
21
0.907054
0
LINE
8
Layer 1
10
21.491453
20
0.907054
11
21.430014
21
0.886565
0
LINE
8
Layer 1
10
21.430014
20
0.886565
11
21.258500
21
0.886565
0
LINE
8
Layer 1
10
23.347400
20
0.886565
11
23.285961
21
0.907054
0
LINE
8
Layer 1
10
23.285961
20
0.907054
11
23.257801
21
0.963375
0
LINE
8
Layer 1
10
23.257801
20
0.963375
11
22.953167
21
2.604305
0
LINE
8
Layer 1
10
22.953167
20
2.604305
11
22.950599
21
2.617089
0
LINE
8
Layer 1
10
22.950599
20
2.617089
11
22.950599
21
2.624766
0
LINE
8
Layer 1
10
22.950599
20
2.624766
11
22.965960
21
2.663165
0
LINE
8
Layer 1
10
22.965960
20
2.663165
11
23.004359
21
2.678518
0
LINE
8
Layer 1
10
23.004359
20
2.678518
11
23.229700
21
2.678520
0
LINE
8
Layer 1
10
23.229700
20
2.678520
11
23.301379
21
2.627319
0
LINE
8
Layer 1
10
23.301379
20
2.627319
11
23.513855
21
1.467659
0
LINE
8
Layer 1
10
23.513855
20
1.467659
11
23.744250
21
2.217723
0
LINE
8
Layer 1
10
23.744250
20
2.217723
11
23.769851
21
2.258682
0
LINE
8
Layer 1
10
23.769851
20
2.258682
11
23.828730
21
2.281712
0
LINE
8
Layer 1
10
23.828730
20
2.281712
11
23.966900
21
2.281710
0
LINE
8
Layer 1
10
23.966900
20
2.281710
11
24.025779
21
2.258681
0
LINE
8
Layer 1
10
24.025779
20
2.258681
11
24.048819
21
2.217722
0
LINE
8
Layer 1
10
24.048819
20
2.217722
11
24.281774
21
1.470218
0
LINE
8
Layer 1
10
24.281774
20
1.470218
11
24.494250
21
2.627318
0
LINE
8
Layer 1
10
24.494250
20
2.627318
11
24.565929
21
2.678518
0
LINE
8
Layer 1
10
24.565929
20
2.678518
11
24.791200
21
2.678520
0
LINE
8
Layer 1
10
24.791200
20
2.678520
11
24.827039
21
2.663167
0
LINE
8
Layer 1
10
24.827039
20
2.663167
11
24.842398
21
2.624768
0
LINE
8
Layer 1
10
24.842398
20
2.624768
11
24.842398
21
2.617092
0
LINE
8
Layer 1
10
24.842398
20
2.617092
11
24.839829
21
2.604307
0
LINE
8
Layer 1
10
24.839829
20
2.604307
11
24.535195
21
0.963377
0
LINE
8
Layer 1
10
24.535195
20
0.963377
11
24.507035
21
0.907057
0
LINE
8
Layer 1
10
24.507035
20
0.907057
11
24.445596
21
0.886567
0
LINE
8
Layer 1
10
24.445596
20
0.886567
11
24.274100
21
0.886565
0
LINE
8
Layer 1
10
24.274100
20
0.886565
11
24.212661
21
0.907054
0
LINE
8
Layer 1
10
24.212661
20
0.907054
11
24.184501
21
0.950576
0
LINE
8
Layer 1
10
24.184501
20
0.950576
11
23.897786
21
1.805599
0
LINE
8
Layer 1
10
23.897786
20
1.805599
11
23.611072
21
0.950576
0
LINE
8
Layer 1
10
23.611072
20
0.950576
11
23.580353
21
0.907054
0
LINE
8
Layer 1
10
23.580353
20
0.907054
11
23.518914
21
0.886565
0
LINE
8
Layer 1
10
23.518914
20
0.886565
11
23.347400
21
0.886565
0
LINE
8
Layer 1
10
25.077900
20
0.886565
11
25.034381
21
0.904486
0
LINE
8
Layer 1
10
25.034381
20
0.904486
11
25.016462
21
0.948008
0
LINE
8
Layer 1
10
25.016462
20
0.948008
11
25.016500
21
1.201440
0
LINE
8
Layer 1
10
25.016500
20
1.201440
11
25.034418
21
1.247521
0
LINE
8
Layer 1
10
25.034418
20
1.247521
11
25.077938
21
1.265442
0
LINE
8
Layer 1
10
25.077938
20
1.265442
11
25.333900
21
1.265440
0
LINE
8
Layer 1
10
25.333900
20
1.265440
11
25.377419
21
1.247519
0
LINE
8
Layer 1
10
25.377419
20
1.247519
11
25.395340
21
1.201438
0
LINE
8
Layer 1
10
25.395340
20
1.201438
11
25.395400
21
0.948008
0
LINE
8
Layer 1
10
25.395400
20
0.948008
11
25.377479
21
0.904486
0
LINE
8
Layer 1
10
25.377479
20
0.904486
11
25.333960
21
0.886565
0
LINE
8
Layer 1
10
25.333960
20
0.886565
11
25.077900
21
0.886565
0
LINE
8
Layer 1
10
26.357900
20
0.860965
11
25.958548
21
0.930084
0
LINE
8
Layer 1
10
25.958548
20
0.930084
11
25.715353
21
1.114400
0
LINE
8
Layer 1
10
25.715353
20
1.114400
11
25.628315
21
1.355037
0
LINE
8
Layer 1
10
25.628315
20
1.355037
11
25.643673
21
1.393436
0
LINE
8
Layer 1
10
25.643673
20
1.393436
11
25.682073
21
1.408789
0
LINE
8
Layer 1
10
25.682073
20
1.408789
11
25.909900
21
1.408790
0
LINE
8
Layer 1
10
25.909900
20
1.408790
11
25.958539
21
1.393437
0
LINE
8
Layer 1
10
25.958539
20
1.393437
11
25.989258
21
1.360158
0
LINE
8
Layer 1
10
25.989258
20
1.360158
11
26.048137
21
1.262878
0
LINE
8
Layer 1
10
26.048137
20
1.262878
11
26.165895
21
1.186080
0
LINE
8
Layer 1
10
26.165895
20
1.186080
11
26.357891
21
1.155360
0
LINE
8
Layer 1
10
26.357891
20
1.155360
11
26.631806
21
1.216800
0
LINE
8
Layer 1
10
26.631806
20
1.216800
11
26.723964
21
1.383195
0
LINE
8
Layer 1
10
26.723964
20
1.383195
11
26.675325
21
1.500955
0
LINE
8
Layer 1
10
26.675325
20
1.500955
11
26.524288
21
1.582873
0
LINE
8
Layer 1
10
26.524288
20
1.582873
11
26.258053
21
1.662231
0
LINE
8
Layer 1
10
26.258053
20
1.662231
11
25.935499
21
1.772309
0
LINE
8
Layer 1
10
25.935499
20
1.772309
11
25.740942
21
1.938707
0
LINE
8
Layer 1
10
25.740942
20
1.938707
11
25.676944
21
2.192142
0
LINE
8
Layer 1
10
25.676944
20
2.192142
11
25.756302
21
2.455816
0
LINE
8
Layer 1
10
25.756302
20
2.455816
11
25.986698
21
2.637573
0
LINE
8
Layer 1
10
25.986698
20
2.637573
11
26.345091
21
2.704132
0
LINE
8
Layer 1
10
26.345091
20
2.704132
11
26.639485
21
2.658051
0
LINE
8
Layer 1
10
26.639485
20
2.658051
11
26.851961
21
2.540294
0
LINE
8
Layer 1
10
26.851961
20
2.540294
11
26.979959
21
2.384138
0
LINE
8
Layer 1
10
26.979959
20
2.384138
11
27.028598
21
2.222859
0
LINE
8
Layer 1
10
27.028598
20
2.222859
11
27.013240
21
2.184460
0
LINE
8
Layer 1
10
27.013240
20
2.184460
11
26.974841
21
2.169107
0
LINE
8
Layer 1
10
26.974841
20
2.169107
11
26.736800
21
2.169110
0
LINE
8
Layer 1
10
26.736800
20
2.169110
11
26.695841
21
2.179355
0
LINE
8
Layer 1
10
26.695841
20
2.179355
11
26.662561
21
2.217754
0
LINE
8
Layer 1
10
26.662561
20
2.217754
11
26.562723
21
2.353432
0
LINE
8
Layer 1
10
26.562723
20
2.353432
11
26.345127
21
2.409749
0
LINE
8
Layer 1
10
26.345127
20
2.409749
11
26.122411
21
2.358551
0
LINE
8
Layer 1
10
26.122411
20
2.358551
11
26.037933
21
2.199835
0
LINE
8
Layer 1
10
26.037933
20
2.199835
11
26.078892
21
2.079515
0
LINE
8
Layer 1
10
26.078892
20
2.079515
11
26.214569
21
1.997597
0
LINE
8
Layer 1
10
26.214569
20
1.997597
11
26.462884
21
1.920799
0
LINE
8
Layer 1
10
26.462884
20
1.920799
11
26.818717
21
1.808161
0
LINE
8
Layer 1
10
26.818717
20
1.808161
11
27.020953
21
1.644325
0
LINE
8
Layer 1
10
27.020953
20
1.644325
11
27.084952
21
1.396009
0
LINE
8
Layer 1
10
27.084952
20
1.396009
11
26.992794
21
1.106734
0
LINE
8
Layer 1
10
26.992794
20
1.106734
11
26.739359
21
0.924977
0
LINE
8
Layer 1
10
26.739359
20
0.924977
11
26.357926
21
0.860978
0
LINE
8
Layer 1
10
26.357926
20
0.860978
11
26.357900
21
0.860965
0
LINE
8
Layer 1
10
27.440800
20
0.886565
11
27.397281
21
0.904486
0
LINE
8
Layer 1
10
27.397281
20
0.904486
11
27.379360
21
0.948008
0
LINE
8
Layer 1
10
27.379360
20
0.948008
11
27.379300
21
2.617090
0
LINE
8
Layer 1
10
27.379300
20
2.617090
11
27.397221
21
2.660609
0
LINE
8
Layer 1
10
27.397221
20
2.660609
11
27.440740
21
2.678530
0
LINE
8
Layer 1
10
27.440740
20
2.678530
11
27.681400
21
2.678530
0
LINE
8
Layer 1
10
27.681400
20
2.678530
11
27.724919
21
2.660609
0
LINE
8
Layer 1
10
27.724919
20
2.660609
11
27.742840
21
2.617090
0
LINE
8
Layer 1
10
27.742840
20
2.617090
11
27.742800
21
0.948008
0
LINE
8
Layer 1
10
27.742800
20
0.948008
11
27.724879
21
0.904486
0
LINE
8
Layer 1
10
27.724879
20
0.904486
11
27.681360
21
0.886565
0
LINE
8
Layer 1
10
27.681360
20
0.886565
11
27.440800
21
0.886565
0
LINE
8
Layer 1
10
28.206200
20
0.886565
11
28.162681
21
0.904486
0
LINE
8
Layer 1
10
28.162681
20
0.904486
11
28.144762
21
0.948008
0
LINE
8
Layer 1
10
28.144762
20
0.948008
11
28.144800
21
2.614530
0
LINE
8
Layer 1
10
28.144800
20
2.614530
11
28.162718
21
2.660608
0
LINE
8
Layer 1
10
28.162718
20
2.660608
11
28.206238
21
2.678529
0
LINE
8
Layer 1
10
28.206238
20
2.678529
11
28.830800
21
2.678530
0
LINE
8
Layer 1
10
28.830800
20
2.678530
11
29.255750
21
2.599172
0
LINE
8
Layer 1
10
29.255750
20
2.599172
11
29.509185
21
2.363655
0
LINE
8
Layer 1
10
29.509185
20
2.363655
11
29.598785
21
1.982224
0
LINE
8
Layer 1
10
29.598785
20
1.982224
11
29.603893
21
1.782546
0
LINE
8
Layer 1
10
29.603893
20
1.782546
11
29.598785
21
1.585431
0
LINE
8
Layer 1
10
29.598785
20
1.585431
11
29.511745
21
1.191198
0
LINE
8
Layer 1
10
29.511745
20
1.191198
11
29.263429
21
0.960803
0
LINE
8
Layer 1
10
29.263429
20
0.960803
11
28.843598
21
0.886564
0
LINE
8
Layer 1
10
28.843598
20
0.886564
11
28.206200
21
0.886565
0
LINE
8
Layer 1
10
28.500596
20
1.180959
11
28.830800
21
1.180960
0
LINE
8
Layer 1
10
28.830800
20
1.180960
11
29.063755
21
1.221919
0
LINE
8
Layer 1
10
29.063755
20
1.221919
11
29.194314
21
1.352478
0
LINE
8
Layer 1
10
29.194314
20
1.352478
11
29.240392
21
1.593112
0
LINE
8
Layer 1
10
29.240392
20
1.593112
11
29.242932
21
1.726230
0
LINE
8
Layer 1
10
29.242932
20
1.726230
11
29.242932
21
1.841427
0
LINE
8
Layer 1
10
29.242932
20
1.841427
11
29.240392
21
1.974545
0
LINE
8
Layer 1
10
29.240392
20
1.974545
11
29.135434
21
2.284298
0
LINE
8
Layer 1
10
29.135434
20
2.284298
11
28.817999
21
2.384137
0
LINE
8
Layer 1
10
28.817999
20
2.384137
11
28.500600
21
2.384140
0
LINE
8
Layer 1
10
28.500600
20
2.384140
11
28.500596
21
1.180959
0
LINE
8
Layer 1
10
30.005800
20
0.886565
11
29.962281
21
0.904486
0
LINE
8
Layer 1
10
29.962281
20
0.904486
11
29.944360
21
0.948008
0
LINE
8
Layer 1
10
29.944360
20
0.948008
11
29.944400
21
2.614530
0
LINE
8
Layer 1
10
29.944400
20
2.614530
11
29.962321
21
2.660608
0
LINE
8
Layer 1
10
29.962321
20
2.660608
11
30.005840
21
2.678529
0
LINE
8
Layer 1
10
30.005840
20
2.678529
11
31.132200
21
2.678530
0
LINE
8
Layer 1
10
31.132200
20
2.678530
11
31.178278
21
2.660609
0
LINE
8
Layer 1
10
31.178278
20
2.660609
11
31.196199
21
2.614530
0
LINE
8
Layer 1
10
31.196199
20
2.614530
11
31.196200
21
2.445580
0
LINE
8
Layer 1
10
31.196200
20
2.445580
11
31.178279
21
2.402061
0
LINE
8
Layer 1
10
31.178279
20
2.402061
11
31.132201
21
2.384140
0
LINE
8
Layer 1
10
31.132201
20
2.384140
11
30.290000
21
2.384140
0
LINE
8
Layer 1
10
30.290000
20
2.384140
11
30.290000
21
1.931020
0
LINE
8
Layer 1
10
30.290000
20
1.931020
11
31.075900
21
1.931020
0
LINE
8
Layer 1
10
31.075900
20
1.931020
11
31.121978
21
1.913099
0
LINE
8
Layer 1
10
31.121978
20
1.913099
11
31.139899
21
1.869580
0
LINE
8
Layer 1
10
31.139899
20
1.869580
11
31.139900
21
1.710870
0
LINE
8
Layer 1
10
31.139900
20
1.710870
11
31.121979
21
1.664792
0
LINE
8
Layer 1
10
31.121979
20
1.664792
11
31.075901
21
1.649439
0
LINE
8
Layer 1
10
31.075901
20
1.649439
11
30.290000
21
1.649430
0
LINE
8
Layer 1
10
30.290000
20
1.649430
11
30.290000
21
1.180960
0
LINE
8
Layer 1
10
30.290000
20
1.180960
11
31.152700
21
1.180960
0
LINE
8
Layer 1
10
31.152700
20
1.180960
11
31.198778
21
1.163039
0
LINE
8
Layer 1
10
31.198778
20
1.163039
11
31.216699
21
1.116961
0
LINE
8
Layer 1
10
31.216699
20
1.116961
11
31.216700
21
0.948008
0
LINE
8
Layer 1
10
31.216700
20
0.948008
11
31.198779
21
0.904486
0
LINE
8
Layer 1
10
31.198779
20
0.904486
11
31.152701
21
0.886565
0
LINE
8
Layer 1
10
31.152701
20
0.886565
11
30.005800
21
0.886565
0
LINE
8
Layer 1
10
32.212500
20
0.860965
11
31.808028
21
0.942883
0
LINE
8
Layer 1
10
31.808028
20
0.942883
11
31.557152
21
1.180960
0
LINE
8
Layer 1
10
31.557152
20
1.180960
11
31.459873
21
1.554712
0
LINE
8
Layer 1
10
31.459873
20
1.554712
11
31.457333
21
1.779987
0
LINE
8
Layer 1
10
31.457333
20
1.779987
11
31.459873
21
2.010385
0
LINE
8
Layer 1
10
31.459873
20
2.010385
11
31.557152
21
2.381577
0
LINE
8
Layer 1
10
31.557152
20
2.381577
11
31.810587
21
2.619651
0
LINE
8
Layer 1
10
31.810587
20
2.619651
11
32.212499
21
2.704131
0
LINE
8
Layer 1
10
32.212499
20
2.704131
11
32.524812
21
2.658050
0
LINE
8
Layer 1
10
32.524812
20
2.658050
11
32.760329
21
2.530054
0
LINE
8
Layer 1
10
32.760329
20
2.530054
11
32.911366
21
2.343178
0
LINE
8
Layer 1
10
32.911366
20
2.343178
11
32.967683
21
2.110221
0
LINE
8
Layer 1
10
32.967683
20
2.110221
11
32.952331
21
2.071822
0
LINE
8
Layer 1
10
32.952331
20
2.071822
11
32.913931
21
2.056469
0
LINE
8
Layer 1
10
32.913931
20
2.056469
11
32.670800
21
2.056470
0
LINE
8
Layer 1
10
32.670800
20
2.056470
11
32.624722
21
2.069283
0
LINE
8
Layer 1
10
32.624722
20
2.069283
11
32.599124
21
2.117921
0
LINE
8
Layer 1
10
32.599124
20
2.117921
11
32.458329
21
2.348319
0
LINE
8
Layer 1
10
32.458329
20
2.348319
11
32.210013
21
2.409756
0
LINE
8
Layer 1
10
32.210013
20
2.409756
11
31.936097
21
2.312480
0
LINE
8
Layer 1
10
31.936097
20
2.312480
11
31.826019
21
1.997605
0
LINE
8
Layer 1
10
31.826019
20
1.997605
11
31.826019
21
1.567533
0
LINE
8
Layer 1
10
31.826019
20
1.567533
11
31.936097
21
1.250101
0
LINE
8
Layer 1
10
31.936097
20
1.250101
11
32.210013
21
1.155381
0
LINE
8
Layer 1
10
32.210013
20
1.155381
11
32.458329
21
1.216821
0
LINE
8
Layer 1
10
32.458329
20
1.216821
11
32.599124
21
1.447216
0
LINE
8
Layer 1
10
32.599124
20
1.447216
11
32.624722
21
1.495854
0
LINE
8
Layer 1
10
32.624722
20
1.495854
11
32.670800
21
1.508667
0
LINE
8
Layer 1
10
32.670800
20
1.508667
11
32.913900
21
1.508660
0
LINE
8
Layer 1
10
32.913900
20
1.508660
11
32.952299
21
1.493307
0
LINE
8
Layer 1
10
32.952299
20
1.493307
11
32.967652
21
1.454908
0
LINE
8
Layer 1
10
32.967652
20
1.454908
11
32.911335
21
1.221953
0
LINE
8
Layer 1
10
32.911335
20
1.221953
11
32.760298
21
1.032517
0
LINE
8
Layer 1
10
32.760298
20
1.032517
11
32.524781
21
0.907078
0
LINE
8
Layer 1
10
32.524781
20
0.907078
11
32.212468
21
0.861000
0
LINE
8
Layer 1
10
32.212468
20
0.861000
11
32.212500
21
0.860965
0
LINE
8
Layer 1
10
33.141800
20
0.886565
11
33.103401
21
0.901918
0
LINE
8
Layer 1
10
33.103401
20
0.901918
11
33.088048
21
0.940317
0
LINE
8
Layer 1
10
33.088048
20
0.940317
11
33.093156
21
0.963346
0
LINE
8
Layer 1
10
33.093156
20
0.963346
11
33.710105
21
2.614516
0
LINE
8
Layer 1
10
33.710105
20
2.614516
11
33.738271
21
2.658035
0
LINE
8
Layer 1
10
33.738271
20
2.658035
11
33.799711
21
2.678524
0
LINE
8
Layer 1
10
33.799711
20
2.678524
11
34.078700
21
2.678520
0
LINE
8
Layer 1
10
34.078700
20
2.678520
11
34.137580
21
2.658031
0
LINE
8
Layer 1
10
34.137580
20
2.658031
11
34.168300
21
2.614512
0
LINE
8
Layer 1
10
34.168300
20
2.614512
11
34.785249
21
0.963342
0
LINE
8
Layer 1
10
34.785249
20
0.963342
11
34.787789
21
0.940313
0
LINE
8
Layer 1
10
34.787789
20
0.940313
11
34.772436
21
0.901914
0
LINE
8
Layer 1
10
34.772436
20
0.901914
11
34.736597
21
0.886561
0
LINE
8
Layer 1
10
34.736597
20
0.886561
11
34.513900
21
0.886565
0
LINE
8
Layer 1
10
34.513900
20
0.886565
11
34.460142
21
0.901918
0
LINE
8
Layer 1
10
34.460142
20
0.901918
11
34.439653
21
0.935198
0
LINE
8
Layer 1
10
34.439653
20
0.935198
11
34.319336
21
1.247513
0
LINE
8
Layer 1
10
34.319336
20
1.247513
11
33.559000
21
1.247510
0
LINE
8
Layer 1
10
33.559000
20
1.247510
11
33.438683
21
0.935195
0
LINE
8
Layer 1
10
33.438683
20
0.935195
11
33.415654
21
0.901915
0
LINE
8
Layer 1
10
33.415654
20
0.901915
11
33.364456
21
0.886562
0
LINE
8
Layer 1
10
33.364456
20
0.886562
11
33.141800
21
0.886565
0
LINE
8
Layer 1
10
33.648671
20
1.541913
11
34.229700
21
1.541910
0
LINE
8
Layer 1
10
34.229700
20
1.541910
11
33.937866
21
2.332933
0
LINE
8
Layer 1
10
33.937866
20
2.332933
11
33.648671
21
1.541913
0
LINE
8
Layer 1
10
35.087300
20
0.886565
11
35.043781
21
0.904486
0
LINE
8
Layer 1
10
35.043781
20
0.904486
11
35.025860
21
0.948008
0
LINE
8
Layer 1
10
35.025860
20
0.948008
11
35.025900
21
2.614530
0
LINE
8
Layer 1
10
35.025900
20
2.614530
11
35.043821
21
2.660608
0
LINE
8
Layer 1
10
35.043821
20
2.660608
11
35.087340
21
2.678529
0
LINE
8
Layer 1
10
35.087340
20
2.678529
11
35.284400
21
2.678530
0
LINE
8
Layer 1
10
35.284400
20
2.678530
11
35.335598
21
2.660609
0
LINE
8
Layer 1
10
35.335598
20
2.660609
11
35.358627
21
2.637580
0
LINE
8
Layer 1
10
35.358627
20
2.637580
11
36.095892
21
1.490720
0
LINE
8
Layer 1
10
36.095892
20
1.490720
11
36.095900
21
2.614540
0
LINE
8
Layer 1
10
36.095900
20
2.614540
11
36.111253
21
2.660618
0
LINE
8
Layer 1
10
36.111253
20
2.660618
11
36.157334
21
2.678539
0
LINE
8
Layer 1
10
36.157334
20
2.678539
11
36.372400
21
2.678540
0
LINE
8
Layer 1
10
36.372400
20
2.678540
11
36.418481
21
2.660619
0
LINE
8
Layer 1
10
36.418481
20
2.660619
11
36.436402
21
2.614540
0
LINE
8
Layer 1
10
36.436402
20
2.614540
11
36.436400
21
0.950576
0
LINE
8
Layer 1
10
36.436400
20
0.950576
11
36.418479
21
0.904495
0
LINE
8
Layer 1
10
36.418479
20
0.904495
11
36.374960
21
0.886574
0
LINE
8
Layer 1
10
36.374960
20
0.886574
11
36.175300
21
0.886574
0
LINE
8
Layer 1
10
36.175300
20
0.886574
11
36.124102
21
0.904495
0
LINE
8
Layer 1
10
36.124102
20
0.904495
11
36.101073
21
0.927524
0
LINE
8
Layer 1
10
36.101073
20
0.927524
11
35.366367
21
2.048784
0
LINE
8
Layer 1
10
35.366367
20
2.048784
11
35.366400
21
0.948005
0
LINE
8
Layer 1
10
35.366400
20
0.948005
11
35.348479
21
0.904483
0
LINE
8
Layer 1
10
35.348479
20
0.904483
11
35.302400
21
0.886562
0
LINE
8
Layer 1
10
35.302400
20
0.886562
11
35.087300
21
0.886565
0
LINE
8
Layer 1
10
37.358000
20
0.886565
11
37.294000
21
0.907054
0
LINE
8
Layer 1
10
37.294000
20
0.907054
11
37.260721
21
0.958255
0
LINE
8
Layer 1
10
37.260721
20
0.958255
11
36.712891
21
2.601745
0
LINE
8
Layer 1
10
36.712891
20
2.601745
11
36.707783
21
2.624774
0
LINE
8
Layer 1
10
36.707783
20
2.624774
11
36.723136
21
2.663173
0
LINE
8
Layer 1
10
36.723136
20
2.663173
11
36.761535
21
2.678526
0
LINE
8
Layer 1
10
36.761535
20
2.678526
11
36.986800
21
2.678530
0
LINE
8
Layer 1
10
36.986800
20
2.678530
11
37.040558
21
2.658041
0
LINE
8
Layer 1
10
37.040558
20
2.658041
11
37.066155
21
2.622201
0
LINE
8
Layer 1
10
37.066155
20
2.622201
11
37.498787
21
1.303831
0
LINE
8
Layer 1
10
37.498787
20
1.303831
11
37.931419
21
2.622201
0
LINE
8
Layer 1
10
37.931419
20
2.622201
11
37.954448
21
2.658041
0
LINE
8
Layer 1
10
37.954448
20
2.658041
11
38.010769
21
2.678530
0
LINE
8
Layer 1
10
38.010769
20
2.678530
11
38.236100
21
2.678530
0
LINE
8
Layer 1
10
38.236100
20
2.678530
11
38.271939
21
2.663177
0
LINE
8
Layer 1
10
38.271939
20
2.663177
11
38.289861
21
2.624778
0
LINE
8
Layer 1
10
38.289861
20
2.624778
11
38.284752
21
2.601749
0
LINE
8
Layer 1
10
38.284752
20
2.601749
11
37.736922
21
0.958259
0
LINE
8
Layer 1
10
37.736922
20
0.958259
11
37.703643
21
0.907058
0
LINE
8
Layer 1
10
37.703643
20
0.907058
11
37.639646
21
0.886569
0
LINE
8
Layer 1
10
37.639646
20
0.886569
11
37.358000
21
0.886565
0
LINE
8
Layer 1
10
38.318000
20
0.886565
11
38.279601
21
0.901918
0
LINE
8
Layer 1
10
38.279601
20
0.901918
11
38.264248
21
0.940317
0
LINE
8
Layer 1
10
38.264248
20
0.940317
11
38.269356
21
0.963346
0
LINE
8
Layer 1
10
38.269356
20
0.963346
11
38.886305
21
2.614516
0
LINE
8
Layer 1
10
38.886305
20
2.614516
11
38.914471
21
2.658035
0
LINE
8
Layer 1
10
38.914471
20
2.658035
11
38.975908
21
2.678524
0
LINE
8
Layer 1
10
38.975908
20
2.678524
11
39.254900
21
2.678520
0
LINE
8
Layer 1
10
39.254900
20
2.678520
11
39.313780
21
2.658031
0
LINE
8
Layer 1
10
39.313780
20
2.658031
11
39.344497
21
2.614512
0
LINE
8
Layer 1
10
39.344497
20
2.614512
11
39.961446
21
0.963342
0
LINE
8
Layer 1
10
39.961446
20
0.963342
11
39.963986
21
0.940313
0
LINE
8
Layer 1
10
39.963986
20
0.940313
11
39.948633
21
0.901914
0
LINE
8
Layer 1
10
39.948633
20
0.901914
11
39.912794
21
0.886561
0
LINE
8
Layer 1
10
39.912794
20
0.886561
11
39.690100
21
0.886565
0
LINE
8
Layer 1
10
39.690100
20
0.886565
11
39.636339
21
0.901918
0
LINE
8
Layer 1
10
39.636339
20
0.901918
11
39.615850
21
0.935198
0
LINE
8
Layer 1
10
39.615850
20
0.935198
11
39.495533
21
1.247513
0
LINE
8
Layer 1
10
39.495533
20
1.247513
11
38.735200
21
1.247510
0
LINE
8
Layer 1
10
38.735200
20
1.247510
11
38.614880
21
0.935195
0
LINE
8
Layer 1
10
38.614880
20
0.935195
11
38.591851
21
0.901915
0
LINE
8
Layer 1
10
38.591851
20
0.901915
11
38.540650
21
0.886562
0
LINE
8
Layer 1
10
38.540650
20
0.886562
11
38.318000
21
0.886565
0
LINE
8
Layer 1
10
38.824871
20
1.541913
11
39.406000
21
1.541910
0
LINE
8
Layer 1
10
39.406000
20
1.541910
11
39.114166
21
2.332933
0
LINE
8
Layer 1
10
39.114166
20
2.332933
11
38.824871
21
1.541913
0
LINE
8
Layer 1
10
40.798600
20
0.860965
11
40.399247
21
0.930084
0
LINE
8
Layer 1
10
40.399247
20
0.930084
11
40.156051
21
1.114400
0
LINE
8
Layer 1
10
40.156051
20
1.114400
11
40.069014
21
1.355037
0
LINE
8
Layer 1
10
40.069014
20
1.355037
11
40.084367
21
1.393436
0
LINE
8
Layer 1
10
40.084367
20
1.393436
11
40.122766
21
1.408789
0
LINE
8
Layer 1
10
40.122766
20
1.408789
11
40.350600
21
1.408790
0
LINE
8
Layer 1
10
40.350600
20
1.408790
11
40.399241
21
1.393437
0
LINE
8
Layer 1
10
40.399241
20
1.393437
11
40.429958
21
1.360158
0
LINE
8
Layer 1
10
40.429958
20
1.360158
11
40.488838
21
1.262878
0
LINE
8
Layer 1
10
40.488838
20
1.262878
11
40.606595
21
1.186080
0
LINE
8
Layer 1
10
40.606595
20
1.186080
11
40.798593
21
1.155360
0
LINE
8
Layer 1
10
40.798593
20
1.155360
11
41.072506
21
1.216800
0
LINE
8
Layer 1
10
41.072506
20
1.216800
11
41.164666
21
1.383195
0
LINE
8
Layer 1
10
41.164666
20
1.383195
11
41.116025
21
1.500955
0
LINE
8
Layer 1
10
41.116025
20
1.500955
11
40.964988
21
1.582873
0
LINE
8
Layer 1
10
40.964988
20
1.582873
11
40.698754
21
1.662231
0
LINE
8
Layer 1
10
40.698754
20
1.662231
11
40.376200
21
1.772309
0
LINE
8
Layer 1
10
40.376200
20
1.772309
11
40.181645
21
1.938707
0
LINE
8
Layer 1
10
40.181645
20
1.938707
11
40.117645
21
2.192142
0
LINE
8
Layer 1
10
40.117645
20
2.192142
11
40.197003
21
2.455816
0
LINE
8
Layer 1
10
40.197003
20
2.455816
11
40.427398
21
2.637573
0
LINE
8
Layer 1
10
40.427398
20
2.637573
11
40.785792
21
2.704132
0
LINE
8
Layer 1
10
40.785792
20
2.704132
11
41.080186
21
2.658051
0
LINE
8
Layer 1
10
41.080186
20
2.658051
11
41.292662
21
2.540294
0
LINE
8
Layer 1
10
41.292662
20
2.540294
11
41.420661
21
2.384138
0
LINE
8
Layer 1
10
41.420661
20
2.384138
11
41.469299
21
2.222859
0
LINE
8
Layer 1
10
41.469299
20
2.222859
11
41.453946
21
2.184460
0
LINE
8
Layer 1
10
41.453946
20
2.184460
11
41.415547
21
2.169107
0
LINE
8
Layer 1
10
41.415547
20
2.169107
11
41.177500
21
2.169110
0
LINE
8
Layer 1
10
41.177500
20
2.169110
11
41.136541
21
2.179355
0
LINE
8
Layer 1
10
41.136541
20
2.179355
11
41.103262
21
2.217754
0
LINE
8
Layer 1
10
41.103262
20
2.217754
11
41.003423
21
2.353432
0
LINE
8
Layer 1
10
41.003423
20
2.353432
11
40.785827
21
2.409749
0
LINE
8
Layer 1
10
40.785827
20
2.409749
11
40.563112
21
2.358551
0
LINE
8
Layer 1
10
40.563112
20
2.358551
11
40.478634
21
2.199835
0
LINE
8
Layer 1
10
40.478634
20
2.199835
11
40.519593
21
2.079515
0
LINE
8
Layer 1
10
40.519593
20
2.079515
11
40.655271
21
1.997597
0
LINE
8
Layer 1
10
40.655271
20
1.997597
11
40.903584
21
1.920799
0
LINE
8
Layer 1
10
40.903584
20
1.920799
11
41.259418
21
1.808161
0
LINE
8
Layer 1
10
41.259418
20
1.808161
11
41.461655
21
1.644325
0
LINE
8
Layer 1
10
41.461655
20
1.644325
11
41.525652
21
1.396009
0
LINE
8
Layer 1
10
41.525652
20
1.396009
11
41.433495
21
1.106734
0
LINE
8
Layer 1
10
41.433495
20
1.106734
11
41.180060
21
0.924977
0
LINE
8
Layer 1
10
41.180060
20
0.924977
11
40.798629
21
0.860978
0
LINE
8
Layer 1
10
40.798629
20
0.860978
11
40.798600
21
0.860965
0
LINE
8
Layer 1
10
41.835300
20
0.886565
11
41.791781
21
0.904486
0
LINE
8
Layer 1
10
41.791781
20
0.904486
11
41.773860
21
0.948008
0
LINE
8
Layer 1
10
41.773860
20
0.948008
11
41.773900
21
1.201440
0
LINE
8
Layer 1
10
41.773900
20
1.201440
11
41.791821
21
1.247521
0
LINE
8
Layer 1
10
41.791821
20
1.247521
11
41.835340
21
1.265442
0
LINE
8
Layer 1
10
41.835340
20
1.265442
11
42.091300
21
1.265440
0
LINE
8
Layer 1
10
42.091300
20
1.265440
11
42.134821
21
1.247519
0
LINE
8
Layer 1
10
42.134821
20
1.247519
11
42.152743
21
1.201438
0
LINE
8
Layer 1
10
42.152743
20
1.201438
11
42.152800
21
0.948008
0
LINE
8
Layer 1
10
42.152800
20
0.948008
11
42.134879
21
0.904486
0
LINE
8
Layer 1
10
42.134879
20
0.904486
11
42.091357
21
0.886565
0
LINE
8
Layer 1
10
42.091357
20
0.886565
11
41.835300
21
0.886565
0
LINE
8
Layer 1
10
43.166500
20
0.860965
11
42.762028
21
0.942883
0
LINE
8
Layer 1
10
42.762028
20
0.942883
11
42.511152
21
1.180960
0
LINE
8
Layer 1
10
42.511152
20
1.180960
11
42.413873
21
1.554712
0
LINE
8
Layer 1
10
42.413873
20
1.554712
11
42.411333
21
1.779987
0
LINE
8
Layer 1
10
42.411333
20
1.779987
11
42.413873
21
2.010385
0
LINE
8
Layer 1
10
42.413873
20
2.010385
11
42.511152
21
2.381577
0
LINE
8
Layer 1
10
42.511152
20
2.381577
11
42.764587
21
2.619651
0
LINE
8
Layer 1
10
42.764587
20
2.619651
11
43.166499
21
2.704131
0
LINE
8
Layer 1
10
43.166499
20
2.704131
11
43.478812
21
2.658050
0
LINE
8
Layer 1
10
43.478812
20
2.658050
11
43.714329
21
2.530054
0
LINE
8
Layer 1
10
43.714329
20
2.530054
11
43.865366
21
2.343178
0
LINE
8
Layer 1
10
43.865366
20
2.343178
11
43.921683
21
2.110221
0
LINE
8
Layer 1
10
43.921683
20
2.110221
11
43.906331
21
2.071822
0
LINE
8
Layer 1
10
43.906331
20
2.071822
11
43.867931
21
2.056469
0
LINE
8
Layer 1
10
43.867931
20
2.056469
11
43.624800
21
2.056470
0
LINE
8
Layer 1
10
43.624800
20
2.056470
11
43.578722
21
2.069283
0
LINE
8
Layer 1
10
43.578722
20
2.069283
11
43.553124
21
2.117921
0
LINE
8
Layer 1
10
43.553124
20
2.117921
11
43.412326
21
2.348319
0
LINE
8
Layer 1
10
43.412326
20
2.348319
11
43.164013
21
2.409756
0
LINE
8
Layer 1
10
43.164013
20
2.409756
11
42.890097
21
2.312480
0
LINE
8
Layer 1
10
42.890097
20
2.312480
11
42.780019
21
1.997605
0
LINE
8
Layer 1
10
42.780019
20
1.997605
11
42.780019
21
1.567533
0
LINE
8
Layer 1
10
42.780019
20
1.567533
11
42.890097
21
1.250101
0
LINE
8
Layer 1
10
42.890097
20
1.250101
11
43.164013
21
1.155381
0
LINE
8
Layer 1
10
43.164013
20
1.155381
11
43.412326
21
1.216821
0
LINE
8
Layer 1
10
43.412326
20
1.216821
11
43.553124
21
1.447216
0
LINE
8
Layer 1
10
43.553124
20
1.447216
11
43.578722
21
1.495854
0
LINE
8
Layer 1
10
43.578722
20
1.495854
11
43.624800
21
1.508667
0
LINE
8
Layer 1
10
43.624800
20
1.508667
11
43.868000
21
1.508660
0
LINE
8
Layer 1
10
43.868000
20
1.508660
11
43.906399
21
1.493307
0
LINE
8
Layer 1
10
43.906399
20
1.493307
11
43.921752
21
1.454908
0
LINE
8
Layer 1
10
43.921752
20
1.454908
11
43.865435
21
1.221953
0
LINE
8
Layer 1
10
43.865435
20
1.221953
11
43.714398
21
1.032517
0
LINE
8
Layer 1
10
43.714398
20
1.032517
11
43.478881
21
0.907078
0
LINE
8
Layer 1
10
43.478881
20
0.907078
11
43.166568
21
0.861000
0
LINE
8
Layer 1
10
43.166568
20
0.861000
11
43.166500
21
0.860965
0
LINE
8
Layer 1
10
44.915000
20
0.860965
11
44.523327
21
0.935203
0
LINE
8
Layer 1
10
44.523327
20
0.935203
11
44.267332
21
1.168160
0
LINE
8
Layer 1
10
44.267332
20
1.168160
11
44.167493
21
1.562391
0
LINE
8
Layer 1
10
44.167493
20
1.562391
11
44.164953
21
1.779987
0
LINE
8
Layer 1
10
44.164953
20
1.779987
11
44.167493
21
2.000142
0
LINE
8
Layer 1
10
44.167493
20
2.000142
11
44.269892
21
2.389257
0
LINE
8
Layer 1
10
44.269892
20
2.389257
11
44.528447
21
2.624771
0
LINE
8
Layer 1
10
44.528447
20
2.624771
11
44.915001
21
2.704131
0
LINE
8
Layer 1
10
44.915001
20
2.704131
11
45.301552
21
2.624771
0
LINE
8
Layer 1
10
45.301552
20
2.624771
11
45.562667
21
2.389257
0
LINE
8
Layer 1
10
45.562667
20
2.389257
11
45.665066
21
2.000142
0
LINE
8
Layer 1
10
45.665066
20
2.000142
11
45.670174
21
1.779986
0
LINE
8
Layer 1
10
45.670174
20
1.779986
11
45.665066
21
1.562390
0
LINE
8
Layer 1
10
45.665066
20
1.562390
11
45.565227
21
1.168160
0
LINE
8
Layer 1
10
45.565227
20
1.168160
11
45.306672
21
0.935203
0
LINE
8
Layer 1
10
45.306672
20
0.935203
11
44.915001
21
0.860965
0
LINE
8
Layer 1
10
44.915001
20
0.860965
11
44.915000
21
0.860965
0
LINE
8
Layer 1
10
44.915000
20
1.155359
11
45.186354
21
1.252638
0
LINE
8
Layer 1
10
45.186354
20
1.252638
11
45.298992
21
1.575192
0
LINE
8
Layer 1
10
45.298992
20
1.575192
11
45.304100
21
1.782546
0
LINE
8
Layer 1
10
45.304100
20
1.782546
11
45.298992
21
1.989903
0
LINE
8
Layer 1
10
45.298992
20
1.989903
11
45.242675
21
2.230540
0
LINE
8
Layer 1
10
45.242675
20
2.230540
11
45.109557
21
2.366215
0
LINE
8
Layer 1
10
45.109557
20
2.366215
11
44.915002
21
2.409734
0
LINE
8
Layer 1
10
44.915002
20
2.409734
11
44.723004
21
2.366215
0
LINE
8
Layer 1
10
44.723004
20
2.366215
11
44.587329
21
2.230540
0
LINE
8
Layer 1
10
44.587329
20
2.230540
11
44.533568
21
1.989903
0
LINE
8
Layer 1
10
44.533568
20
1.989903
11
44.531028
21
1.782546
0
LINE
8
Layer 1
10
44.531028
20
1.782546
11
44.533568
21
1.575192
0
LINE
8
Layer 1
10
44.533568
20
1.575192
11
44.646206
21
1.252638
0
LINE
8
Layer 1
10
44.646206
20
1.252638
11
44.915003
21
1.155359
0
LINE
8
Layer 1
10
44.915003
20
1.155359
11
44.915000
21
1.155359
0
LINE
8
Layer 1
10
46.069500
20
0.886565
11
46.023422
21
0.904486
0
LINE
8
Layer 1
10
46.023422
20
0.904486
11
46.005500
21
0.948008
0
LINE
8
Layer 1
10
46.005500
20
0.948008
11
46.005500
21
2.614530
0
LINE
8
Layer 1
10
46.005500
20
2.614530
11
46.023421
21
2.660608
0
LINE
8
Layer 1
10
46.023421
20
2.660608
11
46.069499
21
2.678529
0
LINE
8
Layer 1
10
46.069499
20
2.678529
11
46.271700
21
2.678530
0
LINE
8
Layer 1
10
46.271700
20
2.678530
11
46.325458
21
2.658041
0
LINE
8
Layer 1
10
46.325458
20
2.658041
11
46.348487
21
2.629875
0
LINE
8
Layer 1
10
46.348487
20
2.629875
11
46.842559
21
1.708293
0
LINE
8
Layer 1
10
46.842559
20
1.708293
11
47.341748
21
2.629875
0
LINE
8
Layer 1
10
47.341748
20
2.629875
11
47.364777
21
2.658041
0
LINE
8
Layer 1
10
47.364777
20
2.658041
11
47.418535
21
2.678530
0
LINE
8
Layer 1
10
47.418535
20
2.678530
11
47.618200
21
2.678530
0
LINE
8
Layer 1
10
47.618200
20
2.678530
11
47.664278
21
2.660609
0
LINE
8
Layer 1
10
47.664278
20
2.660609
11
47.682200
21
2.614530
0
LINE
8
Layer 1
10
47.682200
20
2.614530
11
47.682200
21
0.948008
0
LINE
8
Layer 1
10
47.682200
20
0.948008
11
47.664279
21
0.904486
0
LINE
8
Layer 1
10
47.664279
20
0.904486
11
47.618201
21
0.886565
0
LINE
8
Layer 1
10
47.618201
20
0.886565
11
47.403200
21
0.886565
0
LINE
8
Layer 1
10
47.403200
20
0.886565
11
47.357122
21
0.904486
0
LINE
8
Layer 1
10
47.357122
20
0.904486
11
47.341769
21
0.948008
0
LINE
8
Layer 1
10
47.341769
20
0.948008
11
47.341800
21
2.056470
0
LINE
8
Layer 1
10
47.341800
20
2.056470
11
46.983406
21
1.372962
0
LINE
8
Layer 1
10
46.983406
20
1.372962
11
46.950126
21
1.332003
0
LINE
8
Layer 1
10
46.950126
20
1.332003
11
46.896369
21
1.316650
0
LINE
8
Layer 1
10
46.896369
20
1.316650
11
46.791400
21
1.316650
0
LINE
8
Layer 1
10
46.791400
20
1.316650
11
46.735083
21
1.332003
0
LINE
8
Layer 1
10
46.735083
20
1.332003
11
46.704363
21
1.372962
0
LINE
8
Layer 1
10
46.704363
20
1.372962
11
46.345969
21
2.056470
0
LINE
8
Layer 1
10
46.345969
20
2.056470
11
46.346000
21
0.948008
0
LINE
8
Layer 1
10
46.346000
20
0.948008
11
46.328079
21
0.904486
0
LINE
8
Layer 1
10
46.328079
20
0.904486
11
46.284560
21
0.886565
0
LINE
8
Layer 1
10
46.284560
20
0.886565
11
46.069500
21
0.886565
0
LINE
8
Layer 1
10
3.278610
20
45.366900
11
3.231219
21
45.386416
0
LINE
8
Layer 1
10
3.231219
20
45.386416
11
3.211706
21
45.433807
0
LINE
8
Layer 1
10
3.211706
20
45.433807
11
3.211700
21
46.975400
0
LINE
8
Layer 1
10
3.211700
20
46.975400
11
2.695970
21
46.975400
0
LINE
8
Layer 1
10
2.695970
20
46.975400
11
2.648579
21
46.994914
0
LINE
8
Layer 1
10
2.648579
20
46.994914
11
2.629064
21
47.042305
0
LINE
8
Layer 1
10
2.629064
20
47.042305
11
2.629070
21
47.248600
0
LINE
8
Layer 1
10
2.629070
20
47.248600
11
2.648584
21
47.298779
0
LINE
8
Layer 1
10
2.648584
20
47.298779
11
2.695976
21
47.318293
0
LINE
8
Layer 1
10
2.695976
20
47.318293
11
4.117710
21
47.318300
0
LINE
8
Layer 1
10
4.117710
20
47.318300
11
4.167889
21
47.298786
0
LINE
8
Layer 1
10
4.167889
20
47.298786
11
4.187402
21
47.248607
0
LINE
8
Layer 1
10
4.187402
20
47.248607
11
4.187400
21
47.042300
0
LINE
8
Layer 1
10
4.187400
20
47.042300
11
4.167887
21
46.994909
0
LINE
8
Layer 1
10
4.167887
20
46.994909
11
4.117708
21
46.975395
0
LINE
8
Layer 1
10
4.117708
20
46.975395
11
3.604770
21
46.975400
0
LINE
8
Layer 1
10
3.604770
20
46.975400
11
3.604770
21
45.433800
0
LINE
8
Layer 1
10
3.604770
20
45.433800
11
3.585254
21
45.386409
0
LINE
8
Layer 1
10
3.585254
20
45.386409
11
3.535075
21
45.366893
0
LINE
8
Layer 1
10
3.535075
20
45.366893
11
3.278610
21
45.366900
0
LINE
8
Layer 1
10
4.535870
20
45.366900
11
4.488479
21
45.383627
0
LINE
8
Layer 1
10
4.488479
20
45.383627
11
4.468966
21
45.433806
0
LINE
8
Layer 1
10
4.468966
20
45.433806
11
4.468970
21
47.248600
0
LINE
8
Layer 1
10
4.468970
20
47.248600
11
4.488483
21
47.298779
0
LINE
8
Layer 1
10
4.488483
20
47.298779
11
4.535874
21
47.318293
0
LINE
8
Layer 1
10
4.535874
20
47.318293
11
4.789550
21
47.318300
0
LINE
8
Layer 1
10
4.789550
20
47.318300
11
4.836942
21
47.298786
0
LINE
8
Layer 1
10
4.836942
20
47.298786
11
4.856454
21
47.248607
0
LINE
8
Layer 1
10
4.856454
20
47.248607
11
4.856460
21
46.529300
0
LINE
8
Layer 1
10
4.856460
20
46.529300
11
5.678840
21
46.529300
0
LINE
8
Layer 1
10
5.678840
20
46.529300
11
5.678840
21
47.248600
0
LINE
8
Layer 1
10
5.678840
20
47.248600
11
5.698353
21
47.298779
0
LINE
8
Layer 1
10
5.698353
20
47.298779
11
5.745744
21
47.318293
0
LINE
8
Layer 1
10
5.745744
20
47.318293
11
5.996640
21
47.318300
0
LINE
8
Layer 1
10
5.996640
20
47.318300
11
6.046819
21
47.298786
0
LINE
8
Layer 1
10
6.046819
20
47.298786
11
6.066332
21
47.248607
0
LINE
8
Layer 1
10
6.066332
20
47.248607
11
6.066330
21
45.433800
0
LINE
8
Layer 1
10
6.066330
20
45.433800
11
6.046817
21
45.386409
0
LINE
8
Layer 1
10
6.046817
20
45.386409
11
5.996638
21
45.366893
0
LINE
8
Layer 1
10
5.996638
20
45.366893
11
5.745740
21
45.366900
0
LINE
8
Layer 1
10
5.745740
20
45.366900
11
5.698349
21
45.386416
0
LINE
8
Layer 1
10
5.698349
20
45.386416
11
5.678836
21
45.433807
0
LINE
8
Layer 1
10
5.678836
20
45.433807
11
5.678840
21
46.180900
0
LINE
8
Layer 1
10
5.678840
20
46.180900
11
4.856460
21
46.180900
0
LINE
8
Layer 1
10
4.856460
20
46.180900
11
4.856460
21
45.433800
0
LINE
8
Layer 1
10
4.856460
20
45.433800
11
4.836947
21
45.386409
0
LINE
8
Layer 1
10
4.836947
20
45.386409
11
4.789556
21
45.366893
0
LINE
8
Layer 1
10
4.789556
20
45.366893
11
4.535870
21
45.366900
0
LINE
8
Layer 1
10
6.381340
20
45.366900
11
6.339524
21
45.383627
0
LINE
8
Layer 1
10
6.339524
20
45.383627
11
6.322797
21
45.425443
0
LINE
8
Layer 1
10
6.322797
20
45.425443
11
6.328371
21
45.450533
0
LINE
8
Layer 1
10
6.328371
20
45.450533
11
7.000210
21
47.248600
0
LINE
8
Layer 1
10
7.000210
20
47.248600
11
7.030875
21
47.295991
0
LINE
8
Layer 1
10
7.030875
20
47.295991
11
7.097781
21
47.318293
0
LINE
8
Layer 1
10
7.097781
20
47.318293
11
7.401650
21
47.318300
0
LINE
8
Layer 1
10
7.401650
20
47.318300
11
7.465768
21
47.295998
0
LINE
8
Layer 1
10
7.465768
20
47.295998
11
7.499220
21
47.248607
0
LINE
8
Layer 1
10
7.499220
20
47.248607
11
8.171062
21
45.450527
0
LINE
8
Layer 1
10
8.171062
20
45.450527
11
8.173856
21
45.425437
0
LINE
8
Layer 1
10
8.173856
20
45.425437
11
8.157129
21
45.383621
0
LINE
8
Layer 1
10
8.157129
20
45.383621
11
8.118101
21
45.366894
0
LINE
8
Layer 1
10
8.118101
20
45.366894
11
7.875570
21
45.366900
0
LINE
8
Layer 1
10
7.875570
20
45.366900
11
7.817028
21
45.383627
0
LINE
8
Layer 1
10
7.817028
20
45.383627
11
7.794727
21
45.419868
0
LINE
8
Layer 1
10
7.794727
20
45.419868
11
7.663690
21
45.759900
0
LINE
8
Layer 1
10
7.663690
20
45.759900
11
6.835740
21
45.759900
0
LINE
8
Layer 1
10
6.835740
20
45.759900
11
6.704717
21
45.419797
0
LINE
8
Layer 1
10
6.704717
20
45.419797
11
6.679628
21
45.383557
0
LINE
8
Layer 1
10
6.679628
20
45.383557
11
6.623873
21
45.366829
0
LINE
8
Layer 1
10
6.623873
20
45.366829
11
6.381340
21
45.366900
0
LINE
8
Layer 1
10
6.933310
20
46.080558
11
7.566120
21
46.080500
0
LINE
8
Layer 1
10
7.566120
20
46.080500
11
7.248319
21
46.941908
0
LINE
8
Layer 1
10
7.248319
20
46.941908
11
6.933310
21
46.080558
0
LINE
8
Layer 1
10
8.500010
20
45.366900
11
8.452618
21
45.386416
0
LINE
8
Layer 1
10
8.452618
20
45.386416
11
8.433106
21
45.433807
0
LINE
8
Layer 1
10
8.433106
20
45.433807
11
8.433100
21
47.248600
0
LINE
8
Layer 1
10
8.433100
20
47.248600
11
8.452613
21
47.298779
0
LINE
8
Layer 1
10
8.452613
20
47.298779
11
8.500004
21
47.318293
0
LINE
8
Layer 1
10
8.500004
20
47.318293
11
8.714660
21
47.318300
0
LINE
8
Layer 1
10
8.714660
20
47.318300
11
8.770414
21
47.298786
0
LINE
8
Layer 1
10
8.770414
20
47.298786
11
8.795504
21
47.273696
0
LINE
8
Layer 1
10
8.795504
20
47.273696
11
9.598370
21
46.024800
0
LINE
8
Layer 1
10
9.598370
20
46.024800
11
9.598370
21
47.248600
0
LINE
8
Layer 1
10
9.598370
20
47.248600
11
9.615097
21
47.298779
0
LINE
8
Layer 1
10
9.615097
20
47.298779
11
9.665276
21
47.318293
0
LINE
8
Layer 1
10
9.665276
20
47.318293
11
9.899450
21
47.318300
0
LINE
8
Layer 1
10
9.899450
20
47.318300
11
9.949629
21
47.298786
0
LINE
8
Layer 1
10
9.949629
20
47.298786
11
9.969142
21
47.248607
0
LINE
8
Layer 1
10
9.969142
20
47.248607
11
9.969140
21
45.436600
0
LINE
8
Layer 1
10
9.969140
20
45.436600
11
9.949627
21
45.386421
0
LINE
8
Layer 1
10
9.949627
20
45.386421
11
9.902236
21
45.366905
0
LINE
8
Layer 1
10
9.902236
20
45.366905
11
9.684790
21
45.366900
0
LINE
8
Layer 1
10
9.684790
20
45.366900
11
9.629035
21
45.386416
0
LINE
8
Layer 1
10
9.629035
20
45.386416
11
9.603946
21
45.411505
0
LINE
8
Layer 1
10
9.603946
20
45.411505
11
8.803870
21
46.632500
0
LINE
8
Layer 1
10
8.803870
20
46.632500
11
8.803870
21
45.433800
0
LINE
8
Layer 1
10
8.803870
20
45.433800
11
8.784357
21
45.386409
0
LINE
8
Layer 1
10
8.784357
20
45.386409
11
8.734178
21
45.366893
0
LINE
8
Layer 1
10
8.734178
20
45.366893
11
8.500010
21
45.366900
0
LINE
8
Layer 1
10
10.470900
20
45.366900
11
10.423509
21
45.386416
0
LINE
8
Layer 1
10
10.423509
20
45.386416
11
10.403996
21
45.433807
0
LINE
8
Layer 1
10
10.403996
20
45.433807
11
10.404000
21
47.248600
0
LINE
8
Layer 1
10
10.404000
20
47.248600
11
10.423513
21
47.298779
0
LINE
8
Layer 1
10
10.423513
20
47.298779
11
10.470904
21
47.318293
0
LINE
8
Layer 1
10
10.470904
20
47.318293
11
10.716200
21
47.318300
0
LINE
8
Layer 1
10
10.716200
20
47.318300
11
10.766379
21
47.298786
0
LINE
8
Layer 1
10
10.766379
20
47.298786
11
10.785892
21
47.248607
0
LINE
8
Layer 1
10
10.785892
20
47.248607
11
10.785900
21
46.596300
0
LINE
8
Layer 1
10
10.785900
20
46.596300
11
11.415926
21
47.268142
0
LINE
8
Layer 1
10
11.415926
20
47.268142
11
11.452166
21
47.298807
0
LINE
8
Layer 1
10
11.452166
20
47.298807
11
11.524647
21
47.318321
0
LINE
8
Layer 1
10
11.524647
20
47.318321
11
11.800700
21
47.318300
0
LINE
8
Layer 1
10
11.800700
20
47.318300
11
11.839728
21
47.301574
0
LINE
8
Layer 1
10
11.839728
20
47.301574
11
11.859241
21
47.259758
0
LINE
8
Layer 1
10
11.859241
20
47.259758
11
11.848090
21
47.226305
0
LINE
8
Layer 1
10
11.848090
20
47.226305
11
11.081465
21
46.384411
0
LINE
8
Layer 1
10
11.081465
20
46.384411
11
11.901057
21
45.461673
0
LINE
8
Layer 1
10
11.901057
20
45.461673
11
11.914996
21
45.425432
0
LINE
8
Layer 1
10
11.914996
20
45.425432
11
11.895484
21
45.383617
0
LINE
8
Layer 1
10
11.895484
20
45.383617
11
11.856455
21
45.366889
0
LINE
8
Layer 1
10
11.856455
20
45.366889
11
11.569300
21
45.366900
0
LINE
8
Layer 1
10
11.569300
20
45.366900
11
11.494031
21
45.386416
0
LINE
8
Layer 1
10
11.494031
20
45.386416
11
11.460579
21
45.417080
0
LINE
8
Layer 1
10
11.460579
20
45.417080
11
10.785900
21
46.155800
0
LINE
8
Layer 1
10
10.785900
20
46.155800
11
10.785900
21
45.433800
0
LINE
8
Layer 1
10
10.785900
20
45.433800
11
10.766387
21
45.386409
0
LINE
8
Layer 1
10
10.766387
20
45.386409
11
10.716208
21
45.366893
0
LINE
8
Layer 1
10
10.716208
20
45.366893
11
10.470900
21
45.366900
0
LINE
8
Layer 1
10
13.283700
20
45.366900
11
13.236309
21
45.386416
0
LINE
8
Layer 1
10
13.236309
20
45.386416
11
13.216793
21
45.433807
0
LINE
8
Layer 1
10
13.216793
20
45.433807
11
13.216800
21
46.063800
0
LINE
8
Layer 1
10
13.216800
20
46.063800
11
12.558900
21
47.229100
0
LINE
8
Layer 1
10
12.558900
20
47.229100
11
12.553326
21
47.243039
0
LINE
8
Layer 1
10
12.553326
20
47.243039
11
12.550532
21
47.259765
0
LINE
8
Layer 1
10
12.550532
20
47.259765
11
12.567259
21
47.301581
0
LINE
8
Layer 1
10
12.567259
20
47.301581
11
12.606287
21
47.318308
0
LINE
8
Layer 1
10
12.606287
20
47.318308
11
12.854400
21
47.318300
0
LINE
8
Layer 1
10
12.854400
20
47.318300
11
12.907367
21
47.301574
0
LINE
8
Layer 1
10
12.907367
20
47.301574
11
12.938032
21
47.265333
0
LINE
8
Layer 1
10
12.938032
20
47.265333
11
13.411946
21
46.454104
0
LINE
8
Layer 1
10
13.411946
20
46.454104
11
13.883072
21
47.265333
0
LINE
8
Layer 1
10
13.883072
20
47.265333
11
13.913737
21
47.301574
0
LINE
8
Layer 1
10
13.913737
20
47.301574
11
13.969491
21
47.318300
0
LINE
8
Layer 1
10
13.969491
20
47.318300
11
14.214800
21
47.318300
0
LINE
8
Layer 1
10
14.214800
20
47.318300
11
14.256616
21
47.301574
0
LINE
8
Layer 1
10
14.256616
20
47.301574
11
14.273343
21
47.259758
0
LINE
8
Layer 1
10
14.273343
20
47.259758
11
14.270549
21
47.243031
0
LINE
8
Layer 1
10
14.270549
20
47.243031
11
14.264975
21
47.229092
0
LINE
8
Layer 1
10
14.264975
20
47.229092
11
13.607100
21
46.063800
0
LINE
8
Layer 1
10
13.607100
20
46.063800
11
13.607100
21
45.433800
0
LINE
8
Layer 1
10
13.607100
20
45.433800
11
13.587587
21
45.386409
0
LINE
8
Layer 1
10
13.587587
20
45.386409
11
13.537408
21
45.366893
0
LINE
8
Layer 1
10
13.537408
20
45.366893
11
13.283700
21
45.366900
0
LINE
8
Layer 1
10
15.218400
20
45.339000
11
14.791878
21
45.419844
0
LINE
8
Layer 1
10
14.791878
20
45.419844
11
14.513105
21
45.673527
0
LINE
8
Layer 1
10
14.513105
20
45.673527
11
14.404383
21
46.102837
0
LINE
8
Layer 1
10
14.404383
20
46.102837
11
14.401589
21
46.339794
0
LINE
8
Layer 1
10
14.401589
20
46.339794
11
14.404383
21
46.579538
0
LINE
8
Layer 1
10
14.404383
20
46.579538
11
14.515892
21
47.003272
0
LINE
8
Layer 1
10
14.515892
20
47.003272
11
14.797452
21
47.259743
0
LINE
8
Layer 1
10
14.797452
20
47.259743
11
15.218399
21
47.346162
0
LINE
8
Layer 1
10
15.218399
20
47.346162
11
15.639346
21
47.259743
0
LINE
8
Layer 1
10
15.639346
20
47.259743
11
15.923694
21
47.003272
0
LINE
8
Layer 1
10
15.923694
20
47.003272
11
16.035203
21
46.579538
0
LINE
8
Layer 1
10
16.035203
20
46.579538
11
16.040780
21
46.339794
0
LINE
8
Layer 1
10
16.040780
20
46.339794
11
16.035203
21
46.102837
0
LINE
8
Layer 1
10
16.035203
20
46.102837
11
15.926482
21
45.673527
0
LINE
8
Layer 1
10
15.926482
20
45.673527
11
15.644922
21
45.419844
0
LINE
8
Layer 1
10
15.644922
20
45.419844
11
15.218400
21
45.339000
0
LINE
8
Layer 1
10
15.218400
20
45.339000
11
15.218400
21
45.339000
0
LINE
8
Layer 1
10
15.218400
20
45.659588
11
15.513899
21
45.765522
0
LINE
8
Layer 1
10
15.513899
20
45.765522
11
15.636559
21
46.116776
0
LINE
8
Layer 1
10
15.636559
20
46.116776
11
15.642133
21
46.342582
0
LINE
8
Layer 1
10
15.642133
20
46.342582
11
15.636559
21
46.568388
0
LINE
8
Layer 1
10
15.636559
20
46.568388
11
15.575200
21
46.830400
0
LINE
8
Layer 1
10
15.575200
20
46.830400
11
15.430300
21
46.978200
0
LINE
8
Layer 1
10
15.430300
20
46.978200
11
15.218400
21
47.025600
0
LINE
8
Layer 1
10
15.218400
20
47.025600
11
15.009320
21
46.978209
0
LINE
8
Layer 1
10
15.009320
20
46.978209
11
14.861571
21
46.830459
0
LINE
8
Layer 1
10
14.861571
20
46.830459
11
14.803029
21
46.568413
0
LINE
8
Layer 1
10
14.803029
20
46.568413
11
14.800235
21
46.342607
0
LINE
8
Layer 1
10
14.800235
20
46.342607
11
14.803029
21
46.116801
0
LINE
8
Layer 1
10
14.803029
20
46.116801
11
14.925689
21
45.765547
0
LINE
8
Layer 1
10
14.925689
20
45.765547
11
15.218400
21
45.659613
0
LINE
8
Layer 1
10
15.218400
20
45.659613
11
15.218400
21
45.659588
0
LINE
8
Layer 1
10
17.183800
20
45.339000
11
16.762853
21
45.419844
0
LINE
8
Layer 1
10
16.762853
20
45.419844
11
16.486800
21
45.673500
0
LINE
8
Layer 1
10
16.486800
20
45.673500
11
16.389300
21
46.114000
0
LINE
8
Layer 1
10
16.389300
20
46.114000
11
16.389300
21
47.248600
0
LINE
8
Layer 1
10
16.389300
20
47.248600
11
16.408813
21
47.298779
0
LINE
8
Layer 1
10
16.408813
20
47.298779
11
16.456204
21
47.318293
0
LINE
8
Layer 1
10
16.456204
20
47.318293
11
16.709800
21
47.318300
0
LINE
8
Layer 1
10
16.709800
20
47.318300
11
16.757192
21
47.298786
0
LINE
8
Layer 1
10
16.757192
20
47.298786
11
16.776704
21
47.248607
0
LINE
8
Layer 1
10
16.776704
20
47.248607
11
16.776700
21
46.114000
0
LINE
8
Layer 1
10
16.776700
20
46.114000
11
16.885422
21
45.773897
0
LINE
8
Layer 1
10
16.885422
20
45.773897
11
17.183709
21
45.665176
0
LINE
8
Layer 1
10
17.183709
20
45.665176
11
17.479208
21
45.773897
0
LINE
8
Layer 1
10
17.479208
20
45.773897
11
17.587929
21
46.114000
0
LINE
8
Layer 1
10
17.587929
20
46.114000
11
17.588000
21
47.248600
0
LINE
8
Layer 1
10
17.588000
20
47.248600
11
17.607513
21
47.298779
0
LINE
8
Layer 1
10
17.607513
20
47.298779
11
17.657692
21
47.318293
0
LINE
8
Layer 1
10
17.657692
20
47.318293
11
17.908600
21
47.318300
0
LINE
8
Layer 1
10
17.908600
20
47.318300
11
17.955991
21
47.298786
0
LINE
8
Layer 1
10
17.955991
20
47.298786
11
17.975504
21
47.248607
0
LINE
8
Layer 1
10
17.975504
20
47.248607
11
17.975500
21
46.114000
0
LINE
8
Layer 1
10
17.975500
20
46.114000
11
17.877929
21
45.673539
0
LINE
8
Layer 1
10
17.877929
20
45.673539
11
17.604732
21
45.419856
0
LINE
8
Layer 1
10
17.604732
20
45.419856
11
17.183785
21
45.339012
0
LINE
8
Layer 1
10
17.183785
20
45.339012
11
17.183800
21
45.339000
0
LINE
8
Layer 1
10
19.098900
20
45.366900
11
19.051509
21
45.386416
0
LINE
8
Layer 1
10
19.051509
20
45.386416
11
19.031993
21
45.433807
0
LINE
8
Layer 1
10
19.031993
20
45.433807
11
19.032000
21
47.248600
0
LINE
8
Layer 1
10
19.032000
20
47.248600
11
19.051516
21
47.298779
0
LINE
8
Layer 1
10
19.051516
20
47.298779
11
19.098907
21
47.318293
0
LINE
8
Layer 1
10
19.098907
20
47.318293
11
20.308800
21
47.318300
0
LINE
8
Layer 1
10
20.308800
20
47.318300
11
20.358979
21
47.298786
0
LINE
8
Layer 1
10
20.358979
20
47.298786
11
20.378495
21
47.248607
0
LINE
8
Layer 1
10
20.378495
20
47.248607
11
20.378500
21
47.053400
0
LINE
8
Layer 1
10
20.378500
20
47.053400
11
20.358984
21
47.003221
0
LINE
8
Layer 1
10
20.358984
20
47.003221
11
20.308805
21
46.986494
0
LINE
8
Layer 1
10
20.308805
20
46.986494
11
19.413900
21
46.986500
0
LINE
8
Layer 1
10
19.413900
20
46.986500
11
19.413900
21
46.456900
0
LINE
8
Layer 1
10
19.413900
20
46.456900
11
20.253000
21
46.456900
0
LINE
8
Layer 1
10
20.253000
20
46.456900
11
20.303179
21
46.437386
0
LINE
8
Layer 1
10
20.303179
20
46.437386
11
20.322692
21
46.387207
0
LINE
8
Layer 1
10
20.322692
20
46.387207
11
20.322700
21
46.192000
0
LINE
8
Layer 1
10
20.322700
20
46.192000
11
20.303187
21
46.144609
0
LINE
8
Layer 1
10
20.303187
20
46.144609
11
20.253008
21
46.125094
0
LINE
8
Layer 1
10
20.253008
20
46.125094
11
19.413900
21
46.125100
0
LINE
8
Layer 1
10
19.413900
20
46.125100
11
19.413900
21
45.433800
0
LINE
8
Layer 1
10
19.413900
20
45.433800
11
19.394387
21
45.386409
0
LINE
8
Layer 1
10
19.394387
20
45.386409
11
19.344208
21
45.366893
0
LINE
8
Layer 1
10
19.344208
20
45.366893
11
19.098900
21
45.366900
0
LINE
8
Layer 1
10
21.443400
20
45.339000
11
21.016878
21
45.419844
0
LINE
8
Layer 1
10
21.016878
20
45.419844
11
20.738105
21
45.673527
0
LINE
8
Layer 1
10
20.738105
20
45.673527
11
20.629383
21
46.102837
0
LINE
8
Layer 1
10
20.629383
20
46.102837
11
20.626589
21
46.339794
0
LINE
8
Layer 1
10
20.626589
20
46.339794
11
20.629383
21
46.579538
0
LINE
8
Layer 1
10
20.629383
20
46.579538
11
20.740892
21
47.003272
0
LINE
8
Layer 1
10
20.740892
20
47.003272
11
21.022452
21
47.259743
0
LINE
8
Layer 1
10
21.022452
20
47.259743
11
21.443399
21
47.346162
0
LINE
8
Layer 1
10
21.443399
20
47.346162
11
21.864346
21
47.259743
0
LINE
8
Layer 1
10
21.864346
20
47.259743
11
22.148694
21
47.003272
0
LINE
8
Layer 1
10
22.148694
20
47.003272
11
22.260203
21
46.579538
0
LINE
8
Layer 1
10
22.260203
20
46.579538
11
22.265780
21
46.339794
0
LINE
8
Layer 1
10
22.265780
20
46.339794
11
22.260203
21
46.102837
0
LINE
8
Layer 1
10
22.260203
20
46.102837
11
22.151481
21
45.673527
0
LINE
8
Layer 1
10
22.151481
20
45.673527
11
21.869921
21
45.419844
0
LINE
8
Layer 1
10
21.869921
20
45.419844
11
21.443399
21
45.339000
0
LINE
8
Layer 1
10
21.443399
20
45.339000
11
21.443400
21
45.339000
0
LINE
8
Layer 1
10
21.443400
20
45.659588
11
21.738899
21
45.765522
0
LINE
8
Layer 1
10
21.738899
20
45.765522
11
21.861559
21
46.116776
0
LINE
8
Layer 1
10
21.861559
20
46.116776
11
21.867136
21
46.342582
0
LINE
8
Layer 1
10
21.867136
20
46.342582
11
21.861559
21
46.568388
0
LINE
8
Layer 1
10
21.861559
20
46.568388
11
21.800200
21
46.830400
0
LINE
8
Layer 1
10
21.800200
20
46.830400
11
21.655300
21
46.978200
0
LINE
8
Layer 1
10
21.655300
20
46.978200
11
21.443400
21
47.025600
0
LINE
8
Layer 1
10
21.443400
20
47.025600
11
21.234321
21
46.978209
0
LINE
8
Layer 1
10
21.234321
20
46.978209
11
21.086571
21
46.830459
0
LINE
8
Layer 1
10
21.086571
20
46.830459
11
21.028029
21
46.568413
0
LINE
8
Layer 1
10
21.028029
20
46.568413
11
21.025235
21
46.342607
0
LINE
8
Layer 1
10
21.025235
20
46.342607
11
21.028029
21
46.116801
0
LINE
8
Layer 1
10
21.028029
20
46.116801
11
21.150689
21
45.765547
0
LINE
8
Layer 1
10
21.150689
20
45.765547
11
21.443400
21
45.659613
0
LINE
8
Layer 1
10
21.443400
20
45.659613
11
21.443400
21
45.659588
0
LINE
8
Layer 1
10
22.697900
20
45.366900
11
22.650509
21
45.386416
0
LINE
8
Layer 1
10
22.650509
20
45.386416
11
22.630996
21
45.433807
0
LINE
8
Layer 1
10
22.630996
20
45.433807
11
22.631000
21
47.248600
0
LINE
8
Layer 1
10
22.631000
20
47.248600
11
22.650513
21
47.298779
0
LINE
8
Layer 1
10
22.650513
20
47.298779
11
22.697904
21
47.318293
0
LINE
8
Layer 1
10
22.697904
20
47.318293
11
23.419900
21
47.318300
0
LINE
8
Layer 1
10
23.419900
20
47.318300
11
23.952356
21
47.162187
0
LINE
8
Layer 1
10
23.952356
20
47.162187
11
24.147497
21
46.707788
0
LINE
8
Layer 1
10
24.147497
20
46.707788
11
24.044351
21
46.364898
0
LINE
8
Layer 1
10
24.044351
20
46.364898
11
23.773941
21
46.166969
0
LINE
8
Layer 1
10
23.773941
20
46.166969
11
24.180949
21
45.456099
0
LINE
8
Layer 1
10
24.180949
20
45.456099
11
24.189311
21
45.425434
0
LINE
8
Layer 1
10
24.189311
20
45.425434
11
24.169798
21
45.383618
0
LINE
8
Layer 1
10
24.169798
20
45.383618
11
24.130770
21
45.366891
0
LINE
8
Layer 1
10
24.130770
20
45.366891
11
23.877100
21
45.366900
0
LINE
8
Layer 1
10
23.877100
20
45.366900
11
23.804619
21
45.391990
0
LINE
8
Layer 1
10
23.804619
20
45.391990
11
23.765591
21
45.442169
0
LINE
8
Layer 1
10
23.765591
20
45.442169
11
23.406000
21
46.102800
0
LINE
8
Layer 1
10
23.406000
20
46.102800
11
23.018500
21
46.102800
0
LINE
8
Layer 1
10
23.018500
20
46.102800
11
23.018500
21
45.433800
0
LINE
8
Layer 1
10
23.018500
20
45.433800
11
22.998987
21
45.386409
0
LINE
8
Layer 1
10
22.998987
20
45.386409
11
22.951596
21
45.366893
0
LINE
8
Layer 1
10
22.951596
20
45.366893
11
22.697900
21
45.366900
0
LINE
8
Layer 1
10
23.018489
20
46.417870
11
23.411500
21
46.417800
0
LINE
8
Layer 1
10
23.411500
20
46.417800
11
23.665183
21
46.493069
0
LINE
8
Layer 1
10
23.665183
20
46.493069
11
23.748815
21
46.710512
0
LINE
8
Layer 1
10
23.748815
20
46.710512
11
23.665183
21
46.927955
0
LINE
8
Layer 1
10
23.665183
20
46.927955
11
23.411500
21
47.008799
0
LINE
8
Layer 1
10
23.411500
20
47.008799
11
23.018500
21
47.008800
0
LINE
8
Layer 1
10
23.018500
20
47.008800
11
23.018489
21
46.417870
0
LINE
8
Layer 1
10
25.212400
20
45.366900
11
25.165009
21
45.386416
0
LINE
8
Layer 1
10
25.165009
20
45.386416
11
25.145496
21
45.433807
0
LINE
8
Layer 1
10
25.145496
20
45.433807
11
25.145500
21
47.248600
0
LINE
8
Layer 1
10
25.145500
20
47.248600
11
25.165013
21
47.298779
0
LINE
8
Layer 1
10
25.165013
20
47.298779
11
25.212404
21
47.318293
0
LINE
8
Layer 1
10
25.212404
20
47.318293
11
25.892600
21
47.318300
0
LINE
8
Layer 1
10
25.892600
20
47.318300
11
26.355363
21
47.231881
0
LINE
8
Layer 1
10
26.355363
20
47.231881
11
26.631348
21
46.975410
0
LINE
8
Layer 1
10
26.631348
20
46.975410
11
26.728919
21
46.560039
0
LINE
8
Layer 1
10
26.728919
20
46.560039
11
26.734495
21
46.342596
0
LINE
8
Layer 1
10
26.734495
20
46.342596
11
26.728919
21
46.127941
0
LINE
8
Layer 1
10
26.728919
20
46.127941
11
26.634136
21
45.698631
0
LINE
8
Layer 1
10
26.634136
20
45.698631
11
26.363727
21
45.447736
0
LINE
8
Layer 1
10
26.363727
20
45.447736
11
25.906540
21
45.366891
0
LINE
8
Layer 1
10
25.906540
20
45.366891
11
25.212400
21
45.366900
0
LINE
8
Layer 1
10
25.532989
20
45.687489
11
25.892600
21
45.687500
0
LINE
8
Layer 1
10
25.892600
20
45.687500
11
26.146283
21
45.732104
0
LINE
8
Layer 1
10
26.146283
20
45.732104
11
26.288457
21
45.874278
0
LINE
8
Layer 1
10
26.288457
20
45.874278
11
26.338636
21
46.136324
0
LINE
8
Layer 1
10
26.338636
20
46.136324
11
26.341430
21
46.281286
0
LINE
8
Layer 1
10
26.341430
20
46.281286
11
26.341430
21
46.406734
0
LINE
8
Layer 1
10
26.341430
20
46.406734
11
26.338636
21
46.551696
0
LINE
8
Layer 1
10
26.338636
20
46.551696
11
26.224300
21
46.889000
0
LINE
8
Layer 1
10
26.224300
20
46.889000
11
25.878700
21
46.997700
0
LINE
8
Layer 1
10
25.878700
20
46.997700
11
25.533000
21
46.997700
0
LINE
8
Layer 1
10
25.533000
20
46.997700
11
25.532989
21
45.687489
0
LINE
8
Layer 1
10
27.855200
20
45.339000
11
27.428678
21
45.419844
0
LINE
8
Layer 1
10
27.428678
20
45.419844
11
27.149905
21
45.673527
0
LINE
8
Layer 1
10
27.149905
20
45.673527
11
27.041184
21
46.102837
0
LINE
8
Layer 1
10
27.041184
20
46.102837
11
27.038390
21
46.339794
0
LINE
8
Layer 1
10
27.038390
20
46.339794
11
27.041184
21
46.579538
0
LINE
8
Layer 1
10
27.041184
20
46.579538
11
27.152693
21
47.003272
0
LINE
8
Layer 1
10
27.152693
20
47.003272
11
27.434253
21
47.259743
0
LINE
8
Layer 1
10
27.434253
20
47.259743
11
27.855200
21
47.346162
0
LINE
8
Layer 1
10
27.855200
20
47.346162
11
28.276147
21
47.259743
0
LINE
8
Layer 1
10
28.276147
20
47.259743
11
28.560494
21
47.003272
0
LINE
8
Layer 1
10
28.560494
20
47.003272
11
28.672003
21
46.579538
0
LINE
8
Layer 1
10
28.672003
20
46.579538
11
28.677591
21
46.339794
0
LINE
8
Layer 1
10
28.677591
20
46.339794
11
28.672003
21
46.102837
0
LINE
8
Layer 1
10
28.672003
20
46.102837
11
28.563283
21
45.673527
0
LINE
8
Layer 1
10
28.563283
20
45.673527
11
28.281724
21
45.419844
0
LINE
8
Layer 1
10
28.281724
20
45.419844
11
27.855200
21
45.339000
0
LINE
8
Layer 1
10
27.855200
20
45.339000
11
27.855200
21
45.339000
0
LINE
8
Layer 1
10
27.855200
20
45.659588
11
28.150699
21
45.765522
0
LINE
8
Layer 1
10
28.150699
20
45.765522
11
28.273358
21
46.116776
0
LINE
8
Layer 1
10
28.273358
20
46.116776
11
28.278946
21
46.342582
0
LINE
8
Layer 1
10
28.278946
20
46.342582
11
28.273358
21
46.568388
0
LINE
8
Layer 1
10
28.273358
20
46.568388
11
28.212000
21
46.830400
0
LINE
8
Layer 1
10
28.212000
20
46.830400
11
28.067000
21
46.978200
0
LINE
8
Layer 1
10
28.067000
20
46.978200
11
27.855200
21
47.025600
0
LINE
8
Layer 1
10
27.855200
20
47.025600
11
27.646121
21
46.978209
0
LINE
8
Layer 1
10
27.646121
20
46.978209
11
27.498372
21
46.830459
0
LINE
8
Layer 1
10
27.498372
20
46.830459
11
27.439830
21
46.568413
0
LINE
8
Layer 1
10
27.439830
20
46.568413
11
27.437036
21
46.342607
0
LINE
8
Layer 1
10
27.437036
20
46.342607
11
27.439830
21
46.116801
0
LINE
8
Layer 1
10
27.439830
20
46.116801
11
27.562490
21
45.765547
0
LINE
8
Layer 1
10
27.562490
20
45.765547
11
27.855201
21
45.659613
0
LINE
8
Layer 1
10
27.855201
20
45.659613
11
27.855200
21
45.659588
0
LINE
8
Layer 1
10
29.341000
20
45.366900
11
29.274097
21
45.389201
0
LINE
8
Layer 1
10
29.274097
20
45.389201
11
29.243430
21
45.450531
0
LINE
8
Layer 1
10
29.243430
20
45.450531
11
28.911692
21
47.237461
0
LINE
8
Layer 1
10
28.911692
20
47.237461
11
28.908870
21
47.251400
0
LINE
8
Layer 1
10
28.908870
20
47.251400
11
28.908870
21
47.259763
0
LINE
8
Layer 1
10
28.908870
20
47.259763
11
28.925606
21
47.301579
0
LINE
8
Layer 1
10
28.925606
20
47.301579
11
28.967423
21
47.318305
0
LINE
8
Layer 1
10
28.967423
20
47.318305
11
29.212800
21
47.318300
0
LINE
8
Layer 1
10
29.212800
20
47.318300
11
29.290854
21
47.262546
0
LINE
8
Layer 1
10
29.290854
20
47.262546
11
29.522237
21
45.999706
0
LINE
8
Layer 1
10
29.522237
20
45.999706
11
29.773132
21
46.816510
0
LINE
8
Layer 1
10
29.773132
20
46.816510
11
29.801016
21
46.861113
0
LINE
8
Layer 1
10
29.801016
20
46.861113
11
29.865134
21
46.886203
0
LINE
8
Layer 1
10
29.865134
20
46.886203
11
30.015600
21
46.886200
0
LINE
8
Layer 1
10
30.015600
20
46.886200
11
30.079718
21
46.861111
0
LINE
8
Layer 1
10
30.079718
20
46.861111
11
30.104807
21
46.816507
0
LINE
8
Layer 1
10
30.104807
20
46.816507
11
30.358488
21
46.002491
0
LINE
8
Layer 1
10
30.358488
20
46.002491
11
30.589872
21
47.262541
0
LINE
8
Layer 1
10
30.589872
20
47.262541
11
30.667929
21
47.318295
0
LINE
8
Layer 1
10
30.667929
20
47.318295
11
30.913300
21
47.318300
0
LINE
8
Layer 1
10
30.913300
20
47.318300
11
30.952329
21
47.301574
0
LINE
8
Layer 1
10
30.952329
20
47.301574
11
30.969064
21
47.259758
0
LINE
8
Layer 1
10
30.969064
20
47.259758
11
30.969064
21
47.251395
0
LINE
8
Layer 1
10
30.969064
20
47.251395
11
30.966242
21
47.237456
0
LINE
8
Layer 1
10
30.966242
20
47.237456
11
30.634501
21
45.450526
0
LINE
8
Layer 1
10
30.634501
20
45.450526
11
30.603838
21
45.389196
0
LINE
8
Layer 1
10
30.603838
20
45.389196
11
30.536931
21
45.366895
0
LINE
8
Layer 1
10
30.536931
20
45.366895
11
30.350100
21
45.366900
0
LINE
8
Layer 1
10
30.350100
20
45.366900
11
30.283194
21
45.389201
0
LINE
8
Layer 1
10
30.283194
20
45.389201
11
30.252530
21
45.436593
0
LINE
8
Layer 1
10
30.252530
20
45.436593
11
29.940305
21
46.367694
0
LINE
8
Layer 1
10
29.940305
20
46.367694
11
29.628077
21
45.436593
0
LINE
8
Layer 1
10
29.628077
20
45.436593
11
29.594625
21
45.389201
0
LINE
8
Layer 1
10
29.594625
20
45.389201
11
29.527719
21
45.366900
0
LINE
8
Layer 1
10
29.527719
20
45.366900
11
29.341000
21
45.366900
0
LINE
8
Layer 1
10
31.362100
20
45.366900
11
31.314709
21
45.386416
0
LINE
8
Layer 1
10
31.314709
20
45.386416
11
31.295179
21
45.433807
0
LINE
8
Layer 1
10
31.295179
20
45.433807
11
31.295200
21
47.248600
0
LINE
8
Layer 1
10
31.295200
20
47.248600
11
31.314730
21
47.298779
0
LINE
8
Layer 1
10
31.314730
20
47.298779
11
31.362121
21
47.318293
0
LINE
8
Layer 1
10
31.362121
20
47.318293
11
31.576800
21
47.318300
0
LINE
8
Layer 1
10
31.576800
20
47.318300
11
31.632553
21
47.298786
0
LINE
8
Layer 1
10
31.632553
20
47.298786
11
31.657642
21
47.273696
0
LINE
8
Layer 1
10
31.657642
20
47.273696
11
32.460510
21
46.024797
0
LINE
8
Layer 1
10
32.460510
20
46.024797
11
32.460500
21
47.248600
0
LINE
8
Layer 1
10
32.460500
20
47.248600
11
32.477236
21
47.298779
0
LINE
8
Layer 1
10
32.477236
20
47.298779
11
32.527415
21
47.318293
0
LINE
8
Layer 1
10
32.527415
20
47.318293
11
32.761600
21
47.318300
0
LINE
8
Layer 1
10
32.761600
20
47.318300
11
32.811779
21
47.298786
0
LINE
8
Layer 1
10
32.811779
20
47.298786
11
32.831281
21
47.248607
0
LINE
8
Layer 1
10
32.831281
20
47.248607
11
32.831200
21
45.436600
0
LINE
8
Layer 1
10
32.831200
20
45.436600
11
32.811699
21
45.386421
0
LINE
8
Layer 1
10
32.811699
20
45.386421
11
32.764305
21
45.366905
0
LINE
8
Layer 1
10
32.764305
20
45.366905
11
32.546900
21
45.366900
0
LINE
8
Layer 1
10
32.546900
20
45.366900
11
32.491144
21
45.386416
0
LINE
8
Layer 1
10
32.491144
20
45.386416
11
32.466055
21
45.411505
0
LINE
8
Layer 1
10
32.466055
20
45.411505
11
31.665978
21
46.632525
0
LINE
8
Layer 1
10
31.665978
20
46.632525
11
31.666000
21
45.433800
0
LINE
8
Layer 1
10
31.666000
20
45.433800
11
31.646498
21
45.386409
0
LINE
8
Layer 1
10
31.646498
20
45.386409
11
31.596319
21
45.366893
0
LINE
8
Layer 1
10
31.596319
20
45.366893
11
31.362100
21
45.366900
0
LINE
8
Layer 1
10
33.333000
20
45.366900
11
33.285609
21
45.386416
0
LINE
8
Layer 1
10
33.285609
20
45.386416
11
33.266108
21
45.433807
0
LINE
8
Layer 1
10
33.266108
20
45.433807
11
33.266100
21
47.251400
0
LINE
8
Layer 1
10
33.266100
20
47.251400
11
33.285601
21
47.298791
0
LINE
8
Layer 1
10
33.285601
20
47.298791
11
33.332992
21
47.318305
0
LINE
8
Layer 1
10
33.332992
20
47.318305
11
33.592300
21
47.318300
0
LINE
8
Layer 1
10
33.592300
20
47.318300
11
33.639691
21
47.298786
0
LINE
8
Layer 1
10
33.639691
20
47.298786
11
33.659192
21
47.251395
0
LINE
8
Layer 1
10
33.659192
20
47.251395
11
33.659200
21
45.698600
0
LINE
8
Layer 1
10
33.659200
20
45.698600
11
34.542900
21
45.698600
0
LINE
8
Layer 1
10
34.542900
20
45.698600
11
34.593079
21
45.679086
0
LINE
8
Layer 1
10
34.593079
20
45.679086
11
34.612581
21
45.628907
0
LINE
8
Layer 1
10
34.612581
20
45.628907
11
34.612600
21
45.433800
0
LINE
8
Layer 1
10
34.612600
20
45.433800
11
34.593099
21
45.386409
0
LINE
8
Layer 1
10
34.593099
20
45.386409
11
34.542919
21
45.366893
0
LINE
8
Layer 1
10
34.542919
20
45.366893
11
33.333000
21
45.366900
0
LINE
8
Layer 1
10
35.607800
20
45.339000
11
35.181278
21
45.419844
0
LINE
8
Layer 1
10
35.181278
20
45.419844
11
34.902505
21
45.673527
0
LINE
8
Layer 1
10
34.902505
20
45.673527
11
34.793785
21
46.102837
0
LINE
8
Layer 1
10
34.793785
20
46.102837
11
34.790963
21
46.339794
0
LINE
8
Layer 1
10
34.790963
20
46.339794
11
34.793785
21
46.579538
0
LINE
8
Layer 1
10
34.793785
20
46.579538
11
34.905294
21
47.003272
0
LINE
8
Layer 1
10
34.905294
20
47.003272
11
35.186856
21
47.259743
0
LINE
8
Layer 1
10
35.186856
20
47.259743
11
35.607801
21
47.346162
0
LINE
8
Layer 1
10
35.607801
20
47.346162
11
36.028749
21
47.259743
0
LINE
8
Layer 1
10
36.028749
20
47.259743
11
36.313096
21
47.003272
0
LINE
8
Layer 1
10
36.313096
20
47.003272
11
36.424605
21
46.579538
0
LINE
8
Layer 1
10
36.424605
20
46.579538
11
36.430193
21
46.339794
0
LINE
8
Layer 1
10
36.430193
20
46.339794
11
36.424605
21
46.102837
0
LINE
8
Layer 1
10
36.424605
20
46.102837
11
36.315885
21
45.673527
0
LINE
8
Layer 1
10
36.315885
20
45.673527
11
36.034323
21
45.419844
0
LINE
8
Layer 1
10
36.034323
20
45.419844
11
35.607801
21
45.339000
0
LINE
8
Layer 1
10
35.607801
20
45.339000
11
35.607800
21
45.339000
0
LINE
8
Layer 1
10
35.607800
20
45.659588
11
35.903301
21
45.765522
0
LINE
8
Layer 1
10
35.903301
20
45.765522
11
36.025960
21
46.116776
0
LINE
8
Layer 1
10
36.025960
20
46.116776
11
36.031548
21
46.342582
0
LINE
8
Layer 1
10
36.031548
20
46.342582
11
36.025960
21
46.568388
0
LINE
8
Layer 1
10
36.025960
20
46.568388
11
35.964630
21
46.830434
0
LINE
8
Layer 1
10
35.964630
20
46.830434
11
35.819667
21
46.978184
0
LINE
8
Layer 1
10
35.819667
20
46.978184
11
35.607800
21
47.025575
0
LINE
8
Layer 1
10
35.607800
20
47.025575
11
35.398721
21
46.978184
0
LINE
8
Layer 1
10
35.398721
20
46.978184
11
35.250972
21
46.830434
0
LINE
8
Layer 1
10
35.250972
20
46.830434
11
35.192428
21
46.568388
0
LINE
8
Layer 1
10
35.192428
20
46.568388
11
35.189606
21
46.342582
0
LINE
8
Layer 1
10
35.189606
20
46.342582
11
35.192428
21
46.116776
0
LINE
8
Layer 1
10
35.192428
20
46.116776
11
35.315090
21
45.765522
0
LINE
8
Layer 1
10
35.315090
20
45.765522
11
35.607799
21
45.659588
0
LINE
8
Layer 1
10
35.607799
20
45.659588
11
35.607800
21
45.659588
0
LINE
8
Layer 1
10
36.636500
20
45.366900
11
36.594683
21
45.383627
0
LINE
8
Layer 1
10
36.594683
20
45.383627
11
36.577947
21
45.425443
0
LINE
8
Layer 1
10
36.577947
20
45.425443
11
36.583535
21
45.450533
0
LINE
8
Layer 1
10
36.583535
20
45.450533
11
37.255379
21
47.248613
0
LINE
8
Layer 1
10
37.255379
20
47.248613
11
37.286043
21
47.296004
0
LINE
8
Layer 1
10
37.286043
20
47.296004
11
37.352949
21
47.318306
0
LINE
8
Layer 1
10
37.352949
20
47.318306
11
37.656800
21
47.318300
0
LINE
8
Layer 1
10
37.656800
20
47.318300
11
37.720918
21
47.295998
0
LINE
8
Layer 1
10
37.720918
20
47.295998
11
37.754370
21
47.248607
0
LINE
8
Layer 1
10
37.754370
20
47.248607
11
38.426214
21
45.450527
0
LINE
8
Layer 1
10
38.426214
20
45.450527
11
38.429036
21
45.425437
0
LINE
8
Layer 1
10
38.429036
20
45.425437
11
38.412300
21
45.383621
0
LINE
8
Layer 1
10
38.412300
20
45.383621
11
38.373272
21
45.366894
0
LINE
8
Layer 1
10
38.373272
20
45.366894
11
38.130700
21
45.366900
0
LINE
8
Layer 1
10
38.130700
20
45.366900
11
38.072159
21
45.383627
0
LINE
8
Layer 1
10
38.072159
20
45.383627
11
38.049863
21
45.419868
0
LINE
8
Layer 1
10
38.049863
20
45.419868
11
37.918839
21
45.759971
0
LINE
8
Layer 1
10
37.918839
20
45.759971
11
37.090900
21
45.759900
0
LINE
8
Layer 1
10
37.090900
20
45.759900
11
36.959876
21
45.419797
0
LINE
8
Layer 1
10
36.959876
20
45.419797
11
36.934787
21
45.383557
0
LINE
8
Layer 1
10
36.934787
20
45.383557
11
36.879033
21
45.366829
0
LINE
8
Layer 1
10
36.879033
20
45.366829
11
36.636500
21
45.366900
0
LINE
8
Layer 1
10
37.188470
20
46.080558
11
37.821300
21
46.080500
0
LINE
8
Layer 1
10
37.821300
20
46.080500
11
37.503498
21
46.941908
0
LINE
8
Layer 1
10
37.503498
20
46.941908
11
37.188470
21
46.080558
0
LINE
8
Layer 1
10
38.755100
20
45.366900
11
38.707709
21
45.386416
0
LINE
8
Layer 1
10
38.707709
20
45.386416
11
38.688208
21
45.433807
0
LINE
8
Layer 1
10
38.688208
20
45.433807
11
38.688300
21
47.248600
0
LINE
8
Layer 1
10
38.688300
20
47.248600
11
38.707801
21
47.298779
0
LINE
8
Layer 1
10
38.707801
20
47.298779
11
38.755192
21
47.318293
0
LINE
8
Layer 1
10
38.755192
20
47.318293
11
39.435400
21
47.318300
0
LINE
8
Layer 1
10
39.435400
20
47.318300
11
39.898162
21
47.231881
0
LINE
8
Layer 1
10
39.898162
20
47.231881
11
40.174147
21
46.975410
0
LINE
8
Layer 1
10
40.174147
20
46.975410
11
40.271720
21
46.560039
0
LINE
8
Layer 1
10
40.271720
20
46.560039
11
40.277308
21
46.342596
0
LINE
8
Layer 1
10
40.277308
20
46.342596
11
40.271720
21
46.127941
0
LINE
8
Layer 1
10
40.271720
20
46.127941
11
40.176935
21
45.698631
0
LINE
8
Layer 1
10
40.176935
20
45.698631
11
39.906527
21
45.447736
0
LINE
8
Layer 1
10
39.906527
20
45.447736
11
39.449339
21
45.366891
0
LINE
8
Layer 1
10
39.449339
20
45.366891
11
38.755100
21
45.366900
0
LINE
8
Layer 1
10
39.075690
20
45.687489
11
39.435400
21
45.687500
0
LINE
8
Layer 1
10
39.435400
20
45.687500
11
39.689084
21
45.732104
0
LINE
8
Layer 1
10
39.689084
20
45.732104
11
39.831259
21
45.874278
0
LINE
8
Layer 1
10
39.831259
20
45.874278
11
39.881438
21
46.136324
0
LINE
8
Layer 1
10
39.881438
20
46.136324
11
39.884260
21
46.281286
0
LINE
8
Layer 1
10
39.884260
20
46.281286
11
39.884260
21
46.406734
0
LINE
8
Layer 1
10
39.884260
20
46.406734
11
39.881438
21
46.551696
0
LINE
8
Layer 1
10
39.881438
20
46.551696
11
39.767141
21
46.889011
0
LINE
8
Layer 1
10
39.767141
20
46.889011
11
39.421461
21
46.997732
0
LINE
8
Layer 1
10
39.421461
20
46.997732
11
39.075700
21
46.997700
0
LINE
8
Layer 1
10
39.075700
20
46.997700
11
39.075690
21
45.687489
0
LINE
8
Layer 1
10
40.714900
20
45.366900
11
40.667509
21
45.386416
0
LINE
8
Layer 1
10
40.667509
20
45.386416
11
40.648008
21
45.433807
0
LINE
8
Layer 1
10
40.648008
20
45.433807
11
40.648000
21
47.251400
0
LINE
8
Layer 1
10
40.648000
20
47.251400
11
40.667502
21
47.298791
0
LINE
8
Layer 1
10
40.667502
20
47.298791
11
40.714892
21
47.318305
0
LINE
8
Layer 1
10
40.714892
20
47.318305
11
40.977000
21
47.318300
0
LINE
8
Layer 1
10
40.977000
20
47.318300
11
41.024391
21
47.298786
0
LINE
8
Layer 1
10
41.024391
20
47.298786
11
41.043892
21
47.251395
0
LINE
8
Layer 1
10
41.043892
20
47.251395
11
41.043900
21
45.433800
0
LINE
8
Layer 1
10
41.043900
20
45.433800
11
41.024399
21
45.386409
0
LINE
8
Layer 1
10
41.024399
20
45.386409
11
40.977008
21
45.366893
0
LINE
8
Layer 1
10
40.977008
20
45.366893
11
40.714900
21
45.366900
0
LINE
8
Layer 1
10
41.548400
20
45.366900
11
41.501007
21
45.386416
0
LINE
8
Layer 1
10
41.501007
20
45.386416
11
41.481505
21
45.433807
0
LINE
8
Layer 1
10
41.481505
20
45.433807
11
41.481600
21
47.248600
0
LINE
8
Layer 1
10
41.481600
20
47.248600
11
41.501101
21
47.298779
0
LINE
8
Layer 1
10
41.501101
20
47.298779
11
41.548495
21
47.318293
0
LINE
8
Layer 1
10
41.548495
20
47.318293
11
41.763100
21
47.318300
0
LINE
8
Layer 1
10
41.763100
20
47.318300
11
41.818856
21
47.298786
0
LINE
8
Layer 1
10
41.818856
20
47.298786
11
41.843945
21
47.273696
0
LINE
8
Layer 1
10
41.843945
20
47.273696
11
42.646810
21
46.024797
0
LINE
8
Layer 1
10
42.646810
20
46.024797
11
42.646800
21
47.248600
0
LINE
8
Layer 1
10
42.646800
20
47.248600
11
42.663536
21
47.298779
0
LINE
8
Layer 1
10
42.663536
20
47.298779
11
42.713715
21
47.318293
0
LINE
8
Layer 1
10
42.713715
20
47.318293
11
42.947900
21
47.318300
0
LINE
8
Layer 1
10
42.947900
20
47.318300
11
42.998079
21
47.298786
0
LINE
8
Layer 1
10
42.998079
20
47.298786
11
43.017609
21
47.248607
0
LINE
8
Layer 1
10
43.017609
20
47.248607
11
43.017600
21
45.436600
0
LINE
8
Layer 1
10
43.017600
20
45.436600
11
42.998070
21
45.386421
0
LINE
8
Layer 1
10
42.998070
20
45.386421
11
42.950679
21
45.366905
0
LINE
8
Layer 1
10
42.950679
20
45.366905
11
42.733200
21
45.366900
0
LINE
8
Layer 1
10
42.733200
20
45.366900
11
42.677447
21
45.386416
0
LINE
8
Layer 1
10
42.677447
20
45.386416
11
42.652357
21
45.411505
0
LINE
8
Layer 1
10
42.652357
20
45.411505
11
41.852277
21
46.632525
0
LINE
8
Layer 1
10
41.852277
20
46.632525
11
41.852300
21
45.433800
0
LINE
8
Layer 1
10
41.852300
20
45.433800
11
41.832799
21
45.386409
0
LINE
8
Layer 1
10
41.832799
20
45.386409
11
41.782619
21
45.366893
0
LINE
8
Layer 1
10
41.782619
20
45.366893
11
41.548400
21
45.366900
0
LINE
8
Layer 1
10
44.210700
20
45.339000
11
43.773027
21
45.428207
0
LINE
8
Layer 1
10
43.773027
20
45.428207
11
43.494254
21
45.684678
0
LINE
8
Layer 1
10
43.494254
20
45.684678
11
43.388319
21
46.088898
0
LINE
8
Layer 1
10
43.388319
20
46.088898
11
43.385497
21
46.345369
0
LINE
8
Layer 1
10
43.385497
20
46.345369
11
43.388319
21
46.607415
0
LINE
8
Layer 1
10
43.388319
20
46.607415
11
43.494254
21
47.003272
0
LINE
8
Layer 1
10
43.494254
20
47.003272
11
43.775813
21
47.256955
0
LINE
8
Layer 1
10
43.775813
20
47.256955
11
44.210700
21
47.346162
0
LINE
8
Layer 1
10
44.210700
20
47.346162
11
44.567527
21
47.290408
0
LINE
8
Layer 1
10
44.567527
20
47.290408
11
44.821211
21
47.151022
0
LINE
8
Layer 1
10
44.821211
20
47.151022
11
44.974537
21
46.969820
0
LINE
8
Layer 1
10
44.974537
20
46.969820
11
45.030290
21
46.788618
0
LINE
8
Layer 1
10
45.030290
20
46.788618
11
45.016348
21
46.746802
0
LINE
8
Layer 1
10
45.016348
20
46.746802
11
44.971746
21
46.730076
0
LINE
8
Layer 1
10
44.971746
20
46.730076
11
44.684600
21
46.730100
0
LINE
8
Layer 1
10
44.684600
20
46.730100
11
44.642783
21
46.741251
0
LINE
8
Layer 1
10
44.642783
20
46.741251
11
44.617694
21
46.774704
0
LINE
8
Layer 1
10
44.617694
20
46.774704
11
44.548002
21
46.889001
0
LINE
8
Layer 1
10
44.548002
20
46.889001
11
44.419766
21
46.986571
0
LINE
8
Layer 1
10
44.419766
20
46.986571
11
44.210687
21
47.025599
0
LINE
8
Layer 1
10
44.210687
20
47.025599
11
43.906824
21
46.925241
0
LINE
8
Layer 1
10
43.906824
20
46.925241
11
43.786950
21
46.593501
0
LINE
8
Layer 1
10
43.786950
20
46.593501
11
43.786950
21
46.102861
0
LINE
8
Layer 1
10
43.786950
20
46.102861
11
43.909612
21
45.762758
0
LINE
8
Layer 1
10
43.909612
20
45.762758
11
44.216260
21
45.659612
0
LINE
8
Layer 1
10
44.216260
20
45.659612
11
44.439277
21
45.704216
0
LINE
8
Layer 1
10
44.439277
20
45.704216
11
44.595391
21
45.843602
0
LINE
8
Layer 1
10
44.595391
20
45.843602
11
44.653932
21
46.086134
0
LINE
8
Layer 1
10
44.653932
20
46.086134
11
44.654000
21
46.172500
0
LINE
8
Layer 1
10
44.654000
20
46.172500
11
44.313900
21
46.172500
0
LINE
8
Layer 1
10
44.313900
20
46.172500
11
44.266509
21
46.192014
0
LINE
8
Layer 1
10
44.266509
20
46.192014
11
44.247008
21
46.242193
0
LINE
8
Layer 1
10
44.247008
20
46.242193
11
44.247000
21
46.390000
0
LINE
8
Layer 1
10
44.247000
20
46.390000
11
44.266501
21
46.440179
0
LINE
8
Layer 1
10
44.266501
20
46.440179
11
44.313892
21
46.459693
0
LINE
8
Layer 1
10
44.313892
20
46.459693
11
44.980100
21
46.459700
0
LINE
8
Layer 1
10
44.980100
20
46.459700
11
45.027493
21
46.440186
0
LINE
8
Layer 1
10
45.027493
20
46.440186
11
45.046995
21
46.390007
0
LINE
8
Layer 1
10
45.046995
20
46.390007
11
45.047000
21
46.097200
0
LINE
8
Layer 1
10
45.047000
20
46.097200
11
44.943854
21
45.692980
0
LINE
8
Layer 1
10
44.943854
20
45.692980
11
44.653930
21
45.430934
0
LINE
8
Layer 1
10
44.653930
20
45.430934
11
44.210683
21
45.338939
0
LINE
8
Layer 1
10
44.210683
20
45.338939
11
44.210700
21
45.339000
0
LINE
8
Layer 1
10
45.445700
20
45.907700
11
45.398307
21
45.924426
0
LINE
8
Layer 1
10
45.398307
20
45.924426
11
45.378805
21
45.974606
0
LINE
8
Layer 1
10
45.378805
20
45.974606
11
45.378800
21
47.251400
0
LINE
8
Layer 1
10
45.378800
20
47.251400
11
45.398301
21
47.298791
0
LINE
8
Layer 1
10
45.398301
20
47.298791
11
45.445695
21
47.318305
0
LINE
8
Layer 1
10
45.445695
20
47.318305
11
45.671500
21
47.318300
0
LINE
8
Layer 1
10
45.671500
20
47.318300
11
45.718891
21
47.298786
0
LINE
8
Layer 1
10
45.718891
20
47.298786
11
45.738392
21
47.251395
0
LINE
8
Layer 1
10
45.738392
20
47.251395
11
45.738400
21
45.974600
0
LINE
8
Layer 1
10
45.738400
20
45.974600
11
45.718899
21
45.924421
0
LINE
8
Layer 1
10
45.718899
20
45.924421
11
45.671508
21
45.907694
0
LINE
8
Layer 1
10
45.671508
20
45.907694
11
45.445700
21
45.907700
0
LINE
8
Layer 1
10
45.428964
20
45.366881
11
45.381574
21
45.386397
0
LINE
8
Layer 1
10
45.381574
20
45.386397
11
45.362044
21
45.433788
0
LINE
8
Layer 1
10
45.362044
20
45.433788
11
45.362000
21
45.693000
0
LINE
8
Layer 1
10
45.362000
20
45.693000
11
45.381530
21
45.743179
0
LINE
8
Layer 1
10
45.381530
20
45.743179
11
45.428921
21
45.762693
0
LINE
8
Layer 1
10
45.428921
20
45.762693
11
45.688200
21
45.762700
0
LINE
8
Layer 1
10
45.688200
20
45.762700
11
45.738379
21
45.743186
0
LINE
8
Layer 1
10
45.738379
20
45.743186
11
45.757909
21
45.693007
0
LINE
8
Layer 1
10
45.757909
20
45.693007
11
45.757900
21
45.433800
0
LINE
8
Layer 1
10
45.757900
20
45.433800
11
45.738370
21
45.386409
0
LINE
8
Layer 1
10
45.738370
20
45.386409
11
45.688191
21
45.366893
0
LINE
8
Layer 1
10
45.688191
20
45.366893
11
45.428964
21
45.366881
 0 
ENDSEC
 0 
EOF